<svg preserveAspectRatio="none" overflow="visible" style="display: block;" width="20" height="20" viewBox="0 0 20 20" fill="none" xmlns="http://www.w3.org/2000/svg">
<g id="lucide/user-round-pen">
<path id="Vector" d="M1.66667 17.5C1.66655 16.4218 1.92793 15.3597 2.4284 14.4047C2.92887 13.4497 3.65349 12.6304 4.54013 12.0169C5.42677 11.4035 6.44896 11.0142 7.51907 10.8825C8.58917 10.7508 9.67525 10.8806 10.6842 11.2608" stroke="#4B5563" stroke-width="1.04167" stroke-linecap="round" stroke-linejoin="round"/>
<path id="Vector_2" d="M17.815 13.855C18.147 13.523 18.3335 13.0728 18.3335 12.6033C18.3335 12.1339 18.147 11.6836 17.815 11.3517C17.483 11.0197 17.0328 10.8332 16.5633 10.8332C16.0939 10.8332 15.6436 11.0197 15.3117 11.3517L11.97 14.695C11.7719 14.893 11.6269 15.1378 11.5483 15.4067L10.8508 17.7983C10.8299 17.87 10.8287 17.9461 10.8472 18.0184C10.8657 18.0908 10.9034 18.1568 10.9562 18.2096C11.009 18.2624 11.0751 18.3001 11.1474 18.3186C11.2198 18.3372 11.2958 18.3359 11.3675 18.315L13.7592 17.6175C14.0281 17.539 14.2728 17.394 14.4708 17.1958L17.815 13.855Z" stroke="#4B5563" stroke-width="1.04167" stroke-linecap="round" stroke-linejoin="round"/>
<path id="Vector_3" d="M8.33333 10.8333C10.6345 10.8333 12.5 8.96785 12.5 6.66667C12.5 4.36548 10.6345 2.5 8.33333 2.5C6.03215 2.5 4.16667 4.36548 4.16667 6.66667C4.16667 8.96785 6.03215 10.8333 8.33333 10.8333Z" stroke="#4B5563" stroke-width="1.04167" stroke-linecap="round" stroke-linejoin="round"/>
</g>
</svg>
