<svg width="92" height="104" viewBox="0 0 92 104" fill="none" xmlns="http://www.w3.org/2000/svg">
<mask id="path-1-outside-1_750_9673" maskUnits="userSpaceOnUse" x="-0.756348" y="5.73145" width="86" height="98" fill="black">
<rect fill="white" x="-0.756348" y="5.73145" width="86" height="98"/>
<path fill-rule="evenodd" clip-rule="evenodd" d="M81.7767 33.1293C81.7768 33.1294 81.7769 33.1294 81.7771 33.1294C81.7775 33.1294 81.7778 33.1298 81.7778 33.1302V76.7788C81.7778 77.3594 81.4675 77.8957 80.9641 78.185L43.3195 99.8221C42.819 100.11 42.2034 100.11 41.703 99.8221L4.05734 78.185C3.55398 77.8957 3.24365 77.3594 3.24365 76.7788V34.0389C3.24365 33.474 3.53758 32.9497 4.01955 32.6551L41.1252 9.96957C41.6384 9.65584 42.283 9.65184 42.8 9.95919L81.7767 33.1293Z"/>
</mask>
<path fill-rule="evenodd" clip-rule="evenodd" d="M81.7767 33.1293C81.7768 33.1294 81.7769 33.1294 81.7771 33.1294C81.7775 33.1294 81.7778 33.1298 81.7778 33.1302V76.7788C81.7778 77.3594 81.4675 77.8957 80.9641 78.185L43.3195 99.8221C42.819 100.11 42.2034 100.11 41.703 99.8221L4.05734 78.185C3.55398 77.8957 3.24365 77.3594 3.24365 76.7788V34.0389C3.24365 33.474 3.53758 32.9497 4.01955 32.6551L41.1252 9.96957C41.6384 9.65584 42.283 9.65184 42.8 9.95919L81.7767 33.1293Z" fill="black"/>
<path d="M41.1252 9.96957L39.4332 7.202L41.1252 9.96957ZM42.8 9.95919L41.1424 12.7475L42.8 9.95919ZM4.01955 32.6551L5.71158 35.4227L4.01955 32.6551ZM4.05734 78.185L2.4409 80.9974L4.05734 78.185ZM43.3195 99.8221L41.703 97.0098L43.3195 99.8221ZM41.703 99.8221L40.0866 102.635L41.703 99.8221ZM80.9641 78.185L82.5806 80.9974L80.9641 78.185ZM81.7767 33.1293L80.1191 35.9177L81.7767 33.1293ZM81.7778 33.1302H78.534V76.7788H81.7778H85.0217V33.1302H81.7778ZM80.9641 78.185L79.3477 75.3726L41.703 97.0098L43.3195 99.8221L44.9359 102.634L82.5806 80.9974L80.9641 78.185ZM41.703 99.8221L43.3194 97.0097L5.67379 75.3726L4.05734 78.185L2.4409 80.9974L40.0866 102.635L41.703 99.8221ZM3.24365 76.7788H6.48748V34.0389H3.24365H-0.000179529V76.7788H3.24365ZM4.01955 32.6551L5.71158 35.4227L42.8172 12.7371L41.1252 9.96957L39.4332 7.202L2.32752 29.8875L4.01955 32.6551ZM42.8 9.95919L41.1424 12.7475L80.1191 35.9177L81.7767 33.1293L83.4342 30.341L44.4576 7.17083L42.8 9.95919ZM41.1252 9.96957L42.8172 12.7371C42.3041 13.0509 41.6594 13.0549 41.1424 12.7475L42.8 9.95919L44.4576 7.17083C42.9065 6.24881 40.9726 6.2608 39.4332 7.202L41.1252 9.96957ZM3.24365 34.0389H6.48748C6.48748 34.6038 6.19355 35.128 5.71158 35.4227L4.01955 32.6551L2.32752 29.8875C0.881615 30.7715 -0.000179529 32.3441 -0.000179529 34.0389H3.24365ZM4.05734 78.185L5.67379 75.3726C6.17716 75.6619 6.48748 76.1982 6.48748 76.7788H3.24365H-0.000179529C-0.000179529 78.5206 0.930806 80.1295 2.4409 80.9974L4.05734 78.185ZM43.3195 99.8221L41.703 97.0098C42.2034 96.7221 42.819 96.7221 43.3194 97.0097L41.703 99.8221L40.0866 102.635C41.5879 103.497 43.4346 103.497 44.9359 102.634L43.3195 99.8221ZM81.7778 76.7788H78.534C78.534 76.1982 78.8443 75.6619 79.3477 75.3726L80.9641 78.185L82.5806 80.9974C84.0907 80.1294 85.0217 78.5206 85.0217 76.7788H81.7778ZM81.7771 33.1294V36.3733C79.986 36.3733 78.534 34.9213 78.534 33.1302H81.7778H85.0217C85.0217 31.3383 83.569 29.8856 81.7771 29.8856V33.1294ZM81.7771 33.1294V29.8856C82.3574 29.8856 82.9304 30.0414 83.4342 30.341L81.7767 33.1293L80.1191 35.9177C80.6232 36.2174 81.1964 36.3733 81.7771 36.3733V33.1294Z" fill="black" mask="url(#path-1-outside-1_750_9673)"/>
<mask id="path-3-outside-2_750_9673" maskUnits="userSpaceOnUse" x="5.73145" y="-0.755859" width="86" height="98" fill="black">
<rect fill="white" x="5.73145" y="-0.755859" width="86" height="98"/>
<path fill-rule="evenodd" clip-rule="evenodd" d="M88.2656 70.2925C88.2656 70.8731 87.9553 71.4094 87.4519 71.6987L49.8073 93.3358C49.3068 93.6234 48.6912 93.6234 48.1908 93.3358L10.5451 71.6987C10.0418 71.4094 9.73145 70.8731 9.73145 70.2925V29.4461C9.73145 28.1989 11.0803 27.4184 12.1616 28.0399L48.1908 48.7479C48.6912 49.0355 49.3068 49.0355 49.8073 48.7479L85.8355 28.0399C86.9167 27.4184 88.2656 28.1989 88.2656 29.4461V70.2925ZM85.8797 25.2244C86.9463 25.8584 86.9349 27.4064 85.8592 28.0247L49.8063 48.7469C49.3058 49.0346 48.6902 49.0346 48.1898 48.7469L12.103 28.0053C11.035 27.3914 11.0143 25.8579 12.0653 25.2153L47.613 3.48227C48.1262 3.16854 48.7708 3.16454 49.2878 3.47188L85.8797 25.2244Z"/>
</mask>
<path fill-rule="evenodd" clip-rule="evenodd" d="M88.2656 70.2925C88.2656 70.8731 87.9553 71.4094 87.4519 71.6987L49.8073 93.3358C49.3068 93.6234 48.6912 93.6234 48.1908 93.3358L10.5451 71.6987C10.0418 71.4094 9.73145 70.8731 9.73145 70.2925V29.4461C9.73145 28.1989 11.0803 27.4184 12.1616 28.0399L48.1908 48.7479C48.6912 49.0355 49.3068 49.0355 49.8073 48.7479L85.8355 28.0399C86.9167 27.4184 88.2656 28.1989 88.2656 29.4461V70.2925ZM85.8797 25.2244C86.9463 25.8584 86.9349 27.4064 85.8592 28.0247L49.8063 48.7469C49.3058 49.0346 48.6902 49.0346 48.1898 48.7469L12.103 28.0053C11.035 27.3914 11.0143 25.8579 12.0653 25.2153L47.613 3.48227C48.1262 3.16854 48.7708 3.16454 49.2878 3.47188L85.8797 25.2244Z" fill="#D9D9D9"/>
<path d="M47.613 3.48227L45.921 0.714692L47.613 3.48227ZM49.2878 3.47188L47.6302 6.26023L49.2878 3.47188ZM12.103 28.0053L13.7195 25.1929L12.103 28.0053ZM12.0653 25.2153L10.3732 22.4477L12.0653 25.2153ZM85.8592 28.0247L84.2427 25.2124L85.8592 28.0247ZM85.8797 25.2244L84.2221 28.0127L85.8797 25.2244ZM48.1908 48.7479L46.5743 51.5603L48.1908 48.7479ZM49.8073 48.7479L51.4237 51.5603L49.8073 48.7479ZM10.5451 71.6987L8.92869 74.5111L10.5451 71.6987ZM49.8073 93.3358L48.1908 90.5234L49.8073 93.3358ZM48.1908 93.3358L46.5743 96.1482L48.1908 93.3358ZM87.4519 71.6987L89.0684 74.5111L87.4519 71.6987ZM87.4519 71.6987L85.8355 68.8863L48.1908 90.5234L49.8073 93.3358L51.4237 96.1482L89.0684 74.5111L87.4519 71.6987ZM48.1908 93.3358L49.8072 90.5234L12.1616 68.8863L10.5451 71.6987L8.92869 74.5111L46.5743 96.1482L48.1908 93.3358ZM9.73145 70.2925H12.9753V29.4461H9.73145H6.48761V70.2925H9.73145ZM12.1616 28.0399L10.5451 30.8522L46.5743 51.5603L48.1908 48.7479L49.8072 45.9355L13.778 25.2275L12.1616 28.0399ZM49.8073 48.7479L51.4237 51.5603L87.452 30.8523L85.8355 28.0399L84.219 25.2275L48.1908 45.9355L49.8073 48.7479ZM88.2656 29.4461H85.0218V70.2925H88.2656H91.5095V29.4461H88.2656ZM85.8592 28.0247L84.2427 25.2124L48.1898 45.9345L49.8063 48.7469L51.4228 51.5593L87.4756 30.8371L85.8592 28.0247ZM48.1898 48.7469L49.8063 45.9345L13.7195 25.1929L12.103 28.0053L10.4866 30.8176L46.5733 51.5593L48.1898 48.7469ZM12.0653 25.2153L13.7573 27.9829L49.305 6.24984L47.613 3.48227L45.921 0.714692L10.3732 22.4477L12.0653 25.2153ZM49.2878 3.47188L47.6302 6.26023L84.2221 28.0127L85.8797 25.2244L87.5373 22.436L50.9454 0.683528L49.2878 3.47188ZM47.613 3.48227L49.305 6.24984C48.7919 6.56358 48.1472 6.56757 47.6302 6.26023L49.2878 3.47188L50.9454 0.683528C49.3943 -0.238497 47.4604 -0.226503 45.921 0.714692L47.613 3.48227ZM12.103 28.0053L13.7195 25.1929C14.7876 25.8068 14.8083 27.3403 13.7573 27.9829L12.0653 25.2153L10.3732 22.4477C7.2202 24.3754 7.28249 28.976 10.4866 30.8176L12.103 28.0053ZM49.8063 48.7469L48.1898 45.9345C48.6902 45.6469 49.3058 45.6469 49.8063 45.9345L48.1898 48.7469L46.5733 51.5593C48.0746 52.4222 49.9214 52.4222 51.4228 51.5593L49.8063 48.7469ZM85.8592 28.0247L87.4756 30.8371C90.7029 28.9822 90.7369 24.3381 87.5373 22.436L85.8797 25.2244L84.2221 28.0127C83.1556 27.3787 83.1669 25.8307 84.2427 25.2124L85.8592 28.0247ZM85.8355 28.0399L87.452 30.8523C86.3707 31.4738 85.0218 30.6932 85.0218 29.4461H88.2656H91.5095C91.5095 25.7046 87.4628 23.3631 84.219 25.2275L85.8355 28.0399ZM48.1908 48.7479L46.5743 51.5603C48.0757 52.4232 49.9224 52.4232 51.4237 51.5603L49.8073 48.7479L48.1908 45.9355C48.6912 45.6479 49.3068 45.6479 49.8072 45.9355L48.1908 48.7479ZM9.73145 29.4461H12.9753C12.9753 30.6932 11.6264 31.4737 10.5451 30.8522L12.1616 28.0399L13.778 25.2275C10.5342 23.3631 6.48761 25.7046 6.48761 29.4461H9.73145ZM10.5451 71.6987L12.1616 68.8863C12.6649 69.1756 12.9753 69.7119 12.9753 70.2925H9.73145H6.48761C6.48761 72.0342 7.4186 73.6431 8.92869 74.5111L10.5451 71.6987ZM49.8073 93.3358L48.1908 90.5234C48.6912 90.2358 49.3068 90.2358 49.8072 90.5234L48.1908 93.3358L46.5743 96.1482C48.0757 97.0111 49.9224 97.0111 51.4237 96.1482L49.8073 93.3358ZM87.4519 71.6987L89.0684 74.5111C90.5785 73.6431 91.5095 72.0342 91.5095 70.2925H88.2656H85.0218C85.0218 69.7119 85.3321 69.1756 85.8355 68.8863L87.4519 71.6987Z" fill="white" mask="url(#path-3-outside-2_750_9673)"/>
<path fill-rule="evenodd" clip-rule="evenodd" d="M88.2656 70.2925C88.2656 70.8731 87.9553 71.4094 87.4519 71.6987L49.8073 93.3358C49.3068 93.6234 48.6912 93.6234 48.1908 93.3358L10.5451 71.6987C10.0418 71.4094 9.73145 70.8731 9.73145 70.2925V29.4461C9.73145 28.1989 11.0803 27.4184 12.1616 28.0399L48.1908 48.7479C48.6912 49.0355 49.3068 49.0355 49.8073 48.7479L85.8355 28.0399C86.9167 27.4184 88.2656 28.1989 88.2656 29.4461V70.2925ZM85.8797 25.2244C86.9463 25.8584 86.9349 27.4064 85.8592 28.0247L49.8063 48.7469C49.3058 49.0346 48.6902 49.0346 48.1898 48.7469L12.103 28.0053C11.035 27.3914 11.0143 25.8579 12.0653 25.2153L47.613 3.48227C48.1262 3.16854 48.7708 3.16454 49.2878 3.47188L85.8797 25.2244Z" fill="#F39649"/>
<path d="M48.9985 50.1513C48.9985 49.5707 49.3089 49.0344 49.8122 48.7451L85.8351 28.0403C86.9164 27.4188 88.2653 28.1994 88.2653 29.4465V70.293C88.2653 70.8736 87.955 71.4099 87.4516 71.6992L51.4287 92.4039C50.3474 93.0254 48.9985 92.2449 48.9985 90.9977V50.1513Z" fill="#D2714E"/>
<path opacity="0.01" d="M48.9985 49.2128L9.73179 26.6436V71.2315L48.9985 93.8007V49.2128Z" fill="#F39649"/>
<path d="M47.6134 3.48271C48.1266 3.16898 48.7712 3.16498 49.2883 3.47233L85.88 25.225C86.9466 25.8591 86.9352 27.4071 85.8595 28.0254L49.8064 48.7475C49.306 49.0351 48.6904 49.0351 48.19 48.7475L12.1031 28.0059C11.035 27.3921 11.0143 25.8585 12.0653 25.2159L47.6134 3.48271Z" fill="#FEB96B"/>
<path opacity="0.5" d="M63.3685 40.5624L25.6376 17.3548C25.2097 17.0916 25.2303 16.4631 25.6745 16.2285L33.0794 12.3176C33.2795 12.2119 33.5202 12.2182 33.7146 12.334L72.3518 35.3663C72.5481 35.4834 72.6684 35.695 72.6684 35.9236V46.8107C72.6684 47.0471 72.5398 47.2648 72.3327 47.3789L64.6393 51.6182C64.2069 51.8564 63.6774 51.5436 63.6774 51.0499V41.115C63.6774 40.8896 63.5605 40.6804 63.3685 40.5624Z" fill="black"/>
<g clip-path="url(#clip0_750_9673)">
<path d="M40.1633 72.0394C40.1633 72.1021 40.1581 72.1425 40.1475 72.1608C39.4747 75.0831 38.0661 76.8915 35.9216 77.5858C33.777 78.2802 31.2645 77.6921 28.3841 75.8215C26.8493 74.8248 25.3645 73.5158 23.9295 71.8945C22.4946 70.2732 21.2147 68.4581 20.0898 66.4491L18.0557 67.5536C17.856 67.662 17.6194 67.6275 17.3461 67.45C17.0728 67.2725 16.8363 66.9998 16.6365 66.6319C16.4368 66.2641 16.3369 65.9172 16.3369 65.5913V57.168C16.3369 56.8421 16.4368 56.6249 16.6365 56.5165C16.8363 56.408 17.0728 56.4426 17.3461 56.6201L24.4105 61.2077C24.6838 61.3852 24.9203 61.6579 25.12 62.0258C25.3198 62.3936 25.4196 62.7405 25.4196 63.0664C25.4196 63.3923 25.3198 63.6095 25.12 63.7179L22.9597 64.8909C23.7061 66.2029 24.5524 67.3917 25.4985 68.4574C26.4446 69.523 27.4275 70.387 28.4472 71.0492C29.8559 71.964 31.1699 72.4099 32.3894 72.3871C33.6088 72.3643 34.5865 71.8773 35.3223 70.9262C35.438 70.7883 35.7166 70.2359 36.1581 69.2692C36.2422 69.0355 36.3999 68.9937 36.6311 69.1439L39.6587 71.1101C39.7954 71.1988 39.9136 71.3351 40.0135 71.5191C40.1134 71.703 40.1633 71.8765 40.1633 72.0394ZM40.5575 57.2539V65.6771C40.5575 66.003 40.4577 66.2202 40.2579 66.3287C40.0582 66.4371 39.8217 66.4026 39.5483 66.2251L32.484 61.6374C32.2107 61.4599 31.9741 61.1873 31.7744 60.8194C31.5747 60.4515 31.4748 60.1046 31.4748 59.7787C31.4748 59.4528 31.5747 59.2357 31.7744 59.1272L33.9505 57.9457C32.3946 55.2181 30.5602 53.1682 28.4472 51.796C27.0386 50.8812 25.7245 50.4352 24.5051 50.458C23.2856 50.4809 22.308 50.9678 21.5721 51.9189C21.4565 52.0569 21.1779 52.6093 20.7364 53.576C20.6523 53.8097 20.4946 53.8514 20.2633 53.7012L17.1253 51.6634C16.9887 51.5747 16.8704 51.4383 16.7706 51.2544C16.6707 51.0705 16.6207 50.897 16.6207 50.7341V50.6025C17.3041 47.6869 18.7232 45.8854 20.8783 45.1979C23.0333 44.5104 25.5563 45.1053 28.4472 46.9827C29.982 47.9794 31.4748 49.2967 32.9255 50.9344C34.3762 52.5722 35.664 54.3893 36.7888 56.3858L38.8387 55.2916C39.0385 55.1831 39.275 55.2177 39.5483 55.3952C39.8217 55.5727 40.0582 55.8453 40.2579 56.2132C40.4577 56.5811 40.5575 56.928 40.5575 57.2539Z" fill="#6A484C"/>
</g>
<path d="M84.3931 52.144V33.6375C84.3931 33.138 83.8524 32.8259 83.4199 33.0757L71.6896 39.8494C71.4889 39.9653 71.3653 40.1795 71.3653 40.4113V59.083C71.3653 59.5855 71.9119 59.8972 72.3444 59.6414L84.0746 52.7024C84.272 52.5856 84.3931 52.3734 84.3931 52.144Z" fill="#F6F5FF"/>
<path d="M82.375 39.3017V37.4668L73.384 42.788V44.6229L82.375 39.3017Z" fill="#918EBB"/>
<path d="M82.375 42.2402V40.4053L73.384 45.7265V47.5614L82.375 42.2402Z" fill="#918EBB"/>
<path d="M74.4477 50.1626L76.4316 48.835L76.3622 54.3568L74.3783 55.6845L74.4477 50.1626Z" fill="#6A688D"/>
<path d="M80.681 46.4584L82.3262 45.3574L82.2521 50.8499L80.607 51.9508L80.681 46.4584Z" fill="#6A688D"/>
<path d="M78.9479 47.3776L79.7705 46.8271L79.6965 52.3196L78.8739 52.8701L78.9479 47.3776Z" fill="#6A688D"/>
<path d="M77.1476 48.4782L77.9702 47.9277L77.8962 53.4202L77.0736 53.9707L77.1476 48.4782Z" fill="#6A688D"/>
<path d="M72.7424 51.193L73.5649 50.6426L73.4924 56.1748L72.6698 56.7253L72.7424 51.193Z" fill="#6A688D"/>
<defs>
<clipPath id="clip0_750_9673">
<rect width="28.8798" height="28.8798" fill="white" transform="matrix(0.838671 0.544639 0 1 16.3369 39.1182)"/>
</clipPath>
</defs>
</svg>
