<?xml version="1.0" encoding="UTF-8"?>
<svg version="1.1" xmlns="http://www.w3.org/2000/svg" width="500" height="500">
<path d="M0 0 C165 0 330 0 500 0 C500 165 500 330 500 500 C335 500 170 500 0 500 C0 335 0 170 0 0 Z " fill="#FEFEFE" transform="translate(0,0)"/>
<path d="M0 0 C3.08849616 1.10316394 5.62717168 1.80716188 8.94140625 1.3125 C10.29509221 -0.00016518 11.62940221 -1.33317325 12.94140625 -2.6875 C14.26140625 -2.6875 15.58140625 -2.6875 16.94140625 -2.6875 C16.94140625 -1.6975 16.94140625 -0.7075 16.94140625 0.3125 C16.13703125 0.60125 15.33265625 0.89 14.50390625 1.1875 C11.80875945 2.04512568 11.80875945 2.04512568 10.94140625 4.3125 C16.88140625 4.9725 22.82140625 5.6325 28.94140625 6.3125 C28.94140625 6.9725 28.94140625 7.6325 28.94140625 8.3125 C30.42149035 8.19887738 31.90050699 8.07127092 33.37890625 7.9375 C34.20261719 7.86789063 35.02632813 7.79828125 35.875 7.7265625 C36.55691406 7.58992187 37.23882812 7.45328125 37.94140625 7.3125 C38.27140625 6.6525 38.60140625 5.9925 38.94140625 5.3125 C39.60140625 5.3125 40.26140625 5.3125 40.94140625 5.3125 C40.94140625 6.6325 40.94140625 7.9525 40.94140625 9.3125 C37.60368815 11.03519321 34.94166721 11.42855093 31.25 11.375 C30.44232178 11.36597656 29.63464355 11.35695312 28.80249023 11.34765625 C28.18833252 11.33605469 27.5741748 11.32445312 26.94140625 11.3125 C19.13134375 25.1486051 19.13134375 25.1486051 11.94140625 39.3125 C12.27140625 39.6425 12.60140625 39.9725 12.94140625 40.3125 C13.48410156 39.90257812 14.02679688 39.49265625 14.5859375 39.0703125 C15.30136719 38.53148437 16.01679688 37.99265625 16.75390625 37.4375 C17.46160156 36.90382812 18.16929687 36.37015625 18.8984375 35.8203125 C22.93714468 32.83954582 24.92487381 32.089543 29.94140625 32.3125 C29.67400635 32.85140869 29.40660645 33.39031738 29.13110352 33.94555664 C27.91186159 36.41716487 26.70783279 38.89589786 25.50390625 41.375 C25.08302734 42.22255859 24.66214844 43.07011719 24.22851562 43.94335938 C21.87929623 48.81094197 20.34459013 52.90983601 19.94140625 58.3125 C24.91292384 56.93152289 26.34099525 54.65642466 28.94140625 50.3125 C30.24710143 47.62822724 31.3904536 44.89384578 32.50390625 42.125 C32.95842163 41.01040405 32.95842163 41.01040405 33.42211914 39.87329102 C35.71855283 34.13003156 37.57210502 28.35046637 38.94140625 22.3125 C40.59755282 21.93031233 42.26597649 21.59854898 43.94140625 21.3125 C44.27140625 21.6425 44.60140625 21.9725 44.94140625 22.3125 C44.56197137 26.41039669 44.24834668 28.85208935 41.94140625 32.3125 C45.24140625 32.3125 48.54140625 32.3125 51.94140625 32.3125 C51.61358742 36.4648718 50.42709444 39.49922462 48.50390625 43.125 C46.03417493 47.82891023 44.86740478 52.09323555 43.94140625 57.3125 C46.91907102 56.99837273 47.80995715 56.47080429 49.7578125 54.125 C53.3748385 48.29891786 56.06799005 42.89584286 57.94140625 36.3125 C58.59036861 34.63886023 59.24721062 32.96788958 59.94140625 31.3125 C61.92140625 31.3125 63.90140625 31.3125 65.94140625 31.3125 C64.82998669 36.23188694 62.59532152 40.65728964 60.46875 45.20507812 C58.46733831 49.63079393 57.39709739 53.47078164 56.94140625 58.3125 C59.88959556 57.83223152 59.88959556 57.83223152 62.94140625 56.3125 C64.68710964 52.90586492 64.68710964 52.90586492 65.94140625 49.3125 C66.9306499 48.30185812 67.93161142 47.30260828 68.94140625 46.3125 C70.91502741 43.21783506 72.62315448 39.97240385 74.37890625 36.75 C74.85650391 35.89341797 75.33410156 35.03683594 75.82617188 34.15429688 C78.62951592 29.04367378 80.95693228 23.92571223 83.05004883 18.48852539 C84.11932066 15.87816664 85.44675039 13.61902562 87.06640625 11.3125 C87.56398438 10.590625 88.0615625 9.86875 88.57421875 9.125 C89.94140625 7.3125 89.94140625 7.3125 91.94140625 5.3125 C95.06640625 5.1875 95.06640625 5.1875 97.94140625 5.3125 C96.57903137 8.1255774 95.08280395 10.78856868 93.4375 13.4453125 C88.29428174 21.82240224 83.22758787 30.246858 78.62890625 38.9375 C78.23823975 39.63375488 77.84757324 40.33000977 77.44506836 41.04736328 C74.55583078 46.67599144 74.80971051 51.16311754 75.94140625 57.3125 C78.84578192 56.98323914 80.49061147 56.759052 82.6015625 54.66796875 C86.58534682 48.50919355 88.86110372 42.31933715 90.94140625 35.3125 C91.60179132 33.31041708 92.26675562 31.30982095 92.94140625 29.3125 C91.62140625 29.3125 90.30140625 29.3125 88.94140625 29.3125 C88.94140625 28.6525 88.94140625 27.9925 88.94140625 27.3125 C90.33359375 27.23902344 90.33359375 27.23902344 91.75390625 27.1640625 C95.1143199 26.63800202 95.1143199 26.63800202 96.62890625 23.8359375 C97.06203125 22.79695313 97.49515625 21.75796875 97.94140625 20.6875 C100.2586917 15.61730365 102.46716255 10.82454075 106.94140625 7.3125 C109.75390625 6.8125 109.75390625 6.8125 111.94140625 7.3125 C112.94140625 8.3125 112.94140625 8.3125 113.31640625 11.125 C113.29219966 16.9103761 110.31053935 22.15963551 107.94140625 27.3125 C109.26140625 27.3125 110.58140625 27.3125 111.94140625 27.3125 C111.94140625 27.9725 111.94140625 28.6325 111.94140625 29.3125 C109.63140625 29.3125 107.32140625 29.3125 104.94140625 29.3125 C104.57015625 30.41851562 104.57015625 30.41851562 104.19140625 31.546875 C102.82418578 34.57185029 101.28570825 36.23543551 98.94140625 38.5625 C93.81843132 44.12167026 92.94140625 48.93088431 92.94140625 56.3125 C95.22834848 56.81629029 95.22834848 56.81629029 97.94140625 56.3125 C101.82145419 52.43245206 104.34492466 48.12079923 106.94140625 43.3125 C107.94140625 46.3125 107.94140625 46.3125 106.90234375 48.65234375 C101.16821037 58.04445876 101.16821037 58.04445876 96.94140625 60.3125 C93.37890625 60.9375 93.37890625 60.9375 89.94140625 60.3125 C87.50390625 57.3125 87.50390625 57.3125 85.94140625 54.3125 C85.5546875 54.745625 85.16796875 55.17875 84.76953125 55.625 C84.24875 56.181875 83.72796875 56.73875 83.19140625 57.3125 C82.6809375 57.869375 82.17046875 58.42625 81.64453125 59 C79.94140625 60.3125 79.94140625 60.3125 75.94140625 60.3125 C75.99941406 61.02792969 76.05742187 61.74335938 76.1171875 62.48046875 C76.52839273 71.56223004 74.9855571 80.13034391 69.26171875 87.46484375 C66.34448146 90.2200123 64.59757473 91.22744112 60.56640625 91.75 C57.94140625 91.3125 57.94140625 91.3125 56.94140625 90.3125 C56.29523425 78.46601331 60.1013981 68.87528508 64.94140625 58.3125 C63.95140625 58.9725 62.96140625 59.6325 61.94140625 60.3125 C59.60941237 60.39155064 57.27308003 60.40048769 54.94140625 60.3125 C53.95140625 58.3325 52.96140625 56.3525 51.94140625 54.3125 C51.42578125 55.116875 50.91015625 55.92125 50.37890625 56.75 C47.94140625 59.3125 47.94140625 59.3125 44.37890625 60.3125 C40.94140625 60.3125 40.94140625 60.3125 39.2265625 59.0703125 C37.17184525 56.25990897 37.80978503 54.11338718 38.28125 50.796875 C39.22657107 47.23933534 40.92464619 44.35315755 42.8828125 41.2578125 C44.18039968 39.24243187 44.18039968 39.24243187 43.94140625 36.3125 C41.96140625 35.6525 39.98140625 34.9925 37.94140625 34.3125 C37.75964844 34.9415625 37.57789063 35.570625 37.390625 36.21875 C35.78588041 41.68311108 34.00555171 47.00469738 31.94140625 52.3125 C31.28140625 52.3125 30.62140625 52.3125 29.94140625 52.3125 C29.69390625 53.09625 29.44640625 53.88 29.19140625 54.6875 C27.78751526 57.63567108 26.93464888 58.2149777 23.94140625 59.3125 C23.94140625 59.9725 23.94140625 60.6325 23.94140625 61.3125 C20.56640625 61.5 20.56640625 61.5 16.94140625 61.3125 C14.40244547 57.50405883 14.5022704 55.8502371 14.94140625 51.3125 C16.05583354 48.19525762 17.44686693 45.26339699 18.94140625 42.3125 C19.50214844 41.18908203 19.50214844 41.18908203 20.07421875 40.04296875 C20.36039062 39.47191406 20.6465625 38.90085938 20.94140625 38.3125 C12.74973246 42.40833689 7.5053605 49.30527935 3.4609375 57.30859375 C1.94140625 59.3125 1.94140625 59.3125 -0.734375 60.09765625 C-1.50136719 60.16855469 -2.26835937 60.23945313 -3.05859375 60.3125 C-2.50785834 55.52979774 -1.0296494 51.77318196 1.19140625 47.5625 C1.90831443 46.16836051 2.62439591 44.77379573 3.33984375 43.37890625 C3.74428711 42.59531738 4.14873047 41.81172852 4.56542969 41.00439453 C6.16389757 37.87722866 7.72992512 34.73486365 9.29296875 31.58984375 C9.87401367 30.42098633 10.45505859 29.25212891 11.05371094 28.04785156 C12.21899625 25.70243243 13.38371961 23.356734 14.54785156 21.01074219 C15.08764648 19.92825195 15.62744141 18.84576172 16.18359375 17.73046875 C16.66683105 16.75875732 17.15006836 15.7870459 17.64794922 14.78588867 C18.94140625 12.3125 18.94140625 12.3125 20.94140625 9.3125 C16.65140625 8.6525 12.36140625 7.9925 7.94140625 7.3125 C7.52890625 8.4675 7.11640625 9.6225 6.69140625 10.8125 C5.67339206 13.66293974 4.44071629 16.29872293 3.04296875 18.9765625 C0.71885165 23.56284873 -0.83875536 28.31020773 -2.43359375 33.1875 C-4.89854215 40.4600944 -7.50261297 47.05767893 -12.05859375 53.3125 C-12.80109375 54.385 -13.54359375 55.4575 -14.30859375 56.5625 C-23.79711275 66.051019 -35.7492587 69.59132903 -48.82421875 69.6315918 C-58.08296369 69.46851163 -66.84486987 66.19603366 -74.05859375 60.3125 C-79.12557261 54.04544719 -80.53682644 48.05151946 -80.375 40.1328125 C-79.7236024 34.32652775 -77.62056241 29.91351788 -73.55859375 25.75 C-71.05859375 24.3125 -71.05859375 24.3125 -67.05859375 24.3125 C-68.05859375 27.3125 -68.05859375 27.3125 -70.99609375 29.6875 C-74.4891403 32.51879433 -75.79289172 34.79557714 -76.2734375 39.34765625 C-76.56355346 46.11316049 -74.82055679 51.15564956 -71.55859375 57 C-64.76428844 63.28473241 -57.03446513 64.9996277 -47.98144531 64.83789062 C-41.78017177 64.52442615 -36.5873059 63.06782223 -31.05859375 60.3125 C-30.3315625 59.95027344 -29.60453125 59.58804688 -28.85546875 59.21484375 C-19.58378726 53.9950994 -14.71271841 45.58665317 -10.05859375 36.3125 C-9.39859375 36.3125 -8.73859375 36.3125 -8.05859375 36.3125 C-7.80980469 35.1575 -7.56101562 34.0025 -7.3046875 32.8125 C-6.17203076 28.28585775 -4.30470971 24.41529402 -2.12109375 20.3125 C0.63645521 15.07366859 2.9537957 9.89525564 4.94140625 4.3125 C4.338125 4.17972656 3.73484375 4.04695312 3.11328125 3.91015625 C2.3140625 3.73355469 1.51484375 3.55695313 0.69140625 3.375 C-0.49195313 3.11396484 -0.49195313 3.11396484 -1.69921875 2.84765625 C-3.1035052 2.52913432 -4.50328251 2.18706432 -5.88916016 1.79614258 C-10.24814732 0.82437198 -14.73551785 0.99943523 -19.18359375 0.9375 C-20.17875 0.90011719 -21.17390625 0.86273438 -22.19921875 0.82421875 C-30.06625663 0.73178619 -36.8143665 2.41628097 -42.74682617 7.86230469 C-46.50064935 12.16496363 -47.16808001 15.57049929 -47.2890625 21.1796875 C-47.0058479 23.8006226 -46.11721279 25.91073191 -45.05859375 28.3125 C-36.46700391 29.00437174 -36.46700391 29.00437174 -29.05859375 25.3125 C-26.97177306 22.92756207 -26.07008073 21.34696095 -25.05859375 18.3125 C-24.39859375 18.3125 -23.73859375 18.3125 -23.05859375 18.3125 C-23.3277941 22.17103832 -23.79148787 23.99345686 -26.30859375 27 C-31.0649031 30.99962377 -34.40066186 33.06365085 -40.70703125 32.86328125 C-45.21581705 31.80723674 -48.11287608 28.740768 -51.05859375 25.3125 C-53.51260555 21.32473083 -53.94191532 16.88826488 -53.05859375 12.3125 C-49.96812088 4.70970172 -45.29460415 0.04765965 -38.05859375 -3.6875 C-25.63643676 -7.828219 -11.8222441 -4.33800086 0 0 Z " fill="#F96130" transform="translate(323.05859375,211.6875)"/>
<path d="M0 0 C2.91973791 1.8680439 5.06505221 4.3162555 6.86328125 7.2421875 C8.41758876 17.60423754 5.73227809 27.38001086 2.86328125 37.2421875 C3.35634766 36.25992188 3.35634766 36.25992188 3.859375 35.2578125 C9.28209679 24.85324062 15.61615756 13.13581718 26.86328125 8.2421875 C30.9074412 7.57921046 32.75271002 7.61571142 36.30078125 9.6171875 C39.70330072 15.33342022 38.08605379 21.88909831 36.55078125 28.0546875 C36.28007812 29.04597656 36.009375 30.03726563 35.73046875 31.05859375 C34.78790191 34.51891797 33.97303007 37.99568198 33.17578125 41.4921875 C32.92441406 42.59046875 32.67304688 43.68875 32.4140625 44.8203125 C32.23230469 45.61953125 32.05054688 46.41875 31.86328125 47.2421875 C32.60191406 46.15421875 33.34054688 45.06625 34.1015625 43.9453125 C53.83024214 15.23356418 53.83024214 15.23356418 66.86328125 10.2421875 C70.29723332 10.4763206 71.41339283 10.79229908 73.86328125 13.2421875 C74.99666052 20.3942015 71.58205743 26.13915757 68.61328125 32.4921875 C60.60182782 49.2207505 60.60182782 49.2207505 57.67578125 67.3046875 C57.66160156 68.32691406 57.64742188 69.34914063 57.6328125 70.40234375 C57.86169317 73.22261909 58.41052346 74.8477211 59.86328125 77.2421875 C66.25533981 76.51855823 72.54355201 75.43875388 78.86328125 74.2421875 C79.05664062 73.66210938 79.25 73.08203125 79.44921875 72.484375 C80.92057292 68.0703125 82.39192708 63.65625 83.86328125 59.2421875 C83.39277344 59.86867188 82.92226562 60.49515625 82.4375 61.140625 C81.50357422 62.36652344 81.50357422 62.36652344 80.55078125 63.6171875 C79.93589844 64.42929687 79.32101563 65.24140625 78.6875 66.078125 C76.01676684 69.24640374 74.46092102 70.18976296 70.30078125 70.5546875 C69.16640625 70.4515625 68.03203125 70.3484375 66.86328125 70.2421875 C64.54995639 66.77220021 64.52370562 65.31709502 64.86328125 61.2421875 C65.52328125 60.2521875 66.18328125 59.2621875 66.86328125 58.2421875 C67.13140625 57.0459375 67.39953125 55.8496875 67.67578125 54.6171875 C68.82483244 49.62252144 71.18137923 43.92408952 74.86328125 40.2421875 C77.19625558 40.20125813 79.5303335 40.19977027 81.86328125 40.2421875 C81.04923828 41.65371094 81.04923828 41.65371094 80.21875 43.09375 C79.49600609 44.35151213 78.77335477 45.60932747 78.05078125 46.8671875 C77.69435547 47.48464844 77.33792969 48.10210937 76.97070312 48.73828125 C72.37791016 56.24215265 72.37791016 56.24215265 70.17578125 64.6171875 C70.07265625 65.8134375 69.96953125 67.0096875 69.86328125 68.2421875 C79.87500951 64.87089125 84.27933629 53.26234007 89.04296875 44.5234375 C90.86328125 41.2421875 90.86328125 41.2421875 91.86328125 40.2421875 C93.86286489 40.20137967 95.86373379 40.19964394 97.86328125 40.2421875 C97.41726562 40.933125 96.97125 41.6240625 96.51171875 42.3359375 C94.76503792 45.41539375 93.63255669 48.3938379 92.48828125 51.7421875 C90.09064674 58.63629767 87.51782848 65.44202822 84.86328125 72.2421875 C94.00782153 67.88151135 98.38932237 62.19010526 102.86328125 53.2421875 C103.52328125 53.2421875 104.18328125 53.2421875 104.86328125 53.2421875 C102.83666887 61.34863703 97.54975913 67.42792343 90.86328125 72.2421875 C89.55477044 72.79342109 88.24199742 73.33461448 86.92578125 73.8671875 C82.06994898 76.12893447 80.21772003 79.9952678 77.578125 84.484375 C73.97031929 90.28644979 68.52814615 96.08892345 61.86328125 98.2421875 C52.44019777 99.40683827 52.44019777 99.40683827 49.0703125 96.91796875 C46.9390885 93.95908495 47.33502559 91.7638919 47.86328125 88.2421875 C50.46058884 84.064641 53.36280089 81.24783635 57.86328125 79.2421875 C57.05890625 78.4790625 56.25453125 77.7159375 55.42578125 76.9296875 C51.47683765 72.7881125 51.45517566 69.13321249 51.52734375 63.6484375 C52.71243746 51.63213848 57.78737363 40.54479354 63.09375 29.8515625 C65.49837423 25.00411557 67.11071763 20.6355601 67.86328125 15.2421875 C58.30898098 16.69610276 52.12035117 24.34371237 46.48828125 31.6796875 C44.92387612 33.85492926 43.38346152 36.03668006 41.86328125 38.2421875 C41.39631836 38.91459473 40.92935547 39.58700195 40.44824219 40.27978516 C33.95395658 49.67851837 27.97117338 59.24396927 22.5078125 69.27734375 C20.86328125 72.2421875 20.86328125 72.2421875 19.86328125 73.2421875 C18.1971101 73.28282582 16.5294003 73.2849085 14.86328125 73.2421875 C15.24233417 68.05605441 17.24992264 64.27053249 19.60986328 59.75415039 C27.54848467 44.5098831 30.90060756 29.2052958 32.86328125 12.2421875 C30.26193141 11.107778 30.26193141 11.107778 26.86328125 11.2421875 C11.14055247 19.70300233 0.73047316 44.19431975 -5.72265625 59.89453125 C-11.52459754 73.63006629 -11.52459754 73.63006629 -14.13671875 76.2421875 C-16.13630239 76.28299533 -18.13717129 76.28473106 -20.13671875 76.2421875 C-19.51687963 73.46041416 -18.6725527 71.04640726 -17.4296875 68.484375 C-17.09001953 67.77539062 -16.75035156 67.06640625 -16.40039062 66.3359375 C-16.04525391 65.60375 -15.69011719 64.8715625 -15.32421875 64.1171875 C-1.13393455 36.26407315 -1.13393455 36.26407315 0.86328125 6.2421875 C-1.163331 3.44397517 -2.35580341 2.42330341 -5.73046875 1.640625 C-17.90172895 1.54246968 -26.42823422 6.87607072 -35.03662109 14.99243164 C-43.13253952 22.98677866 -47.12434415 30.33011672 -47.44921875 41.8046875 C-47.356324 47.58406799 -46.5246796 51.34600175 -42.796875 55.8671875 C-40.14657844 58.06225665 -37.79358373 57.65687203 -34.4765625 57.51171875 C-29.76457718 56.9689358 -26.45587619 55.86805649 -23.40625 52.109375 C-19.2607545 45.98467619 -17.90287605 42.60823265 -18.13671875 35.2421875 C-20.10494761 33.27395864 -23.48480584 33.57970369 -26.13671875 33.2421875 C-26.13671875 32.5821875 -26.13671875 31.9221875 -26.13671875 31.2421875 C-17.9828726 30.62680288 -17.9828726 30.62680288 -15.07421875 32.7421875 C-13.36871861 37.29018787 -13.33513799 41.04897348 -14.98046875 45.55078125 C-18.40710317 52.41562656 -23.22263775 56.44823371 -30.13671875 59.6171875 C-38.87101329 61.4368322 -38.87101329 61.4368322 -43.28515625 59.109375 C-47.50959862 56.10986387 -51.00868323 53.03026743 -53.13671875 48.2421875 C-54.4447428 37.73289083 -52.06062191 29.12092586 -45.984375 20.56640625 C-35.53791413 7.42550938 -17.9642539 -6.37123447 0 0 Z " fill="#F96030" transform="translate(119.13671875,201.7578125)"/>
<path d="M0 0 C0.94875 0.04125 1.8975 0.0825 2.875 0.125 C1.51262512 2.9380774 0.0163977 5.60106868 -1.62890625 8.2578125 C-6.77212451 16.63490224 -11.83881838 25.059358 -16.4375 33.75 C-16.8281665 34.44625488 -17.21883301 35.14250977 -17.62133789 35.85986328 C-20.51057547 41.48849144 -20.25669574 45.97561754 -19.125 52.125 C-16.22062433 51.79573914 -14.57579478 51.571552 -12.46484375 49.48046875 C-8.48105943 43.32169355 -6.20530253 37.13183715 -4.125 30.125 C-3.46461493 28.12291708 -2.79965063 26.12232095 -2.125 24.125 C-3.445 24.125 -4.765 24.125 -6.125 24.125 C-6.125 23.465 -6.125 22.805 -6.125 22.125 C-4.7328125 22.05152344 -4.7328125 22.05152344 -3.3125 21.9765625 C0.04791365 21.45050202 0.04791365 21.45050202 1.5625 18.6484375 C1.995625 17.60945313 2.42875 16.57046875 2.875 15.5 C5.19228545 10.42980365 7.4007563 5.63704075 11.875 2.125 C14.6875 1.625 14.6875 1.625 16.875 2.125 C17.875 3.125 17.875 3.125 18.25 5.9375 C18.22579341 11.7228761 15.2441331 16.97213551 12.875 22.125 C14.195 22.125 15.515 22.125 16.875 22.125 C16.875 22.785 16.875 23.445 16.875 24.125 C14.565 24.125 12.255 24.125 9.875 24.125 C9.6275 24.86234375 9.38 25.5996875 9.125 26.359375 C7.75777953 29.38435029 6.219302 31.04793551 3.875 33.375 C-1.24797493 38.93417026 -2.125 43.74338431 -2.125 51.125 C0.16194223 51.62879029 0.16194223 51.62879029 2.875 51.125 C6.75504794 47.24495206 9.27851841 42.93329923 11.875 38.125 C12.875 41.125 12.875 41.125 11.8359375 43.46484375 C6.10180412 52.85695876 6.10180412 52.85695876 1.875 55.125 C-1.6875 55.75 -1.6875 55.75 -5.125 55.125 C-7.5625 52.125 -7.5625 52.125 -9.125 49.125 C-9.51171875 49.558125 -9.8984375 49.99125 -10.296875 50.4375 C-10.81765625 50.994375 -11.3384375 51.55125 -11.875 52.125 C-12.38546875 52.681875 -12.8959375 53.23875 -13.421875 53.8125 C-15.125 55.125 -15.125 55.125 -19.125 55.125 C-19.06699219 55.84042969 -19.00898438 56.55585938 -18.94921875 57.29296875 C-18.53801352 66.37473004 -20.08084915 74.94284391 -25.8046875 82.27734375 C-28.72192479 85.0325123 -30.46883152 86.03994112 -34.5 86.5625 C-37.125 86.125 -37.125 86.125 -38.125 85.125 C-38.771172 73.27851331 -34.96500815 63.68778508 -30.125 53.125 C-31.445 53.785 -32.765 54.445 -34.125 55.125 C-35.115 54.465 -36.105 53.805 -37.125 53.125 C-36.361875 52.939375 -35.59875 52.75375 -34.8125 52.5625 C-31.04778149 50.54881335 -30.62885587 48.02135385 -29.125 44.125 C-28.13437146 43.11571555 -27.13356717 42.1163588 -26.125 41.125 C-24.15137884 38.03033506 -22.44325177 34.78490385 -20.6875 31.5625 C-20.20990234 30.70591797 -19.73230469 29.84933594 -19.24023438 28.96679688 C-16.43689033 23.85617378 -14.10947397 18.73821223 -12.01635742 13.30102539 C-10.94708559 10.69066664 -9.61965586 8.43152562 -8 6.125 C-7.25363281 5.0421875 -7.25363281 5.0421875 -6.4921875 3.9375 C-3.63166667 0.14526667 -3.63166667 0.14526667 0 0 Z " fill="#F96535" transform="translate(418.125,216.875)"/>
<path d="M0 0 C1.134375 0.020625 2.26875 0.04125 3.4375 0.0625 C2.62345703 1.47402344 2.62345703 1.47402344 1.79296875 2.9140625 C1.07022484 4.17182463 0.34757352 5.42963997 -0.375 6.6875 C-0.73142578 7.30496094 -1.08785156 7.92242187 -1.45507812 8.55859375 C-6.04787109 16.06246515 -6.04787109 16.06246515 -8.25 24.4375 C-8.353125 25.63375 -8.45625 26.83 -8.5625 28.0625 C1.44922826 24.69120375 5.85355504 13.08265257 10.6171875 4.34375 C12.4375 1.0625 12.4375 1.0625 13.4375 0.0625 C15.43708364 0.02169217 17.43795254 0.01995644 19.4375 0.0625 C18.76847656 1.09890625 18.76847656 1.09890625 18.0859375 2.15625 C16.33925667 5.23570625 15.20677544 8.2141504 14.0625 11.5625 C11.66486549 18.45661017 9.09204723 25.26234072 6.4375 32.0625 C15.58204028 27.70182385 19.96354112 22.01041776 24.4375 13.0625 C25.0975 13.0625 25.7575 13.0625 26.4375 13.0625 C24.41088762 21.16894953 19.12397788 27.24823593 12.4375 32.0625 C11.12898919 32.61373359 9.81621617 33.15492698 8.5 33.6875 C3.64416773 35.94924697 1.79193878 39.8155803 -0.84765625 44.3046875 C-4.45546196 50.10676229 -9.8976351 55.90923595 -16.5625 58.0625 C-25.98558348 59.22715077 -25.98558348 59.22715077 -29.35546875 56.73828125 C-31.48669275 53.77939745 -31.09075566 51.5842044 -30.5625 48.0625 C-27.96519241 43.8849535 -25.06298036 41.06814885 -20.5625 39.0625 C-21.5525 38.0725 -22.5425 37.0825 -23.5625 36.0625 C-23.00304687 36.16949219 -22.44359375 36.27648437 -21.8671875 36.38671875 C-14.25970942 37.52417126 -6.69101401 37.14179205 0.4375 34.0625 C2.56223675 31.21278745 2.9712878 28.5325351 3.4375 25.0625 C4.10416667 23.0625 4.77083333 21.0625 5.4375 19.0625 C4.96699219 19.68898438 4.49648437 20.31546875 4.01171875 20.9609375 C3.38910156 21.77820313 2.76648438 22.59546875 2.125 23.4375 C1.51011719 24.24960937 0.89523438 25.06171875 0.26171875 25.8984375 C-2.40901441 29.06671624 -3.96486023 30.01007546 -8.125 30.375 C-9.259375 30.271875 -10.39375 30.16875 -11.5625 30.0625 C-13.87582486 26.59251271 -13.90207563 25.13740752 -13.5625 21.0625 C-12.9025 20.0725 -12.2425 19.0825 -11.5625 18.0625 C-11.294375 16.86625 -11.02625 15.67 -10.75 14.4375 C-9.3759522 8.46482448 -6.72123278 0.11791636 0 0 Z " fill="#F96131" transform="translate(197.5625,241.9375)"/>
<path d="M0 0 C-1.61163798 3.78734926 -4.01283959 6.51429864 -6.75 9.5625 C-7.59046875 10.51253906 -8.4309375 11.46257812 -9.296875 12.44140625 C-13.23031443 16.16453172 -16.39749793 17.8949179 -21.8125 18.25 C-25 18 -25 18 -26 17 C-26 13.6220202 -25.74263034 11.0532273 -23.7578125 8.23828125 C-18.82947456 3.36889472 -13.71025181 3.02426854 -7 3 C-7 2.34 -7 1.68 -7 1 C-4 0 -4 0 0 0 Z " fill="#FEF9F7" transform="translate(195,280)"/>
<path d="M0 0 C-1 3 -1 3 -3.9375 5.375 C-7.43054655 8.20629433 -8.73429797 10.48307714 -9.21484375 15.03515625 C-9.50495971 21.80066049 -7.76196304 26.84314956 -4.5 32.6875 C3.02989184 39.65264995 12.09336718 40.82675205 22 41 C22 41.33 22 41.66 22 42 C20.02 42 18.04 42 16 42 C16 42.66 16 43.32 16 44 C24.415 43.505 24.415 43.505 33 43 C33 43.33 33 43.66 33 44 C20.02468573 47.08101092 8.06651681 45.14746091 -3.4375 38.625 C-8.75146713 35.07148824 -11.59965799 30.18484388 -13 24 C-13.76495986 16.5590268 -13.09104655 10.38150303 -9 4 C-5.67405913 0.59091061 -4.84075853 0 0 0 Z " fill="#F96435" transform="translate(256,236)"/>
<path d="M0 0 C1.65 0.33 3.3 0.66 5 1 C5.72730266 12.09136556 2.19992048 20.62409251 -5 29 C-5.99 28.67 -6.98 28.34 -8 28 C-7.55920853 18.03811279 -4.84647258 8.72365064 0 0 Z " fill="#FEF4F1" transform="translate(392,272)"/>
<path d="M0 0 C2.1015625 0.4296875 2.1015625 0.4296875 4 1 C3.7326001 1.50337891 3.4652002 2.00675781 3.18969727 2.52539062 C1.96761318 4.84365836 0.76504937 7.17154325 -0.4375 9.5 C-0.85837891 10.29148438 -1.27925781 11.08296875 -1.71289062 11.8984375 C-4.34778378 17.04174895 -5.63567405 21.22377774 -6 27 C-5.01 27.33 -4.02 27.66 -3 28 C-5.875 28.125 -5.875 28.125 -9 28 C-11 26 -11 26 -11.375 22.9375 C-10.8426204 17.34751424 -9.03040895 12.03040895 -5 8 C-4.690625 7.195625 -4.38125 6.39125 -4.0625 5.5625 C-2.99362743 2.98463085 -2.28980177 1.58524738 0 0 Z " fill="#F95D2B" transform="translate(349,244)"/>
<path d="M0 0 C1.32 0 2.64 0 4 0 C4 0.99 4 1.98 4 3 C2.7934375 3.433125 2.7934375 3.433125 1.5625 3.875 C-1.1326468 4.73262568 -1.1326468 4.73262568 -2 7 C3.94 7.66 9.88 8.32 16 9 C16 9.33 16 9.66 16 10 C15.37351562 10.06058594 14.74703125 10.12117187 14.1015625 10.18359375 C13.28429687 10.26738281 12.46703125 10.35117188 11.625 10.4375 C10.81289063 10.51871094 10.00078125 10.59992188 9.1640625 10.68359375 C6.95727195 10.89090114 6.95727195 10.89090114 5 12 C2.6171875 11.66015625 2.6171875 11.66015625 -0.125 11.0625 C-1.03507812 10.86785156 -1.94515625 10.67320312 -2.8828125 10.47265625 C-3.58148438 10.31667969 -4.28015625 10.16070312 -5 10 C-5.433125 11.175625 -5.86625 12.35125 -6.3125 13.5625 C-7.76035445 17.43033974 -9.34479317 21.21667009 -11 25 C-12.125 23.375 -12.125 23.375 -13 21 C-12.3125 18.25 -12.3125 18.25 -11 15 C-10.45549444 13.54272426 -9.91388199 12.08436462 -9.375 10.625 C-8.92125 9.42875 -8.4675 8.2325 -8 7 C-12.455 6.01 -12.455 6.01 -17 5 C-12.9221581 2.96107905 -12.55947126 2.80476437 -8.5 3.625 C-6.16666739 4.01822832 -6.16666739 4.01822832 -4 4 C-1.66545339 2.16641665 -1.66545339 2.16641665 0 0 Z " fill="#FA774E" transform="translate(336,209)"/>
<path d="M0 0 C0.97839844 0.12568359 0.97839844 0.12568359 1.9765625 0.25390625 C6.95362996 0.83383004 11.04845102 0.90028163 16 0 C19.375 0.4375 19.375 0.4375 22 1 C21.67 1.66 21.34 2.32 21 3 C18.69 3 16.38 3 14 3 C14 3.66 14 4.32 14 5 C12.67935547 5.22042969 12.67935547 5.22042969 11.33203125 5.4453125 C3.76204187 6.63974855 3.76204187 6.63974855 -2.3125 10.875 C-3.99326715 13.98753176 -4.50888741 15.53956563 -4 19 C0.16138263 19.08159574 3.9472484 18.98248524 8 18 C7.67 19.32 7.34 20.64 7 22 C5.22992286 22.08114106 3.45877902 22.13925505 1.6875 22.1875 C0.70136719 22.22230469 -0.28476563 22.25710938 -1.30078125 22.29296875 C-4 22 -4 22 -5.8203125 20.69140625 C-7.90184341 17.70695962 -7.52816754 15.52111694 -7 12 C-4.40269241 7.8224535 -1.50048036 5.00564885 3 3 C2.01 2.01 1.02 1.02 0 0 Z " fill="#FA7B52" transform="translate(174,278)"/>
<path d="M0 0 C0.66 0.33 1.32 0.66 2 1 C1.67 1.33 1.34 1.66 1 2 C1.66 2.66 2.32 3.32 3 4 C2.01 4.350625 1.02 4.70125 0 5.0625 C-14.84938731 11.51615726 -23.56261765 29.06916202 -32 42 C-32.33 41.34 -32.66 40.68 -33 40 C-33.66 40 -34.32 40 -35 40 C-34.67 38.35 -34.34 36.7 -34 35 C-33.34 35.33 -32.68 35.66 -32 36 C-31.26136719 34.91203125 -30.52273437 33.8240625 -29.76171875 32.703125 C-21.32435198 20.42396818 -12.56733331 8.37822221 0 0 Z " fill="#F96B3D" transform="translate(183,213)"/>
<path d="M0 0 C1.24523437 0.01804688 2.49046875 0.03609375 3.7734375 0.0546875 C5.18496094 0.08949219 5.18496094 0.08949219 6.625 0.125 C7.12 2.105 7.12 2.105 7.625 4.125 C6.965 3.795 6.305 3.465 5.625 3.125 C-3.7050982 1.92454763 -10.59975654 3.94499258 -18.375 9.125 C-21.14324738 11.44128863 -23.7582022 13.82158544 -26.31640625 16.3671875 C-28.375 18.125 -28.375 18.125 -31.375 18.125 C-33.52528304 19.07478897 -33.52528304 19.07478897 -35.375 20.125 C-26.23982536 8.81478378 -15.21640657 -0.28710201 0 0 Z " fill="#F96637" transform="translate(110.375,200.875)"/>
<path d="M0 0 C8.15384615 -0.61538462 8.15384615 -0.61538462 11.0625 1.5 C12.76800014 6.04800037 12.80158076 9.80678598 11.15625 14.30859375 C7.72961558 21.17343906 2.914081 25.20604621 -4 28.375 C-7.77469326 29.16139443 -11.14774753 29.13283629 -15 29 C-12.60549427 26.60549427 -11.40903764 26.54571545 -8.125 26 C-3.56950767 25.23848486 -0.29814392 24.62952024 2.66796875 20.90625 C3.42013672 19.71515625 3.42013672 19.71515625 4.1875 18.5 C4.69667969 17.7059375 5.20585938 16.911875 5.73046875 16.09375 C8.34793803 11.77693912 8.15976834 9.03270282 8 4 C6.03177114 2.03177114 2.65191291 2.33751619 0 2 C0 1.34 0 0.68 0 0 Z " fill="#F96434" transform="translate(93,233)"/>
<path d="M0 0 C0 0.66 0 1.32 0 2 C-1.06759565 2.93911709 -2.18238751 3.82462854 -3.3125 4.6875 C-7.45717983 8.19681002 -10.57164663 12.13558993 -13.75 16.5 C-14.20930908 17.12865967 -14.66861816 17.75731934 -15.1418457 18.4050293 C-18.04792351 22.46635098 -20.58830541 26.62739485 -23 31 C-23.99 30.67 -24.98 30.34 -26 30 C-25.67 28.68 -25.34 27.36 -25 26 C-24.67 26.66 -24.34 27.32 -24 28 C-23.67128906 27.34515625 -23.34257813 26.6903125 -23.00390625 26.015625 C-9.44491525 0 -9.44491525 0 0 0 Z " fill="#FA7348" transform="translate(146,211)"/>
<path d="M0 0 C-1.14915725 3.44747174 -2.64442777 4.440938 -5.52734375 6.5234375 C-9.04957671 10.05501326 -9.31081803 14.54740673 -9.625 19.3125 C-9.69976562 20.38113281 -9.77453125 21.44976562 -9.8515625 22.55078125 C-9.90054688 23.35902344 -9.94953125 24.16726563 -10 25 C-10.99 24.67 -11.98 24.34 -13 24 C-13.5051283 16.49323214 -13.13765544 10.45420686 -9 4 C-5.67405913 0.59091061 -4.84075853 0 0 0 Z " fill="#F96333" transform="translate(256,236)"/>
<path d="M0 0 C0.66 0.99 1.32 1.98 2 3 C1.16041203 5.85048923 0.2475567 8.4527608 -0.875 11.1875 C-1.17019531 11.93708984 -1.46539062 12.68667969 -1.76953125 13.45898438 C-2.5008398 15.31084636 -3.24885755 17.15609381 -4 19 C-4.66 19 -5.32 19 -6 19 C-6.2475 19.78375 -6.495 20.5675 -6.75 21.375 C-8.15389099 24.32317108 -9.00675737 24.9024777 -12 26 C-12 26.66 -12 27.32 -12 28 C-14.31 28 -16.62 28 -19 28 C-17.24778405 25.97111838 -16.14255394 25.04751798 -13.5625 24.1875 C-7.62252816 21.43483012 -5.51727068 13.86615751 -3.25 8.125 C-2.93417969 7.34125 -2.61835938 6.5575 -2.29296875 5.75 C-1.52260172 3.83575465 -0.76044753 1.91820754 0 0 Z " fill="#FA8661" transform="translate(359,245)"/>
<path d="M0 0 C0.66 0 1.32 0 2 0 C2.7013076 6.59229145 0.49602186 10.49376557 -3 16 C-4.32 16 -5.64 16 -7 16 C-6.40165275 11.85701333 -4.99335715 8.81805623 -2.9375 5.1875 C-2.11572266 3.72376953 -2.11572266 3.72376953 -1.27734375 2.23046875 C-0.85582031 1.49441406 -0.43429687 0.75835937 0 0 Z " fill="#FEEBE5" transform="translate(431,223)"/>
<path d="M0 0 C2.4375 0.1875 2.4375 0.1875 3.4375 1.1875 C4.38025175 8.25813811 1.34557403 13.86243899 -1.5625 20.1875 C-2.64453125 18.33203125 -2.64453125 18.33203125 -3.5625 16.1875 C-2.60310332 14.49713442 -1.59607147 12.83355826 -0.5625 11.1875 C0.15673208 7.49226048 0.15673208 7.49226048 0.4375 4.1875 C-3.60872502 3.81769987 -3.60872502 3.81769987 -6.5625 6.1875 C-3.80492424 0.27840909 -3.80492424 0.27840909 0 0 Z " fill="#FA754B" transform="translate(432.5625,218.8125)"/>
<path d="M0 0 C0.33 0 0.66 0 1 0 C2.82482489 9.01571901 1.21081475 15.85600663 -3 24 C-4.671875 25.875 -4.671875 25.875 -6 27 C-6.99 26.67 -7.98 26.34 -9 26 C-8.4225 25.236875 -7.845 24.47375 -7.25 23.6875 C-2.49702429 16.51575017 -0.55604602 8.47970175 0 0 Z " fill="#F96D40" transform="translate(397,273)"/>
<path d="M0 0 C1.32 0 2.64 0 4 0 C4.33 0.99 4.66 1.98 5 3 C3.34765625 5.48046875 3.34765625 5.48046875 1.0625 8.1875 C0.31097656 9.08855469 -0.44054687 9.98960937 -1.21484375 10.91796875 C-1.80394531 11.60503906 -2.39304687 12.29210937 -3 13 C-3.66 12.67 -4.32 12.34 -5 12 C-4.54738642 10.56068883 -4.08767021 9.12361001 -3.625 7.6875 C-3.24214844 6.48673828 -3.24214844 6.48673828 -2.8515625 5.26171875 C-2 3 -2 3 0 0 Z " fill="#FA8560" transform="translate(423,240)"/>
<path d="M0 0 C0.99 0 1.98 0 3 0 C2.67 0.721875 2.34 1.44375 2 2.1875 C0.99396471 5.01697427 0.83022598 7.02895466 1 10 C5.16138263 10.08159574 8.9472484 9.98248524 13 9 C12.67 10.32 12.34 11.64 12 13 C10.22992286 13.08114106 8.45877902 13.13925505 6.6875 13.1875 C5.70136719 13.22230469 4.71523437 13.25710938 3.69921875 13.29296875 C1 13 1 13 -0.8359375 11.70703125 C-2.76141614 8.88342666 -2.29490096 6.3028907 -2 3 C-1.34 2.01 -0.68 1.02 0 0 Z " fill="#FA7950" transform="translate(169,287)"/>
<path d="M0 0 C1.38294718 0.01329757 2.76582404 0.03715018 4.1484375 0.0703125 C4.85484375 0.07933594 5.56125 0.08835937 6.2890625 0.09765625 C8.03399848 0.12123647 9.77876045 0.15710789 11.5234375 0.1953125 C11.5234375 0.5253125 11.5234375 0.8553125 11.5234375 1.1953125 C9.5434375 1.1953125 7.5634375 1.1953125 5.5234375 1.1953125 C5.5234375 1.8553125 5.5234375 2.5153125 5.5234375 3.1953125 C13.9384375 2.7003125 13.9384375 2.7003125 22.5234375 2.1953125 C22.5234375 2.5253125 22.5234375 2.8553125 22.5234375 3.1953125 C18.23096031 4.23920287 14.04243809 4.37870596 9.6484375 4.3828125 C8.62556641 4.40118164 8.62556641 4.40118164 7.58203125 4.41992188 C2.86712231 4.43339304 -0.99800269 3.67452351 -5.4765625 2.1953125 C-3.4765625 0.1953125 -3.4765625 0.1953125 0 0 Z " fill="#FA8059" transform="translate(266.4765625,276.8046875)"/>
<path d="M0 0 C0.33 0 0.66 0 1 0 C1 2.64 1 5.28 1 8 C0.01 8.33 -0.98 8.66 -2 9 C-3.5616104 10.79392278 -3.5616104 10.79392278 -5 12.9375 C-6.94401596 15.7269604 -8.10177325 17.06784883 -11 19 C-13.33199388 19.07905064 -15.66832622 19.08798769 -18 19 C-15 17 -15 17 -12.5390625 16.140625 C-6.41811983 13.39090922 -2.60371928 5.97323835 0 0 Z " fill="#FA7D55" transform="translate(204,253)"/>
<path d="M0 0 C0.66 0 1.32 0 2 0 C1.73079965 3.85853832 1.26710588 5.68095686 -1.25 8.6875 C-7.04527508 13.5607995 -10.55252303 14.43808688 -18 14 C-16 11 -16 11 -13.79296875 10.48046875 C-12.93316406 10.38378906 -12.07335937 10.28710938 -11.1875 10.1875 C-7.46918139 9.55345145 -5.38747419 8.98805741 -2.9375 6.0625 C-0.90921655 3.12759677 -0.90921655 3.12759677 0 0 Z " fill="#FA7B52" transform="translate(298,230)"/>
<path d="M0 0 C0.66 0.33 1.32 0.66 2 1 C1.54625 1.4125 1.0925 1.825 0.625 2.25 C-1.05950374 4.06408095 -1.99265971 5.75285627 -3 8 C-3 7.34 -3 6.68 -3 6 C-7.51045941 8.46025059 -11.18504423 11.60282037 -15 15 C-15.33 14.01 -15.66 13.02 -16 12 C-14.6875 9.8125 -14.6875 9.8125 -13 8 C-12.34 8 -11.68 8 -11 8 C-9.65310968 7.09063456 -8.3449169 6.1232314 -7.0625 5.125 C-4.74014679 3.32788929 -2.44676201 1.63117468 0 0 Z " fill="#FA855F" transform="translate(347,244)"/>
<path d="M0 0 C0.66 0 1.32 0 2 0 C-0.03883316 8.15533265 -5.35102295 14.12408349 -12 19 C-12.99 19.33 -13.98 19.66 -15 20 C-15.33 19.34 -15.66 18.68 -16 18 C-14.824375 17.401875 -13.64875 16.80375 -12.4375 16.1875 C-6.35380517 12.4420224 -3.12889599 6.25779197 0 0 Z " fill="#FA7B53" transform="translate(222,255)"/>
<path d="M0 0 C1 3 1 3 -0.0390625 5.33984375 C-5.30194473 13.96008188 -5.30194473 13.96008188 -10 17 C-12.475 16.01 -12.475 16.01 -15 15 C-14.67 14.34 -14.34 13.68 -14 13 C-13.278125 13.12375 -12.55625 13.2475 -11.8125 13.375 C-8.73570079 13.25456443 -8.73570079 13.25456443 -6.4375 10.4375 C-3.9524324 7.14242619 -1.95873204 3.62728155 0 0 Z " fill="#FA8661" transform="translate(430,255)"/>
<path d="M0 0 C0.66 0.99 1.32 1.98 2 3 C-5.31133529 8.90102696 -10.54552997 11.32601621 -20 11 C-17.60549427 8.60549427 -16.40903764 8.54571545 -13.125 8 C-6.73880789 6.93245744 -3.88387937 5.27097914 0 0 Z " fill="#FA815B" transform="translate(98,251)"/>
<path d="M0 0 C0.78375 0.04125 1.5675 0.0825 2.375 0.125 C2.705 1.775 3.035 3.425 3.375 5.125 C0.375 7.125 0.375 7.125 -1.8125 6.75 C-2.410625 6.54375 -3.00875 6.3375 -3.625 6.125 C-4.25 4.25 -4.25 4.25 -4.625 2.125 C-2.625 0.125 -2.625 0.125 0 0 Z " fill="#F9693B" transform="translate(389.625,231.875)"/>
<path d="M0 0 C1.32 0 2.64 0 4 0 C5.60714286 7.63392857 5.60714286 7.63392857 3.1875 11.75 C2.465625 12.8225 1.74375 13.895 1 15 C0.3197633 16.32646156 -0.35492261 17.65608877 -1 19 C-2.25260243 14.00459153 -1.68225154 11.27811314 0.4375 6.625 C0.91058594 5.56539062 1.38367188 4.50578125 1.87109375 3.4140625 C2.24363281 2.61742187 2.61617188 1.82078125 3 1 C2.01 0.67 1.02 0.34 0 0 Z " fill="#FA784E" transform="translate(325,215)"/>
<path d="M0 0 C1.24523437 0.01804688 2.49046875 0.03609375 3.7734375 0.0546875 C5.18496094 0.08949219 5.18496094 0.08949219 6.625 0.125 C6.955 1.445 7.285 2.765 7.625 4.125 C6.965 3.795 6.305 3.465 5.625 3.125 C-0.61147099 2.72355052 -6.56707724 2.543701 -12.375 5.125 C-12.705 4.135 -13.035 3.145 -13.375 2.125 C-8.75130977 0.31820413 -4.94971347 -0.09339082 0 0 Z " fill="#FA7F58" transform="translate(110.375,200.875)"/>
<path d="M0 0 C0.33 0 0.66 0 1 0 C1 2.97 1 5.94 1 9 C0.34 8.34 -0.32 7.68 -1 7 C-2.98 8.98 -4.96 10.96 -7 13 C-8.32 12.34 -9.64 11.68 -11 11 C-9.86304688 10.64808594 -9.86304688 10.64808594 -8.703125 10.2890625 C-5.50257981 8.76279095 -4.56171747 7.37863686 -2.75 4.375 C-1.85086403 2.90579328 -0.93895252 1.4440852 0 0 Z " fill="#FA815B" transform="translate(410,259)"/>
<path d="M0 0 C0.66 0 1.32 0 2 0 C3.72805471 6.62420971 1.84964058 10.92158211 -1 17 C-2.0859375 15.140625 -2.0859375 15.140625 -3 13 C-2.319375 11.88625 -2.319375 11.88625 -1.625 10.75 C0.62070254 6.94958032 0.22202335 4.36645917 0 0 Z " fill="#FB9776" transform="translate(432,222)"/>
<path d="M0 0 C0 2 0 2 -1.64453125 3.7265625 C-2.35996094 4.35304687 -3.07539063 4.97953125 -3.8125 5.625 C-4.87404297 6.57246094 -4.87404297 6.57246094 -5.95703125 7.5390625 C-8 9 -8 9 -11 9 C-9.55936614 4.67809842 -4.74032109 0 0 0 Z " fill="#FA8059" transform="translate(146,211)"/>
<path d="M0 0 C-1.33332095 3.99996286 -3.4957827 4.83782337 -7 7 C-7 6.34 -7 5.68 -7 5 C-7.66 4.67 -8.32 4.34 -9 4 C-4.5 0 -4.5 0 0 0 Z " fill="#FA7449" transform="translate(256,236)"/>
<path d="M0 0 C1 4 1 4 -0.21484375 6.140625 C-0.78332031 6.83671875 -1.35179687 7.5328125 -1.9375 8.25 C-2.50339844 8.95640625 -3.06929687 9.6628125 -3.65234375 10.390625 C-4.31943359 11.18726563 -4.31943359 11.18726563 -5 12 C-5.66 11.01 -6.32 10.02 -7 9 C-4.69 6.03 -2.38 3.06 0 0 Z " fill="#FA7B52" transform="translate(167,227)"/>
<path d="M0 0 C0.99 0 1.98 0 3 0 C2.5359375 1.051875 2.5359375 1.051875 2.0625 2.125 C0.96697322 5.08936657 0.43577008 7.87698108 0 11 C-0.66 10.67 -1.32 10.34 -2 10 C-2.25 3.375 -2.25 3.375 0 0 Z " fill="#F96738" transform="translate(169,287)"/>
<path d="M0 0 C0.66 0.33 1.32 0.66 2 1 C-1.3 4.3 -4.6 7.6 -8 11 C-8 6.67750434 -5.85084926 5.11604454 -3 2 C-2.01 1.34 -1.02 0.68 0 0 Z " fill="#FDDBD0" transform="translate(285,215)"/>
<path d="M0 0 C2 3 2 3 1.8125 5.375 C0.92236094 8.25083387 -0.35138011 10.49123061 -2 13 C-3.18414294 9.44757118 -2.69535532 8.30169438 -1.5625 4.8125 C-1.27503906 3.91144531 -0.98757812 3.01039063 -0.69140625 2.08203125 C-0.46324219 1.39496094 -0.23507813 0.70789063 0 0 Z " fill="#FDD7CA" transform="translate(124,227)"/>
<path d="M0 0 C0.66 0.33 1.32 0.66 2 1 C1.67 1.33 1.34 1.66 1 2 C1.66 2.66 2.32 3.32 3 4 C0.36 4.99 -2.28 5.98 -5 7 C-5.66 6.34 -6.32 5.68 -7 5 C-4.69 3.35 -2.38 1.7 0 0 Z " fill="#FA764C" transform="translate(183,213)"/>
<path d="M0 0 C0.66 1.32 1.32 2.64 2 4 C0.875 6.6875 0.875 6.6875 -1 9 C-2.32 9.33 -3.64 9.66 -5 10 C-3.35 6.7 -1.7 3.4 0 0 Z " fill="#FA7A52" transform="translate(393,290)"/>
<path d="M0 0 C1.32 0 2.64 0 4 0 C2.55746343 3.36591866 0.66735273 5.51047079 -2 8 C-1.125 2.25 -1.125 2.25 0 0 Z " fill="#FEE5DD" transform="translate(422,241)"/>
<path d="M0 0 C0.66 0 1.32 0 2 0 C2 1.32 2 2.64 2 4 C-0.31 4.66 -2.62 5.32 -5 6 C-5 5.34 -5 4.68 -5 4 C-5.99 3.67 -6.98 3.34 -8 3 C-6.865625 2.87625 -5.73125 2.7525 -4.5625 2.625 C-3.386875 2.41875 -2.21125 2.2125 -1 2 C-0.67 1.34 -0.34 0.68 0 0 Z " fill="#FA764C" transform="translate(362,217)"/>
<path d="M0 0 C0.8125 1.6875 0.8125 1.6875 1 4 C-1.4375 6.75 -1.4375 6.75 -4 9 C-3.38461538 3.46153846 -3.38461538 3.46153846 -1.4375 1.125 C-0.963125 0.75375 -0.48875 0.3825 0 0 Z " fill="#F96839" transform="translate(103,244)"/>
<path d="M0 0 C1.04916965 3.40980136 1.37043252 6.44384783 1 10 C-1 12.375 -1 12.375 -3 14 C-2.69024532 12.22868439 -2.37709575 10.45796222 -2.0625 8.6875 C-1.88847656 7.70136719 -1.71445313 6.71523437 -1.53515625 5.69921875 C-1 3 -1 3 0 0 Z " fill="#FDD2C4" transform="translate(153,236)"/>
<path d="M0 0 C0.66 0.33 1.32 0.66 2 1 C-0.97 3.97 -3.94 6.94 -7 10 C-7 7 -7 7 -4.625 4.4375 C-3.75875 3.633125 -2.8925 2.82875 -2 2 C-1.34 1.34 -0.68 0.68 0 0 Z " fill="#FA7146" transform="translate(281,210)"/>
<path d="M0 0 C0.556875 0.226875 1.11375 0.45375 1.6875 0.6875 C0.0375 2.0075 -1.6125 3.3275 -3.3125 4.6875 C-4.6325 4.0275 -5.9525 3.3675 -7.3125 2.6875 C-2.88173077 -0.38942308 -2.88173077 -0.38942308 0 0 Z " fill="#F96E42" transform="translate(97.3125,204.3125)"/>
<path d="M0 0 C0.33 0 0.66 0 1 0 C1 1.65 1 3.3 1 5 C3.86724686 4.42655063 4.8614515 4.1385485 7 2 C7 2.99 7 3.98 7 5 C4.5 6.6875 4.5 6.6875 2 8 C0 6 0 6 -0.125 2.875 C-0.08375 1.92625 -0.0425 0.9775 0 0 Z " fill="#FB9778" transform="translate(366,264)"/>
<path d="M0 0 C0.66 1.32 1.32 2.64 2 4 C2.66 4.33 3.32 4.66 4 5 C3.34 5 2.68 5 2 5 C2 7.97 2 10.94 2 14 C1.67 14 1.34 14 1 14 C0.67 9.38 0.34 4.76 0 0 Z " fill="#F95B29" transform="translate(397,267)"/>
<path d="M0 0 C0.33 0.66 0.66 1.32 1 2 C2.65 2 4.3 2 6 2 C6 2.66 6 3.32 6 4 C3.36 4.33 0.72 4.66 -2 5 C-1.125 1.125 -1.125 1.125 0 0 Z " fill="#FA7348" transform="translate(429,237)"/>
<path d="M0 0 C2.97 0 5.94 0 9 0 C9.33 0.66 9.66 1.32 10 2 C6.30581799 3.231394 3.7943739 2.64432764 0 2 C0 1.34 0 0.68 0 0 Z " fill="#FA835D" transform="translate(93,233)"/>
<path d="M0 0 C0.66 0.66 1.32 1.32 2 2 C-4.625 2.25 -4.625 2.25 -8 0 C-5.09288879 -1.4535556 -3.10402897 -0.71133997 0 0 Z " fill="#FA7348" transform="translate(339,217)"/>
<path d="M0 0 C0.66 0.66 1.32 1.32 2 2 C1.01 2.33 0.02 2.66 -1 3 C-1 3.66 -1 4.32 -1 5 C-3.31 5 -5.62 5 -8 5 C-5.64722731 2.27573689 -3.37503669 1.1858237 0 0 Z " fill="#FBA184" transform="translate(348,268)"/>
<path d="M0 0 C1 3 1 3 -0.3125 5.6875 C-0.869375 6.450625 -1.42625 7.21375 -2 8 C-2.66 8 -3.32 8 -4 8 C-3.40072174 4.64404172 -2.15377564 2.62198774 0 0 Z " fill="#FA7246" transform="translate(353,261)"/>
<path d="M0 0 C1.32 0 2.64 0 4 0 C4.9765625 6.0546875 4.9765625 6.0546875 5 8 C4.34 8.66 3.68 9.32 3 10 C1.875 4.375 1.875 4.375 3 1 C2.01 0.67 1.02 0.34 0 0 Z " fill="#FB9A7B" transform="translate(325,215)"/>
<path d="M0 0 C0.99 1.32 1.98 2.64 3 4 C1.68 4.99 0.36 5.98 -1 7 C-2 4 -2 4 -1.0625 1.8125 C-0.5365625 0.9153125 -0.5365625 0.9153125 0 0 Z " fill="#FBA88D" transform="translate(333,252)"/>
</svg>
