<svg width="113" height="106" viewBox="0 0 113 106" fill="none" xmlns="http://www.w3.org/2000/svg">
<path d="M80.3101 7.50977C80.9927 7.50977 81.6212 7.50829 82.146 7.54199C82.6228 7.57262 83.1435 7.63756 83.6782 7.81445L83.9077 7.89746L84.1802 8.0127C85.5232 8.62022 86.5811 9.72985 87.1206 11.1094V11.1104C87.361 11.7254 87.4411 12.3272 87.4761 12.8721C87.504 13.3066 87.5068 13.8119 87.5073 14.3604H99.8687C103.012 14.3604 105.757 17.0034 105.37 20.3896V20.3906C104.08 31.6279 97.9214 51.2357 79.9722 58.542C75.208 64.4043 68.5117 68.6351 60.8403 70.2568V75.8301C63.2596 76.4741 65.0425 78.6793 65.0425 81.3018V82.3984H69.4253C72.5524 82.3985 75.0874 84.9334 75.0874 88.0605V97.2959C75.0874 100.423 72.5524 102.958 69.4253 102.958H38.8198C35.6929 102.958 33.1577 100.423 33.1577 97.2959V88.0605C33.1577 84.9335 35.6929 82.3987 38.8198 82.3984H43.2026V81.3018C43.2026 78.6805 44.9838 76.475 47.4019 75.8301V70.3613C39.4657 68.8216 32.5332 64.5025 27.6519 58.4551C9.866 51.0812 3.74847 31.5837 2.46436 20.3906V20.3896C2.07743 17.0035 4.82401 14.3613 7.96533 14.3604H20.189C20.1897 13.8097 20.1924 13.3036 20.2212 12.8672C20.2573 12.3208 20.3395 11.7221 20.5786 11.1104V11.1094C21.1524 9.64286 22.3118 8.47456 23.7866 7.89746H23.7876C24.4027 7.65704 25.0045 7.577 25.5493 7.54199C26.0742 7.50828 26.7025 7.50977 27.3853 7.50977H80.3101ZM87.5083 37.334C87.5083 38.7712 87.4154 40.1878 87.2397 41.5781C91.9537 36.2831 94.0199 29.3683 94.6421 24.3828C94.6574 24.26 94.6259 24.1641 94.5376 24.0713C94.4497 23.979 94.3034 23.8946 94.1108 23.875L94.0259 23.8711H87.5083V37.334ZM13.811 23.8711C13.5764 23.8712 13.4004 23.9652 13.3003 24.0703C13.2119 24.1631 13.1804 24.2593 13.1958 24.3828H13.1948C13.8097 29.3096 15.835 36.1243 20.4331 41.3955C20.2725 40.0637 20.187 38.7082 20.187 37.334V23.8711H13.811Z" fill="black" stroke="black" stroke-width="4.85331"/>
<rect x="56.3008" y="59.9043" width="8.58462" height="18.4478" fill="#FFCB05"/>
<rect x="57.6704" y="59.9043" width="1.82651" height="18.4478" fill="#F8D06E"/>
<rect x="61.5059" y="59.9043" width="2.92242" height="18.4478" fill="#F1A81C"/>
<path d="M29.0854 3.4668H91.5522V30.8645C91.5522 48.1142 77.5686 62.0979 60.3188 62.0979C43.0691 62.0979 29.0854 48.1142 29.0854 30.8645V3.4668Z" fill="#FFCB05"/>
<path d="M11.0942 10.3154H29.3594V14.973L19.1831 16.4082C19.2135 22.5879 19.9894 35.1743 31.4599 41.8228C42.9304 48.4713 39.2834 50.1334 36.0262 50.1334C16.8843 42.9004 11.4291 20.5744 11.0942 10.3154Z" fill="#FDC818"/>
<path d="M109.684 10.3154H91.4185V14.973L101.69 16.4082C101.659 22.5879 100.788 35.1743 89.318 41.8228C77.8475 48.4713 81.4944 50.1334 84.7517 50.1334C103.894 42.9004 109.349 20.5744 109.684 10.3154Z" fill="#FDC818"/>
<rect x="52.0996" y="71.5947" width="16.9866" height="6.7581" fill="#ED991D"/>
<rect x="42.0537" y="78.3555" width="37.0782" height="15.708" fill="#7F4A1E"/>
<rect x="47.0767" y="78.3555" width="12.4203" height="15.708" fill="#8D5D35"/>
<path d="M42.9671 3.4668V35.0655C42.9671 46.0081 48.5944 55.6364 57.113 61.2144C43.4386 57.8887 33.2866 45.5622 33.2866 30.8645V3.4668H42.9671Z" fill="#FFD84C"/>
<path d="M79.8625 34.1522V3.4668H91.5522V30.8645C91.5522 47.285 78.8807 60.7459 62.7827 62.0021C72.9193 56.8404 79.8625 46.3071 79.8625 34.1522Z" fill="#F0A820"/>
<mask id="path-13-outside-1_750_9598" maskUnits="userSpaceOnUse" x="7.32812" y="-0.533203" width="106" height="99" fill="black">
<rect fill="white" x="7.32812" y="-0.533203" width="106" height="99"/>
<path fill-rule="evenodd" clip-rule="evenodd" d="M75.8967 78.3555C77.6835 78.3555 79.1319 79.804 79.132 81.5908V90.8281C79.1319 92.615 77.6835 94.0634 75.8967 94.0635H45.2893C43.5025 94.0634 42.054 92.6149 42.0539 90.8281V81.5908C42.054 79.804 43.5025 78.3556 45.2893 78.3555H75.8967ZM86.7824 3.4668C88.2121 3.4668 88.9273 3.46648 89.4953 3.68848C90.3365 4.01731 91.0014 4.68323 91.3303 5.52441C91.5523 6.09242 91.5529 6.80742 91.5529 8.2373V10.3154H106.341C108.169 10.3154 109.639 11.8282 109.431 13.6445C108.165 24.6748 102.154 43.2025 85.3068 49.918C85.2014 49.96 85.0933 49.9956 84.9836 50.0254C80.1527 56.2348 73.0303 60.5715 64.885 61.7646V71.5947H65.8508C67.6377 71.5947 69.0861 73.0431 69.0861 74.8301V78.3525H52.0998V74.8301C52.0998 73.0432 53.5483 71.5948 55.3352 71.5947H56.301V61.8408C47.9004 60.7618 40.5458 56.3453 35.6066 49.9639C35.5617 49.9483 35.5159 49.9355 35.4719 49.918C18.6246 43.2025 12.6133 24.6748 11.3478 13.6445C11.1395 11.8282 12.6094 10.3154 14.4377 10.3154H29.0861V8.2373C29.0861 6.80746 29.0858 6.09241 29.3078 5.52441C29.6366 4.68311 30.3024 4.01731 31.1437 3.68848C31.7117 3.46656 32.427 3.4668 33.8566 3.4668H86.7824ZM91.5529 30.8643C91.5529 34.6466 90.8793 38.2717 89.6477 41.627C99.1578 35.9159 102.663 25.0933 103.522 18.2119C103.744 16.4325 102.289 14.9727 100.496 14.9727H91.5529V30.8643ZM20.2824 14.9727C18.4893 14.9727 17.035 16.4326 17.257 18.2119C18.1102 25.0497 21.5762 35.7797 30.9504 41.5186C29.744 38.1937 29.0861 34.6058 29.0861 30.8643V14.9727H20.2824Z"/>
</mask>
<path d="M75.8967 78.3555L75.8968 74.8888H75.8967V78.3555ZM79.132 81.5908H82.5987V81.5906L79.132 81.5908ZM79.132 90.8281L82.5987 90.8283V90.8281H79.132ZM75.8967 94.0635V97.5301H75.8968L75.8967 94.0635ZM45.2893 94.0635L45.2891 97.5301H45.2893V94.0635ZM42.0539 90.8281H38.5873V90.8283L42.0539 90.8281ZM42.0539 81.5908L38.5873 81.5906V81.5908H42.0539ZM45.2893 78.3555V74.8888H45.2891L45.2893 78.3555ZM86.7824 3.4668V0.000147343V3.4668ZM89.4953 3.68848L90.7575 0.45977L90.7573 0.459695L89.4953 3.68848ZM91.3303 5.52441L94.5591 4.26242L94.559 4.26229L91.3303 5.52441ZM91.5529 10.3154H88.0863V13.7821H91.5529V10.3154ZM109.431 13.6445L112.875 14.0396L112.875 14.0396L109.431 13.6445ZM85.3068 49.918L86.5901 53.1383L86.5904 53.1382L85.3068 49.918ZM84.9836 50.0254L84.0748 46.68L82.9581 46.9833L82.2475 47.8967L84.9836 50.0254ZM64.885 61.7646L64.3825 58.3346L61.4183 58.7688V61.7646H64.885ZM64.885 71.5947H61.4183V75.0614H64.885V71.5947ZM69.0861 78.3525V81.8192H72.5528V78.3525H69.0861ZM52.0998 78.3525H48.6332V81.8192H52.0998V78.3525ZM55.3352 71.5947V68.1281H55.3349L55.3352 71.5947ZM56.301 71.5947V75.0614H59.7676V71.5947H56.301ZM56.301 61.8408H59.7676V58.791L56.7426 58.4024L56.301 61.8408ZM35.6066 49.9639L38.3481 47.842L37.7157 47.025L36.7392 46.6874L35.6066 49.9639ZM35.4719 49.918L34.1883 53.1382L34.1884 53.1383L35.4719 49.918ZM11.3478 13.6445L7.90378 14.0395L7.90379 14.0396L11.3478 13.6445ZM14.4377 10.3154V6.84878H14.4377L14.4377 10.3154ZM29.0861 10.3154V13.7821H32.5528V10.3154H29.0861ZM29.3078 5.52441L26.079 4.26242L26.079 4.26249L29.3078 5.52441ZM31.1437 3.68848L29.8821 0.459543L29.8818 0.459695L31.1437 3.68848ZM89.6477 41.627L86.3933 40.4324L83.0065 49.6588L91.4324 44.5989L89.6477 41.627ZM103.522 18.2119L106.962 18.6411L106.962 18.6411L103.522 18.2119ZM91.5529 14.9727V11.506H88.0863V14.9727H91.5529ZM20.2824 14.9727V11.506H20.2823L20.2824 14.9727ZM17.257 18.2119L13.8171 18.6411L13.8171 18.6411L17.257 18.2119ZM30.9504 41.5186L29.1404 44.4752L37.5873 49.6464L34.2091 40.3361L30.9504 41.5186ZM29.0861 14.9727H32.5528V11.506H29.0861V14.9727ZM75.8967 78.3555L75.8966 81.8221C75.7688 81.8221 75.6654 81.7185 75.6654 81.591L79.132 81.5908L82.5987 81.5906C82.5985 77.8895 79.5982 74.8889 75.8968 74.8888L75.8967 78.3555ZM79.132 81.5908H75.6654V90.8281H79.132H82.5987V81.5908H79.132ZM79.132 90.8281L75.6654 90.8279C75.6654 90.7004 75.7688 90.5968 75.8966 90.5968L75.8967 94.0635L75.8968 97.5301C79.5982 97.53 82.5985 94.5295 82.5987 90.8283L79.132 90.8281ZM75.8967 94.0635V90.5968H45.2893V94.0635V97.5301H75.8967V94.0635ZM45.2893 94.0635L45.2895 90.5968C45.4171 90.5968 45.5205 90.7003 45.5206 90.8279L42.0539 90.8281L38.5873 90.8283C38.5874 94.5296 41.5879 97.5299 45.2891 97.5301L45.2893 94.0635ZM42.0539 90.8281H45.5206V81.5908H42.0539H38.5873V90.8281H42.0539ZM42.0539 81.5908L45.5206 81.591C45.5205 81.7187 45.4171 81.8221 45.2895 81.8221L45.2893 78.3555L45.2891 74.8888C41.5878 74.889 38.5875 77.8894 38.5873 81.5906L42.0539 81.5908ZM45.2893 78.3555V81.8221H75.8967V78.3555V74.8888H45.2893V78.3555ZM86.7824 3.4668V6.93345C87.5426 6.93345 87.9479 6.93506 88.2386 6.95383C88.5005 6.97074 88.4213 6.99073 88.2333 6.91726L89.4953 3.68848L90.7573 0.459695C90.0013 0.164222 89.2806 0.0733759 88.6854 0.0349431C88.1192 -0.00162125 87.4519 0.000147343 86.7824 0.000147343V3.4668ZM89.4953 3.68848L88.2331 6.91718C88.1713 6.893 88.1243 6.84485 88.1015 6.78654L91.3303 5.52441L94.559 4.26229C93.8786 2.52161 92.5017 1.14162 90.7575 0.45977L89.4953 3.68848ZM91.3303 5.52441L88.1015 6.78641C88.0286 6.59994 88.0485 6.52196 88.0655 6.78301C88.0844 7.07294 88.0863 7.47824 88.0863 8.2373H91.5529H95.0196C95.0196 7.56649 95.0211 6.89935 94.9842 6.33231C94.9454 5.73637 94.8539 5.01689 94.5591 4.26242L91.3303 5.52441ZM91.5529 8.2373H88.0863V10.3154H91.5529H95.0196V8.2373H91.5529ZM91.5529 10.3154V13.7821H106.341V10.3154V6.84878H91.5529V10.3154ZM106.341 10.3154V13.7821C106.288 13.7821 106.203 13.7576 106.126 13.6755C106.086 13.6333 106.045 13.5714 106.016 13.4888C105.986 13.4019 105.979 13.3159 105.987 13.2495L109.431 13.6445L112.875 14.0396C113.34 9.9809 110.05 6.84878 106.341 6.84878V10.3154ZM109.431 13.6445L105.987 13.2494C104.763 23.9127 99.0315 40.7153 84.0232 46.6977L85.3068 49.918L86.5904 53.1382C105.277 45.6897 111.567 25.4369 112.875 14.0396L109.431 13.6445ZM85.3068 49.918L84.0235 46.6976C84.0491 46.6874 84.0667 46.6822 84.0748 46.68L84.9836 50.0254L85.8923 53.3708C86.1198 53.309 86.3537 53.2326 86.5901 53.1383L85.3068 49.918ZM84.9836 50.0254L82.2475 47.8967C77.9473 53.424 71.6144 57.2753 64.3825 58.3346L64.885 61.7646L65.3874 65.1947C74.4463 63.8678 82.3582 59.0456 87.7197 52.1541L84.9836 50.0254ZM64.885 61.7646H61.4183V71.5947H64.885H68.3516V61.7646H64.885ZM64.885 71.5947V75.0614H65.8508V71.5947V68.1281H64.885V71.5947ZM65.8508 71.5947V75.0614C65.7231 75.0614 65.6195 74.9577 65.6195 74.8301H69.0861H72.5528C72.5528 71.1286 69.5523 68.1281 65.8508 68.1281V71.5947ZM69.0861 74.8301H65.6195V78.3525H69.0861H72.5528V74.8301H69.0861ZM69.0861 78.3525V74.8859H52.0998V78.3525V81.8192H69.0861V78.3525ZM52.0998 78.3525H55.5665V74.8301H52.0998H48.6332V78.3525H52.0998ZM52.0998 74.8301H55.5665C55.5665 74.958 55.4627 75.0614 55.3354 75.0614L55.3352 71.5947L55.3349 68.1281C51.6339 68.1283 48.6332 71.1284 48.6332 74.8301H52.0998ZM55.3352 71.5947V75.0614H56.301V71.5947V68.1281H55.3352V71.5947ZM56.301 71.5947H59.7676V61.8408H56.301H52.8343V71.5947H56.301ZM56.301 61.8408L56.7426 58.4024C49.2839 57.4444 42.7448 53.5226 38.3481 47.842L35.6066 49.9639L32.8652 52.0857C38.3469 59.168 46.517 64.0793 55.8593 65.2792L56.301 61.8408ZM35.6066 49.9639L36.7392 46.6874C36.7173 46.6799 36.6978 46.6733 36.6816 46.6679C36.6654 46.6626 36.6514 46.658 36.6409 46.6546C36.6356 46.6529 36.6309 46.6514 36.627 46.6501C36.6234 46.649 36.6195 46.6477 36.6174 46.647C36.6118 46.6452 36.6108 46.6449 36.611 46.645C36.6115 46.6451 36.6155 46.6464 36.6217 46.6485C36.628 46.6506 36.6375 46.6538 36.6495 46.658C36.673 46.6662 36.7098 46.6795 36.7553 46.6977L35.4719 49.918L34.1884 53.1383C34.3177 53.1898 34.4263 53.2252 34.4669 53.2384C34.4784 53.2421 34.4887 53.2455 34.4944 53.2473C34.5016 53.2496 34.5032 53.2501 34.5048 53.2506C34.5074 53.2515 34.4942 53.2472 34.4741 53.2403L35.6066 49.9639ZM35.4719 49.918L36.7555 46.6977C21.7472 40.7153 16.0152 23.9127 14.7919 13.2494L11.3478 13.6445L7.90379 14.0396C9.21131 25.4369 15.502 45.6897 34.1883 53.1382L35.4719 49.918ZM11.3478 13.6445L14.7919 13.2495C14.7995 13.3159 14.7927 13.4019 14.7627 13.4889C14.7342 13.5715 14.6925 13.6333 14.6528 13.6755C14.5754 13.7576 14.4904 13.7821 14.4377 13.7821L14.4377 10.3154L14.4377 6.84878C10.7288 6.84878 7.43827 9.98092 7.90378 14.0395L11.3478 13.6445ZM14.4377 10.3154V13.7821H29.0861V10.3154V6.84878H14.4377V10.3154ZM29.0861 10.3154H32.5528V8.2373H29.0861H25.6195V10.3154H29.0861ZM29.0861 8.2373H32.5528C32.5528 7.47703 32.5544 7.07181 32.5732 6.78107C32.5901 6.51932 32.6101 6.59845 32.5366 6.78634L29.3078 5.52441L26.079 4.26249C25.7836 5.01838 25.6927 5.73903 25.6543 6.33427C25.6177 6.9005 25.6195 7.56773 25.6195 8.2373H29.0861ZM29.3078 5.52441L32.5366 6.78641C32.5131 6.8465 32.4658 6.89377 32.4057 6.91726L31.1437 3.68848L29.8818 0.459695C28.1391 1.14084 26.7602 2.51973 26.079 4.26242L29.3078 5.52441ZM31.1437 3.68848L32.4054 6.91741C32.2176 6.99077 32.1386 6.97077 32.4005 6.95386C32.6913 6.93508 33.0966 6.93345 33.8566 6.93345V3.4668V0.000147343C33.187 0.000147343 32.5199 -0.00160003 31.9536 0.0349786C31.3584 0.0734231 30.6379 0.164263 29.8821 0.459543L31.1437 3.68848ZM33.8566 3.4668V6.93345H86.7824V3.4668V0.000147343H33.8566V3.4668ZM91.5529 30.8643H88.0863C88.0863 34.2322 87.4869 37.4533 86.3933 40.4324L89.6477 41.627L92.902 42.8215C94.2717 39.0901 95.0196 35.061 95.0196 30.8643H91.5529ZM89.6477 41.627L91.4324 44.5989C102.276 38.0873 106.047 25.9725 106.962 18.6411L103.522 18.2119L100.082 17.7827C99.2792 24.2141 96.0399 33.7446 87.8629 38.655L89.6477 41.627ZM103.522 18.2119L106.962 18.6411C107.474 14.5331 104.103 11.506 100.496 11.506V14.9727V18.4393C100.447 18.4393 100.352 18.4178 100.255 18.317C100.205 18.2646 100.152 18.1868 100.117 18.0826C100.079 17.9735 100.071 17.8661 100.082 17.7827L103.522 18.2119ZM100.496 14.9727V11.506H91.5529V14.9727V18.4393H100.496V14.9727ZM91.5529 14.9727H88.0863V30.8643H91.5529H95.0196V14.9727H91.5529ZM20.2824 14.9727L20.2823 11.506C16.6754 11.5061 13.3045 14.533 13.8171 18.6411L17.257 18.2119L20.697 17.7827C20.7074 17.8661 20.6996 17.9735 20.6621 18.0826C20.6263 18.1868 20.5732 18.2646 20.5232 18.317C20.4272 18.4178 20.3315 18.4393 20.2825 18.4393L20.2824 14.9727ZM17.257 18.2119L13.8171 18.6411C14.7263 25.9285 18.4553 37.9338 29.1404 44.4752L30.9504 41.5186L32.7604 38.562C24.697 33.6256 21.4941 24.1708 20.697 17.7827L17.257 18.2119ZM30.9504 41.5186L34.2091 40.3361C33.1383 37.3849 32.5528 34.1968 32.5528 30.8643H29.0861H25.6195C25.6195 35.0148 26.3497 39.0026 27.6916 42.701L30.9504 41.5186ZM29.0861 30.8643H32.5528V14.9727H29.0861H25.6195V30.8643H29.0861ZM29.0861 14.9727V11.506H20.2824V14.9727V18.4393H29.0861V14.9727Z" fill="white" mask="url(#path-13-outside-1_750_9598)"/>
</svg>
