<svg width="85" height="102" viewBox="0 0 85 102" fill="none" xmlns="http://www.w3.org/2000/svg">
<path d="M32.4111 11.9941C32.3841 9.07908 35.886 7.38105 38.0664 9.61914C48.1588 19.9787 53.4712 31.333 55.9854 37.9434C56.0854 36.8935 56.1522 35.8027 56.1973 34.7744C56.3244 31.877 59.8189 30.4393 61.9043 32.5771C71.4822 42.3962 75.8362 52.3856 76.2959 61.6553C76.7552 70.9207 73.3128 79.2689 67.667 85.7744C56.4467 98.7031 36.2408 104.621 19.8213 95.9844L19.79 95.9688L19.7598 95.9512C10.4516 90.5544 5.24435 84.4242 3.01367 77.874C0.787609 71.3373 1.62142 64.6585 3.84082 58.3447C6.05593 52.0432 9.69834 45.9713 13.2666 40.5625C16.8971 35.0594 20.3457 30.3826 22.4668 26.5449C23.1169 25.3686 24.3167 24.7063 25.5264 24.7109C26.7172 24.7156 27.8984 25.3832 28.4111 26.6699L28.5049 26.9355L28.7217 27.6787C29.5608 30.7068 30.0272 34.2618 30.2939 37.3936C32.3161 29.0519 32.467 18.0229 32.4111 11.9941Z" fill="black" stroke="black" stroke-width="3.40583"/>
<path d="M27.4257 87.666C-8.82811 66.6465 22.1195 36.2063 30.7687 20.557C31.4646 19.2979 33.2659 19.2489 33.6883 20.6241C34.8239 24.3204 35.3392 29.1194 35.572 32.9011C35.6767 34.6017 37.597 35.0301 38.1 33.4021C40.8156 24.6131 40.9862 11.7437 40.9253 5.16667C40.9115 3.68199 42.6224 2.93215 43.6585 3.99565C54.9188 15.5541 60.1094 28.3945 62.0847 34.1672C62.5141 35.4221 63.814 35.5488 64.078 34.249C64.4541 32.3975 64.6217 30.0479 64.7098 28.0376C64.7733 26.587 66.4833 25.9149 67.4972 26.9543C104.905 65.3039 58.6346 104.081 27.4257 87.666Z" fill="#FF9F24"/>
<path d="M35.7704 82.6183C12.5628 65.4083 32.2652 52.2319 39.1197 43.6729C40.019 42.55 41.6921 42.6758 41.7924 44.1109C41.8773 45.3264 41.8706 46.7009 41.8126 48.096C41.7339 49.9912 43.0145 50.2358 43.4217 48.3832C44.6326 42.8735 45.773 36.5469 46.4017 32.5575C46.6328 31.0909 48.6222 30.4008 49.546 31.5632C54.7503 38.1122 56.6188 46.636 57.3921 51.1123C57.6173 52.4152 58.649 52.6979 58.9839 51.4188C59.3778 49.9142 61.5475 49.2142 62.4066 50.5108C78.4658 74.7461 49.4562 91.5858 35.7704 82.6183Z" fill="#FED12D"/>
<path fill-rule="evenodd" clip-rule="evenodd" d="M15.5095 77.8208C72.292 104.43 79.3725 62.1745 75.815 37.7207L76.0819 38.0242C96.1093 72.2767 55.6208 102.494 27.4256 87.6645C22.0632 84.5554 18.171 81.2403 15.4595 77.7973L15.5095 77.8208Z" fill="#FF8E18"/>
<path d="M39.1924 5.18262C39.1652 2.24207 42.6996 0.52706 44.9004 2.78613C54.9347 13.0862 60.2455 24.3693 62.7793 30.999C62.8724 29.9903 62.9353 28.9476 62.9785 27.9619C63.1026 25.1299 66.4167 23.6781 68.5371 25.5518L68.7383 25.7441L69.6211 26.665C78.5886 36.1909 82.692 45.8532 83.1377 54.8418C83.5976 64.1162 80.1523 72.4727 74.502 78.9834C63.2741 91.9208 43.0532 97.8439 26.6191 89.2002L26.5869 89.1836L26.5566 89.165C17.2442 83.7658 12.0306 77.6312 9.79688 71.0723C7.56786 64.5268 8.40225 57.8401 10.623 51.5225C12.8394 45.2174 16.4842 39.1436 20.0527 33.7344C23.6847 28.2291 27.1316 23.5552 29.252 19.7188C29.9075 18.5327 31.1172 17.8645 32.3379 17.8691C33.5401 17.8738 34.7333 18.5478 35.251 19.8467L35.3457 20.1152L35.5625 20.8584C36.3857 23.8291 36.8505 27.3057 37.1201 30.3926C39.0996 22.0776 39.2479 11.1681 39.1924 5.18262Z" stroke="white" stroke-width="3.46665"/>
</svg>
