<svg width="89" height="104" viewBox="0 0 89 104" fill="none" xmlns="http://www.w3.org/2000/svg">
<path d="M40.1758 8.68555C39.2483 8.20205 38.144 8.19637 37.2119 8.6709L3.38379 25.8926C2.11602 26.538 1.42328 27.9379 1.66602 29.332C4.73621 46.9652 7.66859 57.4753 14.1504 74.3545C14.8876 76.2742 16.0437 78.0257 17.541 79.4502C29.4234 90.7545 37.5032 95.9475 51.9463 101.516C52.9966 101.921 54.1903 101.745 55.0811 101.058C66.7667 92.0353 72.7817 85.2195 79.3174 71.7031C80.4912 69.2755 80.8838 66.5591 80.5449 63.9209C78.7933 50.285 77.4291 41.5015 73.3711 27.1377C73.1301 26.2851 72.5462 25.5596 71.7539 25.1465L40.1758 8.68555Z" fill="black" stroke="black" stroke-width="3.23554"/>
<path d="M46.7007 2.11328C45.8001 1.64379 44.7386 1.60914 43.814 2.01172L43.6313 2.09766L9.80225 19.3203C8.48925 19.9889 7.77168 21.4382 8.02295 22.8818C11.0945 40.5228 14.0297 51.0405 20.5142 67.9268C21.2575 69.8622 22.4231 71.6279 23.9331 73.0645C35.8258 84.3785 43.9184 89.5794 58.3765 95.1533C59.4644 95.5726 60.701 95.392 61.6235 94.6797C73.3213 85.648 79.3477 78.8176 85.8921 65.2832C87.0762 62.8343 87.4719 60.0956 87.1304 57.4365C85.3784 43.7977 84.0138 35.0081 79.9536 20.6367C79.704 19.7536 79.0987 19.0022 78.2778 18.5742L46.7007 2.11328Z" fill="#D9D9D9" stroke="white" stroke-width="3.46665"/>
<path fill-rule="evenodd" clip-rule="evenodd" d="M55.7697 40.0919C52.4486 24.8202 48.1528 11.3171 45.2097 3.29199L78.0945 20.4352C80.6287 29.3295 82.1283 36.0501 83.312 43.0445C75.9572 39.6339 65.9987 39.1078 55.7697 40.0919Z" fill="#BDEAE6"/>
<path fill-rule="evenodd" clip-rule="evenodd" d="M55.7697 40.0919C52.4486 24.8202 48.1528 11.3171 45.2097 3.29199L78.0945 20.4352C80.6287 29.3295 82.1283 36.0501 83.312 43.0445C75.9572 39.6339 65.9987 39.1078 55.7697 40.0919Z" fill="black" fill-opacity="0.1"/>
<path fill-rule="evenodd" clip-rule="evenodd" d="M55.7695 40.0901C52.4485 24.8184 48.1527 11.3153 45.2096 3.29021L45.1606 3.26465L9.5272 21.4053C11.4758 32.7719 13.3315 41.1305 16.0464 49.9652C24.7892 46.344 40.5778 41.5516 55.7695 40.0901Z" fill="#BDEAE6"/>
<path d="M55.7695 40.0908C59.5653 57.5454 62.0878 77.3104 59.8621 93.848C44.2872 87.9281 36.2472 82.6471 23.1327 69.8889C20.1647 62.2806 17.9044 56.0118 16.0464 49.9659C24.7892 46.3447 40.5778 41.5523 55.7695 40.0908Z" fill="#82D2FC"/>
<path fill-rule="evenodd" clip-rule="evenodd" d="M59.8618 93.8463C62.0875 77.3087 59.565 57.5437 55.7693 40.0891C65.9983 39.105 75.9568 39.6311 83.3116 43.0418C84.2428 48.5441 84.9785 54.216 85.8687 61.2488C78.6766 77.0443 72.7724 83.97 59.8618 93.8463Z" fill="#82D2FC"/>
<path fill-rule="evenodd" clip-rule="evenodd" d="M59.8618 93.8463C62.0875 77.3087 59.565 57.5437 55.7693 40.0891C65.9983 39.105 75.9568 39.6311 83.3116 43.0418C84.2428 48.5441 84.9785 54.216 85.8687 61.2488C78.6766 77.0443 72.7724 83.97 59.8618 93.8463Z" fill="black" fill-opacity="0.1"/>
</svg>
