<svg width="82" height="101" viewBox="0 0 82 101" fill="none" xmlns="http://www.w3.org/2000/svg">
<path d="M58.4082 7.98535C60.3137 7.9854 61.5247 10.0254 60.6123 11.6982L45.6631 39.1035C45.3591 39.6611 45.7633 40.3408 46.3984 40.3408H62.1143C64.2304 40.3408 65.3972 42.7988 64.0596 44.4385L23.7178 93.8896C22.2169 95.7295 19.2365 94.6505 19.2617 92.2764L19.5869 61.9795C19.5919 61.5139 19.2156 61.1339 18.75 61.1338H3.34863C1.77211 61.1338 0.585176 59.6975 0.882812 58.1494L10.1406 10.0215C10.368 8.83974 11.4021 7.9855 12.6055 7.98535H58.4082Z" fill="black" stroke="black" stroke-width="1.67356"/>
<path d="M72.5898 1.7334C75.1757 1.73344 76.819 4.50131 75.5811 6.77148L60.6807 34.0889H76.2959C79.1678 34.0889 80.7509 37.4241 78.9355 39.6494L38.5938 89.1016C36.5567 91.5981 32.5124 90.1332 32.5469 86.9111L32.8711 56.6748H17.5303C15.3906 56.6748 13.7804 54.7252 14.1846 52.624L23.4414 4.49707L23.5127 4.20117C23.9272 2.75241 25.256 1.73353 26.7871 1.7334H72.5898Z" stroke="white" stroke-width="3.46665"/>
<path fill-rule="evenodd" clip-rule="evenodd" d="M53.7376 44.6466C54.9428 44.6466 55.7529 45.8821 55.2724 46.9874L37.5389 87.7805C36.8118 89.4529 34.314 88.9215 34.3306 87.098L34.6077 56.6303C34.6162 55.7001 33.8645 54.9415 32.9342 54.9415H17.5301C16.479 54.9415 15.6881 53.984 15.8866 52.9518L25.144 4.82424C25.2956 4.03629 25.985 3.4668 26.7874 3.4668H50.4071L37.8733 42.4609C37.5261 43.5412 38.3318 44.6466 39.4666 44.6466H53.7376Z" fill="#FDE36C"/>
<path fill-rule="evenodd" clip-rule="evenodd" d="M72.5895 3.4668C73.8598 3.4668 74.667 4.82653 74.0587 5.94175L59.1102 33.3474C58.5019 34.4626 59.3091 35.8223 60.5794 35.8223H76.308C77.7166 35.8223 78.4951 37.4564 77.6077 38.5503L37.6553 87.7968C36.3856 89.3619 33.9424 87.7616 34.8698 85.9723L55.0229 47.0903C55.6003 45.9763 54.7918 44.6466 53.5371 44.6466H39.4662C38.3315 44.6466 37.5257 43.5412 37.8729 42.4609L50.0334 4.62824C50.2558 3.93613 50.8997 3.4668 51.6267 3.4668H72.5895Z" fill="#F9BE4A"/>
</svg>
