<svg width="150" height="143" viewBox="0 0 150 143" fill="none" xmlns="http://www.w3.org/2000/svg">
<circle cx="71.5" cy="71.5" r="71.5" fill="#F7F7F7"/>
<path d="M75.6164 15.2774C77.8914 19.7924 76.0714 25.3049 71.5476 27.5799C67.0239 29.8549 61.5201 28.0349 59.2364 23.5112C56.9526 18.9874 58.7814 13.4749 63.3051 11.1999C67.8289 8.92495 73.3414 10.7537 75.6164 15.2774Z" fill="white"/>
<path d="M137.768 54.3375C135.729 51.765 132.938 49.8663 129.936 48.1688C127.591 46.8388 125.456 45.5963 122.884 44.03C119.27 41.8338 115.989 38.9988 112.97 36.1725C111.185 34.5013 109.47 32.7688 107.746 31.0363C104.246 27.5188 100.615 23.87 96.4851 20.7375C91.4539 16.9313 85.1364 14.8313 78.6352 14.7438C78.5214 14.4725 78.4514 14.1838 78.3202 13.9213C77.3088 11.8996 75.7533 10.2004 73.8287 9.01471C71.9042 7.82905 69.6869 7.20403 67.4264 7.21C65.5364 7.21 63.6464 7.65625 61.9489 8.51375C56.1214 11.445 53.7152 18.445 56.3314 24.3425C54.5814 26.3025 51.4227 30.17 50.0752 34.0725C48.9727 37.2575 48.3777 41.0638 48.3952 44.7738C48.4127 49.8575 48.7277 54.95 49.0339 59.8763C49.4627 66.9113 49.9089 74.1825 49.4714 81.3488C49.4277 82.0488 49.3752 82.8187 49.3139 83.6413C49.0164 87.5963 48.6839 92.645 49.2964 97.3C49.7339 102.06 51.4139 106.636 55.1939 110.889C65.5889 120.33 88.3126 123.174 113.425 109.095C136.595 96.11 140.533 82.2063 142.536 73.2025C143.928 66.8588 142.703 60.5675 137.768 54.3375Z" fill="#F9531E"/>
<path d="M119.217 61.9238C109.776 62.2476 98.2261 66.0276 87.6123 72.1176C78.1098 77.5776 70.4886 84.2538 65.8948 90.9126C61.8698 96.8101 60.7411 102.104 62.6923 105.516C64.7486 109.086 70.8998 111.379 78.7923 111.501C87.6036 111.659 97.7448 109.156 106.784 104.571C116.339 99.7326 124.467 92.7413 129.621 84.8488C134.206 77.8488 135.694 71.1376 133.497 67.0338C131.607 63.4901 126.497 61.6788 119.217 61.9238Z" fill="#2F2F2F"/>
<mask id="mask0_905_2624" style="mask-type:luminance" maskUnits="userSpaceOnUse" x="61" y="61" width="74" height="51">
<path d="M119.217 61.9238C109.776 62.2476 98.2261 66.0276 87.6123 72.1176C78.1098 77.5776 70.4886 84.2538 65.8948 90.9126C61.8698 96.8101 60.7411 102.104 62.6923 105.516C64.7486 109.086 70.8998 111.379 78.7923 111.501C87.6036 111.659 97.7448 109.156 106.784 104.571C116.339 99.7326 124.467 92.7413 129.621 84.8488C134.206 77.8488 135.694 71.1376 133.497 67.0338C131.607 63.4901 126.497 61.6788 119.217 61.9238Z" fill="white"/>
</mask>
<g mask="url(#mask0_905_2624)">
<path d="M113.092 69.4664C116.829 76.8952 113.836 85.9602 106.399 89.6964C98.9612 93.4414 89.905 90.4489 86.1512 83.0114C82.415 75.5827 85.3987 66.5177 92.8362 62.7727C100.282 59.0277 109.339 62.0289 113.092 69.4664Z" fill="#F9531E"/>
<mask id="mask1_905_2624" style="mask-type:luminance" maskUnits="userSpaceOnUse" x="84" y="61" width="31" height="31">
<path d="M113.092 69.4664C116.829 76.8952 113.836 85.9602 106.399 89.6964C98.9612 93.4414 89.905 90.4489 86.1512 83.0114C82.415 75.5827 85.3987 66.5177 92.8362 62.7727C100.282 59.0277 109.339 62.0289 113.092 69.4664Z" fill="white"/>
</mask>
<g mask="url(#mask1_905_2624)">
<path d="M106.941 61.0664C110.082 62.1339 111.937 65.9227 112.051 67.7339C106.81 65.0039 99.3724 67.3752 94.4462 71.6977C89.6862 75.8802 87.5249 82.2414 88.0324 85.8727C82.6074 83.6764 80.6912 73.4389 84.7599 70.3939L106.941 61.0664Z" fill="#C73000"/>
</g>
</g>
<mask id="mask2_905_2624" style="mask-type:luminance" maskUnits="userSpaceOnUse" x="61" y="61" width="74" height="51">
<path d="M119.217 61.9238C109.776 62.2476 98.2261 66.0276 87.6123 72.1176C78.1098 77.5776 70.4886 84.2538 65.8948 90.9126C61.8698 96.8101 60.7411 102.104 62.6923 105.516C64.7486 109.086 70.8998 111.379 78.7923 111.501C87.6036 111.659 97.7448 109.156 106.784 104.571C116.339 99.7326 124.467 92.7413 129.621 84.8488C134.206 77.8488 135.694 71.1376 133.497 67.0338C131.607 63.4901 126.497 61.6788 119.217 61.9238Z" fill="white"/>
</mask>
<g mask="url(#mask2_905_2624)">
<path d="M99.236 86.3102C101.559 85.1422 102.495 82.3124 101.327 79.9896C100.159 77.6669 97.329 76.7308 95.0062 77.8988C92.6835 79.0668 91.7474 81.8966 92.9154 84.2194C94.0834 86.5421 96.9132 87.4782 99.236 86.3102Z" fill="white"/>
</g>
<path d="M64.6613 13.9124C65.5276 13.4749 66.4551 13.2561 67.4176 13.2561C68.5638 13.2561 69.6488 13.5799 70.5851 14.1399C70.9088 14.3936 71.1363 14.7436 70.9438 15.1811C70.8126 15.5049 70.4801 15.6886 70.1126 15.8374C68.4063 16.3099 66.7613 16.9311 65.1951 17.6836C64.6351 17.9286 64.0926 18.1999 63.5588 18.4099C62.7188 18.7424 61.7388 19.3636 61.6426 18.0599C61.6426 17.9811 61.6863 17.5261 61.7651 17.1061C62.2901 15.7674 63.2788 14.6036 64.6613 13.9124Z" fill="#2F2F2F"/>
<path d="M65.4663 51.5462C61.9138 39.7161 61.7038 32.1124 63.1213 26.8886C63.3051 26.2236 63.2176 25.3924 62.4476 26.0049C60.8463 27.2824 58.1951 29.5836 57.0488 31.5436C56.7251 32.0861 56.5413 32.6637 56.4013 33.2674C56.4013 33.2674 54.3713 39.6112 55.8851 48.0199C57.2938 55.9037 59.6038 67.7687 57.1188 82.5124C56.9526 83.5012 56.9876 84.9799 57.7138 84.1224C59.5426 81.9874 63.1738 77.7786 66.2363 74.5586C66.4113 74.3749 66.8751 73.6486 67.0151 72.9574C67.5926 70.2011 68.6863 62.2824 65.4663 51.5462Z" fill="white"/>
</svg>
