<svg width="102" height="102" viewBox="0 0 102 102" fill="none" xmlns="http://www.w3.org/2000/svg">
<path d="M14.854 91.0425L81.2098 12.7734C83.3056 12.7734 87.1465 12.9647 87.1465 18.1444V93.473C87.1465 95.5688 85.4492 97.2661 83.3534 97.2661H19.4599C17.3642 97.2741 14.854 95.3934 14.854 91.0425Z" fill="#915744"/>
<path d="M14.854 91.1466V16.3678C14.854 14.3677 16.4717 12.75 18.4718 12.75H81.0903C83.0904 12.75 84.7081 14.3677 84.7081 16.3678V91.1466C84.7081 93.1467 83.0904 94.7644 81.0903 94.7644H18.4718C16.4717 94.7644 14.854 93.1467 14.854 91.1466Z" fill="#BE7159"/>
<path d="M22.6709 87.3845V19.937C22.6709 18.909 23.5076 18.0723 24.5356 18.0723H75.8703C76.8982 18.0723 77.735 18.909 77.735 19.937V87.3845C77.735 88.4124 76.8982 89.2491 75.8703 89.2491H24.5356C23.5076 89.2491 22.6709 88.4204 22.6709 87.3845Z" fill="white"/>
<path d="M30.7993 43.3176H69.6071M30.7993 34.1934H69.6071M30.7993 52.4418H69.6071M30.7993 61.574H69.6071M30.7993 70.6982H69.6071M30.7993 79.8224H47.3982" stroke="#F9AC93" stroke-width="2.39062" stroke-miterlimit="10" stroke-linecap="round"/>
<path opacity="0.35" d="M69.2722 22.6308V12.7734H58.1318L65.0726 22.6308H69.2722Z" fill="#212121"/>
<path d="M62.1641 13.1406L59.5982 13.1007C57.8928 13.1007 57.5741 11.5867 57.5103 11.2679C57.4227 10.8535 57.3111 9.93713 57.2633 9.57056C56.833 5.99259 55.6058 3.79322 51.1353 3.28322C47.2625 2.84494 44.4814 6.82134 44.4814 10.6145V10.6463C44.4894 12.3596 43.1905 13.794 41.4772 13.794C41.4772 13.794 36.4728 12.9413 32.8949 17.0373C32.2255 17.8023 31.4207 20.9579 31.4127 21.8424C31.3967 24.3048 33.5244 24.6315 34.2655 24.6395C37.5964 24.6634 64.73 24.5757 67.3278 24.5757C68.3957 24.5757 69.2642 23.7071 69.2642 22.6393V21.197C69.2722 17.101 66.2521 13.1406 62.1641 13.1406ZM50.9122 13.3557C50.5617 13.3557 50.2145 13.2867 49.8906 13.1525C49.5668 13.0184 49.2725 12.8217 49.0246 12.5738C48.7767 12.3259 48.58 12.0317 48.4459 11.7078C48.3117 11.3839 48.2427 11.0368 48.2427 10.6862C48.2427 10.3356 48.3117 9.98849 48.4459 9.6646C48.58 9.34072 48.7767 9.04643 49.0246 8.79854C49.2725 8.55066 49.5668 8.35402 49.8906 8.21986C50.2145 8.08571 50.5617 8.01666 50.9122 8.01666C51.6202 8.01666 52.2992 8.29791 52.7999 8.79854C53.3005 9.29918 53.5817 9.97818 53.5817 10.6862C53.5817 11.3942 53.3005 12.0732 52.7999 12.5738C52.2992 13.0745 51.6202 13.3557 50.9122 13.3557Z" fill="#C74218"/>
<path d="M60.706 12.7427H59.1601C57.4548 12.7427 56.7695 11.4039 56.5543 10.9418C56.2435 10.2644 56.1559 8.88582 56.1001 8.51926C55.6538 5.70629 53.3031 3.47504 50.4742 3.17222C46.6013 2.74988 43.3182 5.77801 43.3182 9.56316V9.59504C43.3262 11.3083 42.0273 12.7427 40.314 12.7427H38.7999C36.8366 12.7427 34.9536 13.5226 33.5653 14.911C32.1769 16.2993 31.397 18.1823 31.397 20.1457V21.588C31.397 22.6558 32.2656 23.5244 33.3334 23.5244H66.1646C67.2324 23.5244 68.101 22.6558 68.101 21.588V20.1457C68.109 16.0577 64.794 12.7427 60.706 12.7427ZM49.749 12.3124C49.3984 12.3124 49.0513 12.2433 48.7274 12.1092C48.4035 11.975 48.1092 11.7784 47.8614 11.5305C47.6135 11.2826 47.4168 10.9883 47.2827 10.6644C47.1485 10.3406 47.0795 9.99342 47.0795 9.64285C47.0795 9.29228 47.1485 8.94515 47.2827 8.62126C47.4168 8.29738 47.6135 8.0031 47.8614 7.75521C48.1092 7.50732 48.4035 7.31068 48.7274 7.17652C49.0513 7.04237 49.3984 6.97332 49.749 6.97332C50.457 6.97332 51.136 7.25457 51.6366 7.75521C52.1373 8.25584 52.4185 8.93485 52.4185 9.64285C52.4185 10.3509 52.1373 11.0299 51.6366 11.5305C51.136 12.0311 50.457 12.3124 49.749 12.3124Z" fill="#F9531E"/>
<path d="M62.929 17.5623H35.7715C34.7356 17.5623 34.4646 16.9806 34.9985 16.0961C35.7795 14.8131 37.6442 13.9684 39.2379 13.9684C42.6964 13.9684 55.1754 13.5859 59.5662 13.5859C61.7098 13.5859 62.8254 14.3031 63.7578 15.4984C64.4192 16.3591 64.0048 17.5623 62.929 17.5623Z" fill="#FF9C7D"/>
<path d="M45.4058 7.55359C45.852 5.73672 47.5653 5.21875 47.5653 5.21875" stroke="#FF9C7D" stroke-width="1.68619" stroke-miterlimit="10" stroke-linecap="round"/>
</svg>
