<svg width="97" height="108" viewBox="0 0 97 108" fill="none" xmlns="http://www.w3.org/2000/svg">
<mask id="path-1-outside-1_750_9649" maskUnits="userSpaceOnUse" x="-0.533203" y="9.5127" width="90" height="99" fill="black">
<rect fill="white" x="-0.533203" y="9.5127" width="90" height="99"/>
<path fill-rule="evenodd" clip-rule="evenodd" d="M12.7227 16.0491C16.4259 12.493 29.9647 14.9953 39.3398 24.7561C43.3685 28.9505 45.9696 33.8037 47.3359 38.2561C52.9372 26.0643 63.312 16.1783 81.4307 17.4231C81.4996 17.4499 81.5636 17.4956 81.6221 17.5589C79.5731 24.4609 70.0064 39.9706 47.0801 50.9358V50.9368C70.0064 39.9716 79.5731 24.4629 81.6221 17.5608C83.9954 20.1334 77.5286 52.0686 48.5869 53.9358C48.0064 57.9165 47.576 63.5508 47.3008 68.1741C47.3207 68.1772 47.3404 68.1817 47.3604 68.1848C47.4187 68.1942 47.477 68.2042 47.5352 68.2141C47.6981 68.2418 47.8602 68.2718 48.0215 68.304C48.0726 68.3142 48.1238 68.3236 48.1748 68.3343C48.3835 68.3779 48.591 68.4248 48.7969 68.4759C48.8063 68.4782 48.8158 68.4803 48.8252 68.4827C49.0219 68.5318 49.2171 68.5851 49.4111 68.6409C49.4621 68.6556 49.5127 68.6717 49.5635 68.6868C49.7137 68.7315 49.8632 68.7778 50.0117 68.8264C50.0694 68.8453 50.1272 68.8636 50.1846 68.8831C50.5735 69.015 50.956 69.1605 51.332 69.3186C51.3916 69.3437 51.4505 69.3701 51.5098 69.3958C51.6431 69.4536 51.7757 69.5125 51.9072 69.5735C51.9635 69.5996 52.0202 69.6249 52.0762 69.6516C52.446 69.8281 52.8083 70.0177 53.1631 70.219C53.2157 70.2489 53.268 70.2794 53.3203 70.3098C53.4474 70.3837 53.5732 70.4594 53.6982 70.5364C53.75 70.5683 53.8021 70.5997 53.8535 70.6321C54.02 70.737 54.185 70.844 54.3477 70.9544C54.3749 70.9729 54.4015 70.9924 54.4287 71.011C54.5687 71.1072 54.7068 71.2058 54.8438 71.3059C54.896 71.3441 54.9482 71.3824 55 71.4212C55.127 71.5162 55.2527 71.6128 55.377 71.7112C55.4128 71.7395 55.4488 71.7676 55.4844 71.7962C55.6392 71.9207 55.792 72.0474 55.9424 72.177C55.9714 72.202 55.9995 72.228 56.0283 72.2532C56.1532 72.3623 56.2768 72.4727 56.3984 72.5852C56.4525 72.6353 56.5061 72.6859 56.5596 72.7366C56.6484 72.8209 56.7362 72.9063 56.8232 72.9925C56.8844 73.053 56.9456 73.1136 57.0059 73.1751C57.2799 73.4543 57.544 73.7431 57.7988 74.0403C57.8402 74.0885 57.8811 74.1371 57.9219 74.1858C58.0172 74.2994 58.1107 74.4145 58.2031 74.5305C58.2392 74.5758 58.2759 74.6206 58.3115 74.6663C58.4285 74.8163 58.5441 74.9675 58.6562 75.1214L58.6543 75.1204C59.7207 76.5836 60.5652 78.2197 61.1357 79.9788C61.8738 79.8383 62.636 79.7639 63.415 79.7639C68.5118 79.7641 72.8733 82.9116 74.6631 87.3684C75.7265 86.7894 76.9462 86.4602 78.2422 86.4602C82.3806 86.4603 85.7354 89.8159 85.7354 93.9544C85.7352 98.0927 82.3805 101.447 78.2422 101.448C76.1986 101.448 74.346 100.629 72.9941 99.303C70.7776 102.16 67.3109 103.998 63.415 103.998C59.7516 103.998 56.467 102.372 54.2451 99.803C51.4858 101.647 48.1695 102.723 44.6016 102.723C41.5951 102.723 38.7673 101.958 36.3008 100.615L36.3018 100.617C36.2856 100.609 36.27 100.599 36.2539 100.59C36.1197 100.516 35.9875 100.44 35.8555 100.363C35.8032 100.332 35.7502 100.303 35.6982 100.272C35.6905 100.267 35.6826 100.263 35.6748 100.258L35.1592 99.9368C32.9398 102.429 29.7062 103.998 26.1064 103.998C22.1282 103.998 18.5978 102.081 16.3887 99.1204C15.0237 100.554 13.0959 101.448 10.96 101.448C6.82169 101.447 3.46695 98.0927 3.4668 93.9544C3.4668 89.8159 6.82159 86.4604 10.96 86.4602C12.3629 86.4602 13.6762 86.846 14.7988 87.5169C16.5506 82.9814 20.953 79.764 26.1064 79.7639C26.7798 79.7639 27.4405 79.8195 28.084 79.9251C30.0541 73.9172 35.2118 69.356 41.5566 68.2346C41.4406 63.8504 41.7725 58.5037 42.8047 52.9427C37.4185 53.5398 28.6504 50.5549 21.4824 43.0921C12.394 33.6296 9.21415 20.4424 12.4014 16.4046C16.09 23.1686 24.0965 34.5729 37.8809 43.9466V43.9456C24.0965 34.5719 16.09 23.1676 12.4014 16.4036C12.5019 16.2762 12.6094 16.1579 12.7227 16.0491Z"/>
</mask>
<path fill-rule="evenodd" clip-rule="evenodd" d="M12.7227 16.0491C16.4259 12.493 29.9647 14.9953 39.3398 24.7561C43.3685 28.9505 45.9696 33.8037 47.3359 38.2561C52.9372 26.0643 63.312 16.1783 81.4307 17.4231C81.4996 17.4499 81.5636 17.4956 81.6221 17.5589C79.5731 24.4609 70.0064 39.9706 47.0801 50.9358V50.9368C70.0064 39.9716 79.5731 24.4629 81.6221 17.5608C83.9954 20.1334 77.5286 52.0686 48.5869 53.9358C48.0064 57.9165 47.576 63.5508 47.3008 68.1741C47.3207 68.1772 47.3404 68.1817 47.3604 68.1848C47.4187 68.1942 47.477 68.2042 47.5352 68.2141C47.6981 68.2418 47.8602 68.2718 48.0215 68.304C48.0726 68.3142 48.1238 68.3236 48.1748 68.3343C48.3835 68.3779 48.591 68.4248 48.7969 68.4759C48.8063 68.4782 48.8158 68.4803 48.8252 68.4827C49.0219 68.5318 49.2171 68.5851 49.4111 68.6409C49.4621 68.6556 49.5127 68.6717 49.5635 68.6868C49.7137 68.7315 49.8632 68.7778 50.0117 68.8264C50.0694 68.8453 50.1272 68.8636 50.1846 68.8831C50.5735 69.015 50.956 69.1605 51.332 69.3186C51.3916 69.3437 51.4505 69.3701 51.5098 69.3958C51.6431 69.4536 51.7757 69.5125 51.9072 69.5735C51.9635 69.5996 52.0202 69.6249 52.0762 69.6516C52.446 69.8281 52.8083 70.0177 53.1631 70.219C53.2157 70.2489 53.268 70.2794 53.3203 70.3098C53.4474 70.3837 53.5732 70.4594 53.6982 70.5364C53.75 70.5683 53.8021 70.5997 53.8535 70.6321C54.02 70.737 54.185 70.844 54.3477 70.9544C54.3749 70.9729 54.4015 70.9924 54.4287 71.011C54.5687 71.1072 54.7068 71.2058 54.8438 71.3059C54.896 71.3441 54.9482 71.3824 55 71.4212C55.127 71.5162 55.2527 71.6128 55.377 71.7112C55.4128 71.7395 55.4488 71.7676 55.4844 71.7962C55.6392 71.9207 55.792 72.0474 55.9424 72.177C55.9714 72.202 55.9995 72.228 56.0283 72.2532C56.1532 72.3623 56.2768 72.4727 56.3984 72.5852C56.4525 72.6353 56.5061 72.6859 56.5596 72.7366C56.6484 72.8209 56.7362 72.9063 56.8232 72.9925C56.8844 73.053 56.9456 73.1136 57.0059 73.1751C57.2799 73.4543 57.544 73.7431 57.7988 74.0403C57.8402 74.0885 57.8811 74.1371 57.9219 74.1858C58.0172 74.2994 58.1107 74.4145 58.2031 74.5305C58.2392 74.5758 58.2759 74.6206 58.3115 74.6663C58.4285 74.8163 58.5441 74.9675 58.6562 75.1214L58.6543 75.1204C59.7207 76.5836 60.5652 78.2197 61.1357 79.9788C61.8738 79.8383 62.636 79.7639 63.415 79.7639C68.5118 79.7641 72.8733 82.9116 74.6631 87.3684C75.7265 86.7894 76.9462 86.4602 78.2422 86.4602C82.3806 86.4603 85.7354 89.8159 85.7354 93.9544C85.7352 98.0927 82.3805 101.447 78.2422 101.448C76.1986 101.448 74.346 100.629 72.9941 99.303C70.7776 102.16 67.3109 103.998 63.415 103.998C59.7516 103.998 56.467 102.372 54.2451 99.803C51.4858 101.647 48.1695 102.723 44.6016 102.723C41.5951 102.723 38.7673 101.958 36.3008 100.615L36.3018 100.617C36.2856 100.609 36.27 100.599 36.2539 100.59C36.1197 100.516 35.9875 100.44 35.8555 100.363C35.8032 100.332 35.7502 100.303 35.6982 100.272C35.6905 100.267 35.6826 100.263 35.6748 100.258L35.1592 99.9368C32.9398 102.429 29.7062 103.998 26.1064 103.998C22.1282 103.998 18.5978 102.081 16.3887 99.1204C15.0237 100.554 13.0959 101.448 10.96 101.448C6.82169 101.447 3.46695 98.0927 3.4668 93.9544C3.4668 89.8159 6.82159 86.4604 10.96 86.4602C12.3629 86.4602 13.6762 86.846 14.7988 87.5169C16.5506 82.9814 20.953 79.764 26.1064 79.7639C26.7798 79.7639 27.4405 79.8195 28.084 79.9251C30.0541 73.9172 35.2118 69.356 41.5566 68.2346C41.4406 63.8504 41.7725 58.5037 42.8047 52.9427C37.4185 53.5398 28.6504 50.5549 21.4824 43.0921C12.394 33.6296 9.21415 20.4424 12.4014 16.4046C16.09 23.1686 24.0965 34.5729 37.8809 43.9466V43.9456C24.0965 34.5719 16.09 23.1676 12.4014 16.4036C12.5019 16.2762 12.6094 16.1579 12.7227 16.0491Z" fill="black"/>
<path d="M12.7227 16.0491L10.3215 13.5486L10.3213 13.5489L12.7227 16.0491ZM39.3398 24.7561L41.84 22.3547L41.84 22.3547L39.3398 24.7561ZM47.3359 38.2561L44.0218 39.2732L46.6897 47.9667L50.486 39.7034L47.3359 38.2561ZM81.4307 17.4231L82.6873 14.1923L82.1951 14.0008L81.6683 13.9646L81.4307 17.4231ZM81.6221 17.5589L84.9454 18.5454L85.5064 16.6555L84.169 15.2071L81.6221 17.5589ZM47.0801 50.9358L45.5843 47.8085L43.6134 48.7511V50.9358H47.0801ZM47.0801 50.9368H43.6134V56.4376L48.5758 54.0642L47.0801 50.9368ZM81.6221 17.5608L84.1701 15.2102L80.0345 10.7274L78.2988 16.5742L81.6221 17.5608ZM48.5869 53.9358L48.3637 50.4764L45.5617 50.6571L45.1566 53.4356L48.5869 53.9358ZM47.3008 68.1741L43.8403 67.9681L43.653 71.1138L46.7666 71.5993L47.3008 68.1741ZM47.3604 68.1848L46.8142 71.6082V71.6082L47.3604 68.1848ZM47.5352 68.2141L48.1163 64.7966V64.7966L47.5352 68.2141ZM48.0215 68.304L47.3429 71.7036H47.3429L48.0215 68.304ZM48.1748 68.3343L48.8841 64.9409V64.9409L48.1748 68.3343ZM48.7969 68.4759L47.9627 71.8407H47.9627L48.7969 68.4759ZM48.8252 68.4827L49.665 65.1193L49.665 65.1193L48.8252 68.4827ZM49.4111 68.6409L48.4535 71.9726H48.4535L49.4111 68.6409ZM49.5635 68.6868L50.5518 65.364L50.5518 65.364L49.5635 68.6868ZM50.0117 68.8264L48.9332 72.1211H48.9332L50.0117 68.8264ZM50.1846 68.8831L51.2978 65.6H51.2978L50.1846 68.8831ZM51.332 69.3186L49.9883 72.5142H49.9883L51.332 69.3186ZM51.5098 69.3958L52.8893 66.2154L52.8893 66.2154L51.5098 69.3958ZM51.9072 69.5735L50.448 72.7181H50.448L51.9072 69.5735ZM52.0762 69.6516L53.5691 66.5229H53.5691L52.0762 69.6516ZM53.1631 70.219L51.4526 73.2343V73.2343L53.1631 70.219ZM53.3203 70.3098L55.0623 67.3126L55.0623 67.3126L53.3203 70.3098ZM53.6982 70.5364L51.8808 73.4885H51.8808L53.6982 70.5364ZM53.8535 70.6321L55.7018 67.6993H55.7018L53.8535 70.6321ZM54.3477 70.9544L52.401 73.8229H52.401L54.3477 70.9544ZM54.4287 71.011L56.3916 68.1536L56.3916 68.1536L54.4287 71.011ZM54.8438 71.3059L52.7982 74.1048L52.7982 74.1048L54.8438 71.3059ZM55 71.4212L57.0766 68.6453L57.0766 68.6453L55 71.4212ZM55.377 71.7112L53.2255 74.4295V74.4295L55.377 71.7112ZM55.4844 71.7962L57.6571 69.0949L57.6571 69.0949L55.4844 71.7962ZM55.9424 72.177L53.6789 74.8027V74.8027L55.9424 72.177ZM56.0283 72.2532L58.3091 69.6425V69.6425L56.0283 72.2532ZM56.3984 72.5852L54.0444 75.13V75.13L56.3984 72.5852ZM56.5596 72.7366L58.9456 70.2218V70.2218L56.5596 72.7366ZM56.8232 72.9925L59.2616 70.5283V70.5283L56.8232 72.9925ZM57.0059 73.1751L54.5314 75.6029V75.6029L57.0059 73.1751ZM57.7988 74.0403L60.4307 71.784V71.784L57.7988 74.0403ZM57.9219 74.1858L55.2656 76.4133L55.2656 76.4133L57.9219 74.1858ZM58.2031 74.5305L60.9153 72.3714H60.9153L58.2031 74.5305ZM58.3115 74.6663L55.578 76.7983V76.7983L58.3115 74.6663ZM58.6562 75.1214L57.1059 78.222L61.4581 73.0799L58.6562 75.1214ZM58.6543 75.1204L60.2046 72.0197L55.8527 77.1622L58.6543 75.1204ZM61.1357 79.9788L57.8382 81.0483L58.7812 83.9557L61.7838 83.3843L61.1357 79.9788ZM63.415 79.7639L63.4152 76.2973H63.415V79.7639ZM74.6631 87.3684L71.4461 88.6603L72.8984 92.2768L76.321 90.4129L74.6631 87.3684ZM78.2422 86.4602L78.2422 82.9936H78.2422V86.4602ZM85.7354 93.9544L89.202 93.9545V93.9544H85.7354ZM78.2422 101.448V104.914H78.2422L78.2422 101.448ZM72.9941 99.303L75.4221 96.8286L72.6424 94.1011L70.2552 97.178L72.9941 99.303ZM63.415 103.998V107.465H63.4152L63.415 103.998ZM54.2451 99.803L56.8673 97.5354L54.8645 95.2195L52.3188 96.9208L54.2451 99.803ZM44.6016 102.723V106.19H44.6016L44.6016 102.723ZM36.3008 100.615L37.9591 97.5702L30.2281 93.359L33.012 101.711L36.3008 100.615ZM36.3018 100.617L34.6439 103.662L42.3739 107.871L39.5905 99.5212L36.3018 100.617ZM36.2539 100.59L34.5863 103.629L34.5864 103.629L36.2539 100.59ZM35.8555 100.363L37.6028 97.3685L37.6028 97.3685L35.8555 100.363ZM35.6982 100.272L33.9197 103.247L33.9197 103.247L35.6982 100.272ZM35.6748 100.258L33.8415 103.2L33.8664 103.216L33.8916 103.231L35.6748 100.258ZM35.1592 99.9368L36.9925 96.9946L34.513 95.4496L32.5702 97.6314L35.1592 99.9368ZM26.1064 103.998L26.1064 107.465H26.1064V103.998ZM16.3887 99.1204L19.1672 97.0473L16.7105 93.7547L13.8779 96.7301L16.3887 99.1204ZM10.96 101.448L10.9598 104.914H10.96V101.448ZM3.4668 93.9544H0.000147343V93.9545L3.4668 93.9544ZM10.96 86.4602V82.9936H10.9598L10.96 86.4602ZM14.7988 87.5169L13.0205 90.4927L16.5509 92.6024L18.0326 88.7659L14.7988 87.5169ZM26.1064 79.7639V76.2973H26.1064L26.1064 79.7639ZM28.084 79.9251L27.5225 83.346L30.4528 83.8269L31.378 81.0053L28.084 79.9251ZM41.5566 68.2346L42.16 71.6484L45.1011 71.1286L45.0221 68.143L41.5566 68.2346ZM42.8047 52.9427L46.2131 53.5753L47.0657 48.9823L42.4227 49.4971L42.8047 52.9427ZM21.4824 43.0921L18.9822 45.4934L18.9822 45.4935L21.4824 43.0921ZM12.4014 16.4046L15.4449 14.7448L12.9321 10.137L9.68027 14.2567L12.4014 16.4046ZM37.8809 43.9466L35.9315 46.8132L41.3475 50.4962V43.9466H37.8809ZM37.8809 43.9456H41.3475V42.1107L39.8302 41.079L37.8809 43.9456ZM12.4014 16.4036L9.6803 14.2557L8.26157 16.053L9.35786 18.0633L12.4014 16.4036ZM12.7227 16.0491L15.1238 18.5496C15.1909 18.4851 15.7573 18.0891 17.3274 17.9975C18.7968 17.9118 20.7391 18.1244 22.9722 18.7478C27.4341 19.9933 32.6091 22.7529 36.8397 27.1575L39.3398 24.7561L41.84 22.3547C36.6954 16.9985 30.4135 13.6266 24.8363 12.0698C22.05 11.292 19.3272 10.9357 16.9236 11.076C14.6207 11.2103 12.106 11.8351 10.3215 13.5486L12.7227 16.0491ZM39.3398 24.7561L36.8396 27.1575C40.4669 30.9341 42.8036 35.3033 44.0218 39.2732L47.3359 38.2561L50.65 37.2391C49.1356 32.3042 46.27 26.967 41.84 22.3547L39.3398 24.7561ZM47.3359 38.2561L50.486 39.7034C53.1045 34.0041 56.7473 29.0465 61.6596 25.6532C66.5227 22.2938 72.8549 20.3088 81.1931 20.8816L81.4307 17.4231L81.6683 13.9646C71.8878 13.2927 63.9732 15.6282 57.719 19.9486C51.5139 24.235 47.1687 30.3163 44.1858 36.8089L47.3359 38.2561ZM81.4307 17.4231L80.174 20.654C79.6695 20.4578 79.3094 20.1643 79.0751 19.9106L81.6221 17.5589L84.169 15.2071C83.8178 14.8268 83.3297 14.4421 82.6873 14.1923L81.4307 17.4231ZM81.6221 17.5589L78.2988 16.5723C76.5671 22.4055 67.7552 37.2046 45.5843 47.8085L47.0801 50.9358L48.5758 54.0632C72.2576 42.7367 82.5791 26.5164 84.9454 18.5454L81.6221 17.5589ZM47.0801 50.9358H43.6134V50.9368H47.0801H50.5467V50.9358H47.0801ZM47.0801 50.9368L48.5758 54.0642C72.2575 42.7377 82.579 26.5184 84.9454 18.5474L81.6221 17.5608L78.2988 16.5742C76.5671 22.4074 67.7552 37.2055 45.5843 47.8094L47.0801 50.9368ZM81.6221 17.5608L79.0741 19.9115C78.5729 19.3682 78.527 18.8854 78.5622 19.0597C78.5759 19.1272 78.6068 19.3499 78.6045 19.7667C78.5999 20.5885 78.4697 21.8093 78.1417 23.3414C77.4887 26.3911 76.1241 30.3391 73.8466 34.2774C69.3156 42.1128 61.3718 49.6371 48.3637 50.4764L48.5869 53.9358L48.8101 57.3953C64.7437 56.3673 74.5042 46.9904 79.8486 37.7483C82.509 33.1478 84.1249 28.513 84.9213 24.7929C85.318 22.9402 85.5298 21.2294 85.5377 19.805C85.5416 19.0987 85.4963 18.3697 85.3581 17.6859C85.2414 17.1088 84.9679 16.075 84.1701 15.2102L81.6221 17.5608ZM48.5869 53.9358L45.1566 53.4356C44.5531 57.5733 44.1161 63.3339 43.8403 67.9681L47.3008 68.1741L50.7613 68.3801C51.0358 63.7677 51.4597 58.2597 52.0173 54.4361L48.5869 53.9358ZM47.3008 68.1741L46.7666 71.5993C46.7337 71.5942 46.7081 71.5897 46.6941 71.5871C46.6869 71.5858 46.6815 71.5848 46.679 71.5843C46.6768 71.5839 46.6755 71.5836 46.678 71.5841C46.6792 71.5844 46.685 71.5855 46.6909 71.5866C46.6974 71.5878 46.7068 71.5896 46.7179 71.5916C46.7397 71.5957 46.7734 71.6017 46.8142 71.6082L47.3604 68.1848L47.9065 64.7615C47.9373 64.7664 47.9611 64.7707 47.973 64.7729C47.9831 64.7748 47.9917 64.7764 47.9832 64.7748C47.9793 64.774 47.9598 64.7703 47.9373 64.7662C47.9134 64.7618 47.8778 64.7555 47.835 64.7489L47.3008 68.1741ZM47.3604 68.1848L46.8142 71.6082C46.8497 71.6139 46.8813 71.6194 46.954 71.6317L47.5352 68.2141L48.1163 64.7966C48.0727 64.7891 47.9878 64.7745 47.9065 64.7615L47.3604 68.1848ZM47.5352 68.2141L46.954 71.6317C47.0846 71.6539 47.2142 71.6779 47.3429 71.7036L48.0215 68.304L48.7001 64.9044C48.5061 64.8657 48.3115 64.8297 48.1163 64.7966L47.5352 68.2141ZM48.0215 68.304L47.3429 71.7036C47.364 71.7078 47.3833 71.7116 47.3988 71.7146C47.4066 71.7161 47.4141 71.7175 47.4204 71.7188C47.4272 71.7201 47.4326 71.7211 47.4379 71.7221C47.4603 71.7265 47.4656 71.7276 47.4655 71.7276L48.1748 68.3343L48.8841 64.9409C48.833 64.9303 48.7873 64.9214 48.7585 64.9158C48.7227 64.9088 48.7135 64.9071 48.7001 64.9044L48.0215 68.304ZM48.1748 68.3343L47.4655 71.7276C47.6374 71.7635 47.8029 71.801 47.9627 71.8407L48.7969 68.4759L49.631 65.1111C49.3791 65.0486 49.1297 64.9923 48.8841 64.9409L48.1748 68.3343ZM48.7969 68.4759L47.9627 71.8407C47.9761 71.844 47.9874 71.8467 47.9949 71.8485C48.0018 71.8502 48.0084 71.8517 48.0094 71.852C48.012 71.8526 48.0096 71.852 48.0062 71.8512C48.0025 71.8503 47.995 71.8485 47.9854 71.8461L48.8252 68.4827L49.665 65.1193C49.6507 65.1157 49.6385 65.1128 49.63 65.1107C49.6219 65.1088 49.6148 65.1071 49.6126 65.1066C49.6089 65.1057 49.6108 65.1061 49.613 65.1067C49.6158 65.1073 49.6223 65.1089 49.631 65.1111L48.7969 68.4759ZM48.8252 68.4827L47.9853 71.8461C48.1336 71.8831 48.2884 71.9252 48.4535 71.9726L49.4111 68.6409L50.3688 65.3092C50.1458 65.2451 49.9103 65.1805 49.665 65.1193L48.8252 68.4827ZM49.4111 68.6409L48.4535 71.9726C48.4492 71.9714 48.4512 71.9719 48.4739 71.9789C48.4805 71.9809 48.5009 71.9872 48.5143 71.9912C48.5308 71.9963 48.5518 72.0026 48.5751 72.0096L49.5635 68.6868L50.5518 65.364C50.5429 65.3614 50.5368 65.3595 50.5009 65.3485C50.4729 65.3399 50.424 65.325 50.3688 65.3092L49.4111 68.6409ZM49.5635 68.6868L48.5751 72.0096C48.7001 72.0468 48.8191 72.0837 48.9332 72.1211L50.0117 68.8264L51.0902 65.5318C50.9073 65.4719 50.7273 65.4162 50.5518 65.364L49.5635 68.6868ZM50.0117 68.8264L48.9332 72.1211C49.0352 72.1544 49.0351 72.1538 49.0714 72.1661L50.1846 68.8831L51.2978 65.6C51.2192 65.5734 51.1035 65.5362 51.0902 65.5318L50.0117 68.8264ZM50.1846 68.8831L49.0714 72.1661C49.3802 72.2709 49.6859 72.3871 49.9883 72.5142L51.332 69.3186L52.6758 66.123C52.2262 65.9339 51.7667 65.759 51.2978 65.6L50.1846 68.8831ZM51.332 69.3186L49.9883 72.5142C50.0278 72.5309 50.0164 72.5267 50.1302 72.5761L51.5098 69.3958L52.8893 66.2154C52.8847 66.2134 52.7554 66.1565 52.6758 66.123L51.332 69.3186ZM51.5098 69.3958L50.1302 72.5761C50.2462 72.6264 50.3508 72.673 50.448 72.7181L51.9072 69.5735L53.3664 66.4289C53.2006 66.352 53.0399 66.2808 52.8893 66.2154L51.5098 69.3958ZM51.9072 69.5735L50.448 72.7181C50.5746 72.7769 50.5412 72.7603 50.5832 72.7803L52.0762 69.6516L53.5691 66.5229C53.5163 66.4977 53.4684 66.4757 53.4363 66.461C53.3968 66.4429 53.3848 66.4375 53.3664 66.4289L51.9072 69.5735ZM52.0762 69.6516L50.5832 72.7803C50.876 72.9201 51.1658 73.0716 51.4526 73.2343L53.1631 70.219L54.8736 67.2038C54.4507 66.9639 54.0159 66.7361 53.5691 66.5229L52.0762 69.6516ZM53.1631 70.219L51.4526 73.2343C51.4849 73.2527 51.5154 73.2704 51.5784 73.3071L53.3203 70.3098L55.0623 67.3126C55.0206 67.2884 54.9466 67.2451 54.8736 67.2038L53.1631 70.219ZM53.3203 70.3098L51.5784 73.3071C51.6751 73.3633 51.7753 73.4235 51.8808 73.4885L53.6982 70.5364L55.5157 67.5843C55.3712 67.4954 55.2197 67.4041 55.0623 67.3126L53.3203 70.3098ZM53.6982 70.5364L51.8808 73.4885C51.9691 73.5428 51.973 73.5447 52.0052 73.5649L53.8535 70.6321L55.7018 67.6993C55.6311 67.6547 55.531 67.5938 55.5156 67.5843L53.6982 70.5364ZM53.8535 70.6321L52.0052 73.5649C52.1472 73.6544 52.2782 73.7396 52.401 73.8229L54.3477 70.9544L56.2943 68.0859C56.0918 67.9485 55.8929 67.8197 55.7018 67.6993L53.8535 70.6321ZM54.3477 70.9544L52.401 73.8229C52.3912 73.8162 52.3845 73.8115 52.3825 73.8101C52.3809 73.809 52.3811 73.8091 52.3872 73.8134C52.3911 73.8162 52.4032 73.8248 52.4148 73.833C52.4276 73.8419 52.4453 73.8543 52.4658 73.8684L54.4287 71.011L56.3916 68.1536C56.3986 68.1584 56.4028 68.1614 56.402 68.1608C56.4001 68.1595 56.3988 68.1586 56.3893 68.1518C56.3764 68.1427 56.3384 68.1158 56.2943 68.0859L54.3477 70.9544ZM54.4287 71.011L52.4658 73.8684C52.5711 73.9408 52.6809 74.019 52.7982 74.1048L54.8438 71.3059L56.8893 68.5071C56.7327 68.3926 56.5662 68.2736 56.3916 68.1536L54.4287 71.011ZM54.8438 71.3059L52.7982 74.1048C52.8482 74.1413 52.8877 74.1703 52.9234 74.1971L55 71.4212L57.0766 68.6453C57.0087 68.5945 56.9438 68.5469 56.8893 68.5071L54.8438 71.3059ZM55 71.4212L52.9234 74.1971C53.0256 74.2735 53.1263 74.351 53.2255 74.4295L55.377 71.7112L57.5284 68.9929C57.379 68.8747 57.2284 68.7589 57.0766 68.6453L55 71.4212ZM55.377 71.7112L53.2255 74.4295C53.2964 74.4856 53.2874 74.478 53.3117 74.4975L55.4844 71.7962L57.6571 69.0949C57.6102 69.0572 57.5291 68.9935 57.5284 68.9929L55.377 71.7112ZM55.4844 71.7962L53.3117 74.4975C53.4398 74.6005 53.562 74.702 53.6789 74.8027L55.9424 72.177L58.2059 69.5514C58.022 69.3928 57.8385 69.2408 57.6571 69.0949L55.4844 71.7962ZM55.9424 72.177L53.6789 74.8027C53.6712 74.7961 53.6662 74.7917 53.6654 74.791C53.6649 74.7906 53.6661 74.7916 53.6724 74.7972C53.6767 74.801 53.6887 74.8118 53.6997 74.8216C53.7119 74.8325 53.7285 74.8472 53.7476 74.8639L56.0283 72.2532L58.3091 69.6425C58.3138 69.6466 58.316 69.6486 58.3139 69.6467C58.3107 69.6439 58.3084 69.6418 58.2984 69.6329C58.2841 69.6201 58.248 69.5876 58.2059 69.5514L55.9424 72.177ZM56.0283 72.2532L53.7476 74.8639C53.8535 74.9564 53.9519 75.0445 54.0444 75.13L56.3984 72.5852L58.7525 70.0404C58.6017 69.9009 58.4529 69.7681 58.3091 69.6425L56.0283 72.2532ZM56.3984 72.5852L54.0444 75.13C54.082 75.1648 54.1228 75.2033 54.1735 75.2514L56.5596 72.7366L58.9456 70.2218C58.8895 70.1685 58.8231 70.1058 58.7525 70.0404L56.3984 72.5852ZM56.5596 72.7366L54.1735 75.2514C54.2413 75.3157 54.3113 75.3838 54.3849 75.4566L56.8232 72.9925L59.2616 70.5283C59.1611 70.4288 59.0556 70.3261 58.9456 70.2218L56.5596 72.7366ZM56.8232 72.9925L54.3849 75.4566C54.4467 75.5178 54.4911 75.5619 54.5314 75.6029L57.0059 73.1751L59.4804 70.7472C59.4 70.6653 59.3222 70.5883 59.2616 70.5283L56.8232 72.9925ZM57.0059 73.1751L54.5314 75.6029C54.7488 75.8245 54.9606 76.0559 55.167 76.2967L57.7988 74.0403L60.4307 71.784C60.1275 71.4303 59.8109 71.0841 59.4804 70.7472L57.0059 73.1751ZM57.7988 74.0403L55.167 76.2967C55.1952 76.3296 55.2259 76.366 55.2656 76.4133L57.9219 74.1858L60.5782 71.9583C60.5362 71.9083 60.4851 71.8475 60.4307 71.784L57.7988 74.0403ZM57.9219 74.1858L55.2656 76.4133C55.3388 76.5006 55.4135 76.5924 55.491 76.6897L58.2031 74.5305L60.9153 72.3714C60.8079 72.2366 60.6956 72.0983 60.5782 71.9583L57.9219 74.1858ZM58.2031 74.5305L55.491 76.6897C55.5753 76.7956 55.5501 76.7625 55.578 76.7983L58.3115 74.6663L61.045 72.5343C61.011 72.4906 60.9799 72.4519 60.9594 72.4263C60.934 72.3948 60.9265 72.3855 60.9153 72.3714L58.2031 74.5305ZM58.3115 74.6663L55.578 76.7983C55.6824 76.9321 55.7728 77.0508 55.8544 77.1628L58.6562 75.1214L61.4581 73.0799C61.3154 72.8841 61.1747 72.7005 61.045 72.5343L58.3115 74.6663ZM58.6562 75.1214L60.2066 72.0207L60.2046 72.0197L58.6543 75.1204L57.104 78.2211L57.1059 78.222L58.6562 75.1214ZM58.6543 75.1204L55.8527 77.1622C56.7079 78.3356 57.3829 79.6445 57.8382 81.0483L61.1357 79.9788L64.4333 78.9093C63.7475 76.7949 62.7335 74.8317 61.4559 73.0786L58.6543 75.1204ZM61.1357 79.9788L61.7838 83.3843C62.3119 83.2838 62.8571 83.2306 63.415 83.2306V79.7639V76.2973C62.415 76.2973 61.4358 76.3928 60.4877 76.5733L61.1357 79.9788ZM63.415 79.7639L63.4149 83.2306C67.0478 83.2307 70.1658 85.472 71.4461 88.6603L74.6631 87.3684L77.88 86.0766C75.5809 80.3512 69.9758 76.2976 63.4152 76.2973L63.415 79.7639ZM74.6631 87.3684L76.321 90.4129C76.8884 90.104 77.5397 89.9269 78.2422 89.9269V86.4602V82.9936C76.3526 82.9936 74.5645 83.4748 73.0052 84.3239L74.6631 87.3684ZM78.2422 86.4602L78.2421 89.9269C80.4655 89.9269 82.2687 91.7299 82.2687 93.9544H85.7354H89.202C89.202 87.9018 84.2958 82.9937 78.2422 82.9936L78.2422 86.4602ZM85.7354 93.9544L82.2687 93.9542C82.2686 96.1782 80.4659 97.9809 78.2421 97.9809L78.2422 101.448L78.2422 104.914C84.2952 104.914 89.2018 100.007 89.202 93.9545L85.7354 93.9544ZM78.2422 101.448V97.9809C77.1428 97.9809 76.1521 97.5449 75.4221 96.8286L72.9941 99.303L70.5662 101.777C72.5399 103.714 75.2544 104.914 78.2422 104.914V101.448ZM72.9941 99.303L70.2552 97.178C68.6672 99.2247 66.1947 100.532 63.4149 100.532L63.415 103.998L63.4152 107.465C68.4271 107.465 72.8879 105.095 75.7331 101.428L72.9941 99.303ZM63.415 103.998V100.532C60.8003 100.532 58.4587 99.3756 56.8673 97.5354L54.2451 99.803L51.623 102.071C54.4754 105.369 58.703 107.465 63.415 107.465V103.998ZM54.2451 99.803L52.3188 96.9208C50.1116 98.396 47.4622 99.2562 44.6015 99.2563L44.6016 102.723L44.6016 106.19C48.8767 106.189 52.8601 104.898 56.1714 102.685L54.2451 99.803ZM44.6016 102.723V99.2563C42.19 99.2563 39.9307 98.6442 37.9591 97.5702L36.3008 100.615L34.6425 103.659C37.604 105.272 41.0002 106.19 44.6016 106.19V102.723ZM36.3008 100.615L33.012 101.711L33.013 101.714L36.3018 100.617L39.5905 99.5212L39.5895 99.5183L36.3008 100.615ZM36.3018 100.617L37.9596 97.5729C37.9846 97.5865 38.0039 97.5975 38.0144 97.6035C38.0198 97.6066 38.0238 97.6089 38.0256 97.61C38.0272 97.6109 38.0281 97.6114 38.0261 97.6103C38.0251 97.6097 38.0206 97.6071 38.0161 97.6044C38.0111 97.6015 38.0039 97.5974 37.9953 97.5924C37.9786 97.5828 37.9528 97.5681 37.9214 97.5509L36.2539 100.59L34.5864 103.629C34.5631 103.617 34.5453 103.606 34.5365 103.601C34.529 103.597 34.5228 103.593 34.5295 103.597C34.5327 103.599 34.5477 103.608 34.5651 103.618C34.5835 103.628 34.6108 103.644 34.6439 103.662L36.3018 100.617ZM36.2539 100.59L37.9215 97.5509C37.8323 97.502 37.7364 97.4464 37.6028 97.3685L35.8555 100.363L34.1081 103.357C34.2386 103.433 34.4071 103.531 34.5863 103.629L36.2539 100.59ZM35.8555 100.363L37.6028 97.3685C37.5782 97.3542 37.556 97.3414 37.5386 97.3314C37.5241 97.3231 37.5034 97.3113 37.4961 97.3072C37.4724 97.2936 37.4714 97.2929 37.4768 97.2961L35.6982 100.272L33.9197 103.247C33.977 103.282 34.0285 103.311 34.0573 103.328C34.0945 103.349 34.1001 103.352 34.1081 103.357L35.8555 100.363ZM35.6982 100.272L37.4768 97.2961C37.4586 97.2852 37.4435 97.2764 37.4337 97.2707C37.4287 97.2678 37.4245 97.2654 37.4217 97.2638C37.4191 97.2623 37.4166 97.2608 37.4161 97.2606C37.4151 97.26 37.4158 97.2604 37.417 97.2611C37.4183 97.2618 37.4209 97.2633 37.4243 97.2653C37.4309 97.2692 37.4429 97.2762 37.458 97.2852L35.6748 100.258L33.8916 103.231C33.9106 103.242 33.9265 103.252 33.937 103.258C33.9469 103.264 33.9556 103.269 33.9569 103.269C33.9584 103.27 33.9579 103.27 33.9572 103.269C33.9564 103.269 33.9541 103.268 33.9511 103.266C33.9452 103.263 33.934 103.256 33.9197 103.247L35.6982 100.272ZM35.6748 100.258L37.5081 97.3159L36.9925 96.9946L35.1592 99.9368L33.3259 102.879L33.8415 103.2L35.6748 100.258ZM35.1592 99.9368L32.5702 97.6314C30.9812 99.4159 28.6764 100.532 26.1064 100.532V103.998V107.465C30.736 107.465 34.8985 105.442 37.7481 102.242L35.1592 99.9368ZM26.1064 103.998L26.1065 100.532C23.2686 100.532 20.7501 99.1689 19.1672 97.0473L16.3887 99.1204L13.6102 101.193C16.4455 104.994 20.9878 107.465 26.1064 107.465L26.1064 103.998ZM16.3887 99.1204L13.8779 96.7301C13.1404 97.5047 12.1088 97.9809 10.96 97.9809V101.448V104.914C14.083 104.914 16.9069 103.604 18.8995 101.511L16.3887 99.1204ZM10.96 101.448L10.9601 97.9809C8.73628 97.9808 6.93353 96.1781 6.93345 93.9542L3.4668 93.9544L0.000147343 93.9545C0.00037694 100.007 4.90709 104.914 10.9598 104.914L10.96 101.448ZM3.4668 93.9544H6.93345C6.93345 91.7301 8.73664 89.927 10.9601 89.9269L10.96 86.4602L10.9598 82.9936C4.90654 82.9938 0.000147343 87.9018 0.000147343 93.9544H3.4668ZM10.96 86.4602V89.9269C11.7193 89.9269 12.4203 90.134 13.0205 90.4927L14.7988 87.5169L16.5771 84.5411C14.932 83.558 13.0065 82.9936 10.96 82.9936V86.4602ZM14.7988 87.5169L18.0326 88.7659C19.2855 85.5222 22.4329 83.2307 26.1065 83.2306L26.1064 79.7639L26.1064 76.2973C19.4732 76.2974 13.8157 80.4406 11.565 86.2679L14.7988 87.5169ZM26.1064 79.7639V83.2306C26.589 83.2306 27.0619 83.2704 27.5225 83.346L28.084 79.9251L28.6455 76.5042C27.8191 76.3686 26.9707 76.2973 26.1064 76.2973V79.7639ZM28.084 79.9251L31.378 81.0053C32.9548 76.197 37.0889 72.5446 42.16 71.6484L41.5566 68.2346L40.9533 64.8209C33.3347 66.1674 27.1534 71.6375 24.7899 78.8449L28.084 79.9251ZM41.5566 68.2346L45.0221 68.143C44.9122 63.9915 45.227 58.8879 46.2131 53.5753L42.8047 52.9427L39.3963 52.31C38.3179 58.1195 37.969 63.7094 38.0912 68.3263L41.5566 68.2346ZM42.8047 52.9427L42.4227 49.4971C38.3759 49.9458 30.614 47.5948 23.9826 40.6907L21.4824 43.0921L18.9822 45.4935C26.6868 53.515 36.461 57.1339 43.1867 56.3882L42.8047 52.9427ZM21.4824 43.0921L23.9826 40.6907C19.8331 36.3704 17.0338 31.1887 15.6521 26.6952C14.961 24.4476 14.658 22.4802 14.6642 20.9617C14.6709 19.3468 15.02 18.6822 15.1225 18.5524L12.4014 16.4046L9.68027 14.2567C8.18912 16.1458 7.74048 18.6439 7.731 20.9329C7.72112 23.3184 8.1835 25.9963 9.025 28.733C10.7085 34.2081 14.0433 40.3512 18.9822 45.4934L21.4824 43.0921ZM12.4014 16.4046L9.35786 18.0643C13.2471 25.1962 21.594 37.0634 35.9315 46.8132L37.8809 43.9466L39.8302 41.0799C26.599 32.0824 18.9329 21.141 15.4449 14.7448L12.4014 16.4046ZM37.8809 43.9466H41.3475V43.9456H37.8809H34.4142V43.9466H37.8809ZM37.8809 43.9456L39.8302 41.079C26.599 32.0814 18.9329 21.14 15.4449 14.7439L12.4014 16.4036L9.35786 18.0633C13.2471 25.1952 21.594 37.0625 35.9315 46.8122L37.8809 43.9456ZM12.4014 16.4036L15.1224 18.5515C15.1255 18.5476 15.1263 18.5471 15.1241 18.5493L12.7227 16.0491L10.3213 13.5489C10.0925 13.7686 9.87836 14.0048 9.6803 14.2557L12.4014 16.4036Z" fill="black" mask="url(#path-1-outside-1_750_9649)"/>
<mask id="path-3-outside-2_750_9649" maskUnits="userSpaceOnUse" x="6.3999" y="2.58008" width="90" height="99" fill="black">
<rect fill="white" x="6.3999" y="2.58008" width="90" height="99"/>
<path fill-rule="evenodd" clip-rule="evenodd" d="M19.6558 9.11649C23.359 5.56039 36.8978 8.06266 46.2729 17.8235C50.3016 22.0179 52.9027 26.8711 54.269 31.3235C59.8703 19.1317 70.2452 9.24669 88.3638 10.4915C88.4327 10.5183 88.4967 10.5639 88.5552 10.6272C86.5061 17.5292 76.9398 33.0363 54.0161 44.0013C54.015 44.0028 54.0143 44.0046 54.0132 44.0061C76.9397 33.041 86.5061 17.5313 88.5552 10.6292C90.9285 13.2018 84.4617 45.137 55.52 47.0042C54.9395 50.9848 54.5091 56.6192 54.2339 61.2425C54.2538 61.2456 54.2735 61.25 54.2935 61.2532C54.3519 61.2625 54.4101 61.2726 54.4683 61.2825C54.6312 61.3102 54.7933 61.3401 54.9546 61.3723C55.0057 61.3825 55.0569 61.392 55.1079 61.4026C55.3166 61.4462 55.5241 61.4932 55.73 61.5442C55.7394 61.5466 55.7489 61.5487 55.7583 61.5511C55.955 61.6002 56.1502 61.6535 56.3442 61.7093C56.3952 61.7239 56.4458 61.74 56.4966 61.7552C56.6468 61.7999 56.7963 61.8462 56.9448 61.8948C57.0025 61.9137 57.0603 61.932 57.1177 61.9514C57.5066 62.0833 57.8891 62.2289 58.2651 62.387C58.3247 62.412 58.3836 62.4384 58.4429 62.4641C58.5762 62.522 58.7088 62.5808 58.8403 62.6419C58.8966 62.668 58.9533 62.6933 59.0093 62.72C59.3791 62.8965 59.7414 63.0861 60.0962 63.2874C60.1489 63.3173 60.2011 63.3478 60.2534 63.3782C60.3805 63.4521 60.5063 63.5278 60.6313 63.6048C60.6831 63.6367 60.7352 63.6681 60.7866 63.7005C60.9531 63.8054 61.1181 63.9124 61.2808 64.0227C61.308 64.0412 61.3347 64.0607 61.3618 64.0794C61.5018 64.1755 61.6399 64.2742 61.7769 64.3743C61.8291 64.4125 61.8813 64.4508 61.9331 64.4895C62.0601 64.5845 62.1858 64.6812 62.3101 64.7796C62.3459 64.8079 62.3819 64.8359 62.4175 64.8645C62.5723 64.989 62.7251 65.1158 62.8755 65.2454C62.9045 65.2704 62.9326 65.2964 62.9614 65.3216C63.0863 65.4306 63.2099 65.541 63.3315 65.6536C63.3856 65.7036 63.4392 65.7542 63.4927 65.805C63.5815 65.8893 63.6693 65.9747 63.7563 66.0608C63.8175 66.1214 63.8787 66.182 63.939 66.2434C64.213 66.5227 64.4771 66.8115 64.7319 67.1087C64.7733 67.1569 64.8142 67.2055 64.855 67.2542C64.9503 67.3678 65.0438 67.4828 65.1362 67.5989C65.1723 67.6442 65.209 67.689 65.2446 67.7346C65.3616 67.8847 65.4772 68.0358 65.5894 68.1897L65.5874 68.1888C66.6538 69.652 67.4983 71.2881 68.0688 73.0471C68.807 72.9067 69.5691 72.8323 70.3481 72.8323C75.4449 72.8325 79.8064 75.9799 81.5962 80.4368C82.6596 79.8577 83.8793 79.5286 85.1753 79.5286C89.3137 79.5287 92.6685 82.8842 92.6685 87.0227C92.6683 91.1611 89.3137 94.5158 85.1753 94.5159C83.1317 94.5159 81.2791 93.6979 79.9272 92.3714C77.7107 95.2283 74.244 97.0665 70.3481 97.0667C66.6847 97.0667 63.4001 95.4407 61.1782 92.8714C58.4189 94.7155 55.1026 95.7912 51.5347 95.7913C48.5282 95.7913 45.7004 95.0265 43.2339 93.6829L43.2349 93.6858C43.2187 93.677 43.2031 93.6673 43.187 93.6585C43.0528 93.5848 42.9206 93.508 42.7886 93.4309C42.7363 93.4004 42.6833 93.3712 42.6313 93.3401C42.6236 93.3355 42.6157 93.3311 42.6079 93.3264L42.0923 93.0052C42.023 93.0829 41.9526 93.1597 41.8813 93.2356C39.6706 95.5937 36.527 97.0667 33.0396 97.0667C29.1856 97.0666 25.752 95.2675 23.5327 92.4632C23.4611 92.3727 23.3908 92.2813 23.3218 92.1888C23.2365 92.2783 23.1486 92.3652 23.0591 92.4505C21.7148 93.7302 19.8956 94.5159 17.8931 94.5159C13.7548 94.5157 10.4001 91.161 10.3999 87.0227C10.3999 82.8843 13.7547 79.5288 17.8931 79.5286C19.296 79.5286 20.6093 79.9143 21.7319 80.5852C23.4837 76.0498 27.8861 72.8324 33.0396 72.8323C33.5447 72.8323 34.0428 72.8641 34.5317 72.9241C34.6945 72.9441 34.8564 72.9671 35.0171 72.9934C35.0883 72.7764 35.1642 72.5611 35.2437 72.3479C37.3076 66.8064 42.118 62.602 48.02 61.3899C48.1757 61.358 48.3326 61.3308 48.4897 61.303C48.3737 56.9188 48.7056 51.572 49.7378 46.011C44.3515 46.6081 35.5834 43.6222 28.4155 36.1595C19.3274 26.6971 16.1476 13.511 19.3345 9.47293C23.0233 16.2371 31.0302 27.6413 44.8149 37.0149V37.013C31.0302 27.6392 23.0232 16.2351 19.3345 9.47098C19.435 9.34358 19.5425 9.22526 19.6558 9.11649Z"/>
</mask>
<path d="M19.6558 9.11649L17.2547 6.61602L17.2544 6.61629L19.6558 9.11649ZM46.2729 17.8235L48.7731 15.4221L48.7731 15.4221L46.2729 17.8235ZM54.269 31.3235L50.9549 32.3405L53.6228 41.034L57.4191 32.7708L54.269 31.3235ZM88.3638 10.4915L89.6216 7.26107L89.1289 7.06923L88.6014 7.03299L88.3638 10.4915ZM88.5552 10.6272L91.8785 11.6139L92.4393 9.72472L91.103 8.2764L88.5552 10.6272ZM54.0161 44.0013L52.5202 40.8739L51.7654 41.235L51.2584 41.9007L54.0161 44.0013ZM54.0132 44.0061L51.2581 41.902L55.5089 47.1335L54.0132 44.0061ZM88.5552 10.6292L91.1032 8.27855L86.9676 3.7958L85.2319 9.6426L88.5552 10.6292ZM55.52 47.0042L55.2968 43.5447L52.4948 43.7255L52.0897 46.5039L55.52 47.0042ZM54.2339 61.2425L50.7734 61.0365L50.5861 64.1821L53.6997 64.6677L54.2339 61.2425ZM54.2935 61.2532L53.7473 64.6766V64.6766L54.2935 61.2532ZM54.4683 61.2825L55.0494 57.8649V57.8649L54.4683 61.2825ZM54.9546 61.3723L54.276 64.7719H54.276L54.9546 61.3723ZM55.1079 61.4026L55.8172 58.0093V58.0093L55.1079 61.4026ZM55.73 61.5442L54.8958 64.909H54.8958L55.73 61.5442ZM55.7583 61.5511L56.5981 58.1877L56.5981 58.1877L55.7583 61.5511ZM56.3442 61.7093L55.3866 65.041H55.3866L56.3442 61.7093ZM56.4966 61.7552L57.485 58.4324L57.485 58.4324L56.4966 61.7552ZM56.9448 61.8948L55.8663 65.1894H55.8663L56.9448 61.8948ZM57.1177 61.9514L58.2309 58.6684H58.2309L57.1177 61.9514ZM58.2651 62.387L56.9214 65.5826H56.9214L58.2651 62.387ZM58.4429 62.4641L59.8224 59.2838L59.8224 59.2838L58.4429 62.4641ZM58.8403 62.6419L57.3811 65.7865H57.3811L58.8403 62.6419ZM59.0093 62.72L60.5022 59.5913H60.5022L59.0093 62.72ZM60.0962 63.2874L58.3857 66.3027V66.3027L60.0962 63.2874ZM60.2534 63.3782L61.9954 60.381L61.9954 60.381L60.2534 63.3782ZM60.6313 63.6048L58.8139 66.5568H58.8139L60.6313 63.6048ZM60.7866 63.7005L62.6349 60.7676H62.6349L60.7866 63.7005ZM61.2808 64.0227L59.3341 66.8912H59.3341L61.2808 64.0227ZM61.3618 64.0794L63.3247 61.222L63.3247 61.222L61.3618 64.0794ZM61.7769 64.3743L59.7313 67.1731L59.7313 67.1731L61.7769 64.3743ZM61.9331 64.4895L64.0097 61.7136L64.0097 61.7136L61.9331 64.4895ZM62.3101 64.7796L60.1586 67.4978V67.4978L62.3101 64.7796ZM62.4175 64.8645L64.5902 62.1632L64.5902 62.1632L62.4175 64.8645ZM62.8755 65.2454L60.612 67.8711V67.8711L62.8755 65.2454ZM62.9614 65.3216L65.2422 62.7108V62.7108L62.9614 65.3216ZM63.3315 65.6536L60.9775 68.1984V68.1984L63.3315 65.6536ZM63.4927 65.805L65.8787 63.2901V63.2901L63.4927 65.805ZM63.7563 66.0608L66.1947 63.5967V63.5967L63.7563 66.0608ZM63.939 66.2434L61.4645 68.6713V68.6713L63.939 66.2434ZM64.7319 67.1087L67.3638 64.8523V64.8523L64.7319 67.1087ZM64.855 67.2542L62.1987 69.4817L62.1987 69.4817L64.855 67.2542ZM65.1362 67.5989L67.8484 65.4398H67.8484L65.1362 67.5989ZM65.2446 67.7346L62.5111 69.8667V69.8667L65.2446 67.7346ZM65.5894 68.1897L64.039 71.2904L68.3912 66.1483L65.5894 68.1897ZM65.5874 68.1888L67.1377 65.0881L62.7858 70.2305L65.5874 68.1888ZM68.0688 73.0471L64.7713 74.1166L65.7143 77.0241L68.7169 76.4527L68.0688 73.0471ZM70.3481 72.8323L70.3483 69.3657H70.3481V72.8323ZM81.5962 80.4368L78.3792 81.7286L79.8315 85.3451L83.2541 83.4813L81.5962 80.4368ZM85.1753 79.5286L85.1754 76.0619H85.1753V79.5286ZM92.6685 87.0227L96.1351 87.0229V87.0227H92.6685ZM85.1753 94.5159V97.9826H85.1754L85.1753 94.5159ZM79.9272 92.3714L82.3552 89.897L79.5755 87.1694L77.1883 90.2463L79.9272 92.3714ZM70.3481 97.0667V100.533H70.3483L70.3481 97.0667ZM61.1782 92.8714L63.8004 90.6038L61.7976 88.2878L59.2519 89.9892L61.1782 92.8714ZM51.5347 95.7913V99.2579H51.5347L51.5347 95.7913ZM43.2339 93.6829L44.8922 90.6386L37.1612 86.4273L39.9451 94.7791L43.2339 93.6829ZM43.2349 93.6858L41.577 96.7303L49.307 100.94L46.5236 92.5896L43.2349 93.6858ZM43.187 93.6585L41.5194 96.6977L41.5195 96.6977L43.187 93.6585ZM42.7886 93.4309L44.5359 90.4369L44.5359 90.4369L42.7886 93.4309ZM42.6313 93.3401L40.8528 96.3158L40.8528 96.3158L42.6313 93.3401ZM42.6079 93.3264L40.7746 96.2687L40.7995 96.2842L40.8247 96.2993L42.6079 93.3264ZM42.0923 93.0052L43.9256 90.0629L41.4461 88.518L39.5033 90.6997L42.0923 93.0052ZM41.8813 93.2356L44.4104 95.6066L41.8813 93.2356ZM33.0396 97.0667L33.0395 100.533H33.0396V97.0667ZM23.5327 92.4632L26.2511 90.3119L23.5327 92.4632ZM23.3218 92.1888L26.1003 90.1157L23.6436 86.8231L20.811 89.7984L23.3218 92.1888ZM23.0591 92.4505L20.6688 89.9396L23.0591 92.4505ZM17.8931 94.5159L17.8929 97.9826H17.8931V94.5159ZM10.3999 87.0227H6.93325V87.0229L10.3999 87.0227ZM17.8931 79.5286V76.0619H17.8929L17.8931 79.5286ZM21.7319 80.5852L19.9536 83.561L23.484 85.6707L24.9658 81.8343L21.7319 80.5852ZM33.0396 72.8323V69.3657H33.0395L33.0396 72.8323ZM34.5317 72.9241L34.1092 76.3649L34.5317 72.9241ZM35.0171 72.9934L34.4556 76.4143L37.3859 76.8953L38.3111 74.0737L35.0171 72.9934ZM35.2437 72.3479L31.995 71.138L35.2437 72.3479ZM48.02 61.3899L48.7174 64.7857L48.02 61.3899ZM48.4897 61.303L49.0931 64.7168L52.0342 64.197L51.9552 61.2113L48.4897 61.303ZM49.7378 46.011L53.1462 46.6437L53.9987 42.0508L49.3558 42.5655L49.7378 46.011ZM28.4155 36.1595L25.9153 38.5608L25.9153 38.5609L28.4155 36.1595ZM19.3345 9.47293L22.378 7.81318L19.865 3.20504L16.6132 7.32528L19.3345 9.47293ZM44.8149 37.0149L42.8656 39.8816L48.2816 43.5645V37.0149H44.8149ZM44.8149 37.013H48.2816V35.1781L46.7643 34.1463L44.8149 37.013ZM19.3345 9.47098L16.6134 7.32308L15.1947 9.12041L16.291 11.1307L19.3345 9.47098ZM19.6558 9.11649L22.0569 11.6169C22.124 11.5524 22.6904 11.1565 24.2605 11.0649C25.7299 10.9792 27.6722 11.1918 29.9053 11.8151C34.3672 13.0606 39.5422 15.8203 43.7728 20.2249L46.2729 17.8235L48.7731 15.4221C43.6285 10.0659 37.3466 6.69396 31.7694 5.13714C28.9831 4.35935 26.2603 4.00312 23.8567 4.14335C21.5538 4.2777 19.0391 4.90248 17.2547 6.61602L19.6558 9.11649ZM46.2729 17.8235L43.7728 20.2249C47.4 24.0014 49.7367 28.3706 50.9549 32.3405L54.269 31.3235L57.5832 30.3065C56.0687 25.3716 53.2031 20.0344 48.7731 15.4221L46.2729 17.8235ZM54.269 31.3235L57.4191 32.7708C60.0375 27.0715 63.6804 22.1142 68.5926 18.7211C73.4557 15.362 79.7879 13.3771 88.1262 13.95L88.3638 10.4915L88.6014 7.03299C78.821 6.36105 70.9065 8.69632 64.6522 13.0164C58.447 17.3026 54.1018 23.3837 51.1189 29.8763L54.269 31.3235ZM88.3638 10.4915L87.106 13.7219C86.6038 13.5264 86.2434 13.2339 86.0074 12.9781L88.5552 10.6272L91.103 8.2764C90.75 7.89384 90.2616 7.51028 89.6216 7.26107L88.3638 10.4915ZM88.5552 10.6272L85.2319 9.64059C83.5001 15.4736 74.6887 30.2703 52.5202 40.8739L54.0161 44.0013L55.512 47.1286C79.1909 35.8024 89.512 19.5847 91.8785 11.6139L88.5552 10.6272ZM54.0161 44.0013L51.2584 41.9007C51.2 41.9773 51.1514 42.0477 51.1122 42.1078C51.0731 42.1677 51.0415 42.2202 51.0179 42.2608C51.006 42.2814 50.9956 42.2997 50.987 42.3152C50.9784 42.3306 50.9712 42.3439 50.9656 42.3541C50.9601 42.3643 50.9557 42.3726 50.953 42.3776C50.9517 42.3802 50.9506 42.3823 50.9499 42.3835C50.9496 42.3842 50.9493 42.3847 50.9491 42.385C50.949 42.3852 50.949 42.3853 50.9489 42.3854C50.9489 42.3854 50.9489 42.3855 50.9489 42.3855C50.9489 42.3855 50.9488 42.3855 50.9488 42.3855C50.9488 42.3855 50.9488 42.3855 50.9488 42.3855C50.9485 42.3862 50.9505 42.3824 50.9529 42.3778C50.9556 42.3729 50.9599 42.3647 50.9654 42.3545C50.9709 42.3443 50.9782 42.3311 50.9867 42.3157C50.9953 42.3003 51.0057 42.282 51.0176 42.2616C51.0412 42.221 51.0727 42.1687 51.1119 42.1088C51.1511 42.0488 51.1997 41.9786 51.2581 41.902L54.0132 44.0061L56.7682 46.1102C56.827 46.0333 56.8758 45.9627 56.9153 45.9023C56.9547 45.842 56.9865 45.7893 57.0103 45.7483C57.0224 45.7277 57.0328 45.7092 57.0415 45.6936C57.0502 45.678 57.0576 45.6646 57.0632 45.6541C57.0688 45.6438 57.0733 45.6354 57.076 45.6302C57.0774 45.6276 57.0786 45.6254 57.0793 45.6241C57.0796 45.6234 57.0799 45.6228 57.0801 45.6225C57.0803 45.6221 57.0805 45.6219 57.0805 45.6219C57.0809 45.621 57.0789 45.6248 57.0766 45.6291C57.0741 45.6339 57.0698 45.642 57.0644 45.652C57.0589 45.6621 57.0518 45.6751 57.0433 45.6903C57.0348 45.7056 57.0246 45.7237 57.0128 45.744C56.9894 45.7843 56.958 45.8363 56.9192 45.8959C56.8802 45.9556 56.832 46.0256 56.7739 46.1018L54.0161 44.0013ZM54.0132 44.0061L55.5089 47.1335C79.191 35.807 89.5122 19.5867 91.8785 11.6158L88.5552 10.6292L85.2319 9.6426C83.5001 15.4759 74.6885 30.2749 52.5174 40.8788L54.0132 44.0061ZM88.5552 10.6292L86.0072 12.9798C85.506 12.4365 85.4601 11.9538 85.4953 12.128C85.509 12.1956 85.5399 12.4183 85.5376 12.835C85.533 13.6568 85.4028 14.8776 85.0748 16.4097C84.4218 19.4595 83.0572 23.4075 80.7797 27.3458C76.2487 35.1812 68.3049 42.7055 55.2968 43.5447L55.52 47.0042L55.7432 50.4636C71.6768 49.4357 81.4373 40.0588 86.7818 30.8166C89.4421 26.2162 91.058 21.5813 91.8544 17.8613C92.2511 16.0086 92.4629 14.2978 92.4708 12.8734C92.4747 12.1671 92.4294 11.438 92.2912 10.7542C92.1745 10.1771 91.901 9.14341 91.1032 8.27855L88.5552 10.6292ZM55.52 47.0042L52.0897 46.5039C51.4862 50.6416 51.0492 56.4022 50.7734 61.0365L54.2339 61.2425L57.6944 61.4484C57.9689 56.8361 58.3928 51.3281 58.9504 47.5044L55.52 47.0042ZM54.2339 61.2425L53.6997 64.6677C53.6668 64.6626 53.6412 64.658 53.6272 64.6555C53.62 64.6542 53.6147 64.6532 53.6121 64.6527C53.6099 64.6523 53.6086 64.652 53.6111 64.6525C53.6123 64.6527 53.6181 64.6538 53.624 64.6549C53.6305 64.6562 53.6399 64.658 53.651 64.66C53.6729 64.664 53.7065 64.6701 53.7473 64.6766L54.2935 61.2532L54.8396 57.8298C54.8704 57.8348 54.8942 57.8391 54.9061 57.8412C54.9162 57.8431 54.9248 57.8448 54.9163 57.8431C54.9124 57.8424 54.8929 57.8386 54.8704 57.8345C54.8465 57.8302 54.8109 57.8239 54.7681 57.8172L54.2339 61.2425ZM54.2935 61.2532L53.7473 64.6766C53.7828 64.6822 53.8144 64.6877 53.8871 64.7001L54.4683 61.2825L55.0494 57.8649C55.0058 57.8575 54.9209 57.8428 54.8396 57.8298L54.2935 61.2532ZM54.4683 61.2825L53.8871 64.7001C54.0177 64.7223 54.1473 64.7462 54.276 64.7719L54.9546 61.3723L55.6332 57.9728C55.4392 57.934 55.2446 57.8981 55.0494 57.8649L54.4683 61.2825ZM54.9546 61.3723L54.276 64.7719C54.2971 64.7761 54.3164 64.7799 54.3319 64.7829C54.3397 64.7844 54.3472 64.7859 54.3535 64.7871C54.3603 64.7884 54.3657 64.7895 54.371 64.7905C54.3934 64.7948 54.3987 64.7959 54.3986 64.7959L55.1079 61.4026L55.8172 58.0093C55.7661 57.9986 55.7204 57.9897 55.6916 57.9841C55.6558 57.9772 55.6466 57.9754 55.6332 57.9728L54.9546 61.3723ZM55.1079 61.4026L54.3986 64.7959C54.5705 64.8318 54.736 64.8694 54.8958 64.909L55.73 61.5442L56.5641 58.1794C56.3122 58.117 56.0628 58.0606 55.8172 58.0093L55.1079 61.4026ZM55.73 61.5442L54.8958 64.909C54.9092 64.9123 54.9205 64.9151 54.928 64.9169C54.9349 64.9185 54.9415 64.9201 54.9425 64.9203C54.9451 64.9209 54.9427 64.9204 54.9393 64.9196C54.9356 64.9187 54.9281 64.9168 54.9185 64.9144L55.7583 61.5511L56.5981 58.1877C56.5838 58.1841 56.5716 58.1811 56.5631 58.1791C56.555 58.1771 56.548 58.1755 56.5457 58.1749C56.542 58.1741 56.5439 58.1745 56.5461 58.175C56.5489 58.1757 56.5555 58.1773 56.5641 58.1794L55.73 61.5442ZM55.7583 61.5511L54.9185 64.9144C55.0667 64.9515 55.2215 64.9936 55.3866 65.041L56.3442 61.7093L57.3019 58.3775C57.0789 58.3134 56.8434 58.2489 56.5981 58.1877L55.7583 61.5511ZM56.3442 61.7093L55.3866 65.041C55.3823 65.0398 55.3843 65.0403 55.407 65.0472C55.4136 65.0493 55.4341 65.0555 55.4474 65.0596C55.4639 65.0646 55.4849 65.071 55.5082 65.0779L56.4966 61.7552L57.485 58.4324C57.476 58.4297 57.4699 58.4278 57.434 58.4169C57.406 58.4083 57.3571 58.3934 57.3019 58.3775L56.3442 61.7093ZM56.4966 61.7552L55.5082 65.0779C55.6332 65.1151 55.7522 65.1521 55.8663 65.1894L56.9448 61.8948L58.0233 58.6002C57.8404 58.5403 57.6604 58.4846 57.485 58.4324L56.4966 61.7552ZM56.9448 61.8948L55.8663 65.1894C55.9683 65.2228 55.9682 65.2222 56.0045 65.2345L57.1177 61.9514L58.2309 58.6684C58.1524 58.6418 58.0366 58.6045 58.0233 58.6002L56.9448 61.8948ZM57.1177 61.9514L56.0045 65.2345C56.3133 65.3392 56.619 65.4555 56.9214 65.5826L58.2651 62.387L59.6089 59.1914C59.1593 59.0023 58.6998 58.8274 58.2309 58.6684L57.1177 61.9514ZM58.2651 62.387L56.9214 65.5826C56.9609 65.5992 56.9495 65.5951 57.0633 65.6445L58.4429 62.4641L59.8224 59.2838C59.8178 59.2818 59.6885 59.2249 59.6089 59.1914L58.2651 62.387ZM58.4429 62.4641L57.0633 65.6445C57.1793 65.6948 57.2839 65.7413 57.3811 65.7865L58.8403 62.6419L60.2995 59.4973C60.1337 59.4203 59.973 59.3491 59.8224 59.2838L58.4429 62.4641ZM58.8403 62.6419L57.3811 65.7865C57.5078 65.8452 57.4743 65.8286 57.5163 65.8487L59.0093 62.72L60.5022 59.5913C60.4494 59.5661 60.4015 59.5441 60.3694 59.5293C60.3299 59.5112 60.3179 59.5058 60.2995 59.4973L58.8403 62.6419ZM59.0093 62.72L57.5163 65.8487C57.8091 65.9884 58.0989 66.14 58.3857 66.3027L60.0962 63.2874L61.8067 60.2721C61.3838 60.0322 60.949 59.8045 60.5022 59.5913L59.0093 62.72ZM60.0962 63.2874L58.3857 66.3027C58.418 66.321 58.4485 66.3388 58.5115 66.3754L60.2534 63.3782L61.9954 60.381C61.9537 60.3568 61.8797 60.3135 61.8067 60.2721L60.0962 63.2874ZM60.2534 63.3782L58.5115 66.3754C58.6082 66.4316 58.7084 66.4918 58.8139 66.5568L60.6313 63.6048L62.4488 60.6527C62.3043 60.5638 62.1528 60.4725 61.9954 60.381L60.2534 63.3782ZM60.6313 63.6048L58.8139 66.5568C58.9022 66.6112 58.9062 66.613 58.9383 66.6333L60.7866 63.7005L62.6349 60.7676C62.5642 60.7231 62.4641 60.6621 62.4488 60.6527L60.6313 63.6048ZM60.7866 63.7005L58.9383 66.6333C59.0803 66.7227 59.2114 66.8079 59.3341 66.8912L61.2808 64.0227L63.2274 61.1542C63.0249 61.0168 62.826 60.888 62.6349 60.7676L60.7866 63.7005ZM61.2808 64.0227L59.3341 66.8912C59.3243 66.8846 59.3176 66.8799 59.3156 66.8785C59.314 66.8774 59.3142 66.8775 59.3203 66.8818C59.3242 66.8846 59.3363 66.8932 59.348 66.9013C59.3607 66.9103 59.3784 66.9226 59.3989 66.9368L61.3618 64.0794L63.3247 61.222C63.3317 61.2268 63.3359 61.2297 63.3351 61.2292C63.3332 61.2279 63.3319 61.227 63.3224 61.2202C63.3095 61.2111 63.2715 61.1842 63.2274 61.1542L61.2808 64.0227ZM61.3618 64.0794L59.3989 66.9368C59.5043 67.0091 59.614 67.0874 59.7313 67.1731L61.7769 64.3743L63.8224 61.5755C63.6658 61.461 63.4993 61.3419 63.3247 61.222L61.3618 64.0794ZM61.7769 64.3743L59.7313 67.1731C59.7813 67.2097 59.8208 67.2387 59.8566 67.2654L61.9331 64.4895L64.0097 61.7136C63.9418 61.6629 63.8769 61.6153 63.8224 61.5755L61.7769 64.3743ZM61.9331 64.4895L59.8565 67.2654C59.9587 67.3419 60.0594 67.4193 60.1586 67.4978L62.3101 64.7796L64.4615 62.0613C64.3121 61.9431 64.1615 61.8272 64.0097 61.7136L61.9331 64.4895ZM62.3101 64.7796L60.1586 67.4978C60.2295 67.5539 60.2205 67.5463 60.2448 67.5658L62.4175 64.8645L64.5902 62.1632C64.5433 62.1255 64.4622 62.0619 64.4615 62.0613L62.3101 64.7796ZM62.4175 64.8645L60.2448 67.5658C60.3729 67.6689 60.4951 67.7703 60.612 67.8711L62.8755 65.2454L65.139 62.6197C64.9551 62.4612 64.7716 62.3092 64.5902 62.1632L62.4175 64.8645ZM62.8755 65.2454L60.612 67.8711C60.6043 67.8644 60.5993 67.86 60.5985 67.8593C60.598 67.8589 60.5992 67.8599 60.6055 67.8656C60.6098 67.8694 60.6218 67.8802 60.6328 67.89C60.645 67.9009 60.6616 67.9156 60.6807 67.9323L62.9614 65.3216L65.2422 62.7108C65.2469 62.715 65.2491 62.717 65.247 62.7151C65.2438 62.7122 65.2415 62.7102 65.2315 62.7012C65.2172 62.6884 65.1811 62.656 65.139 62.6197L62.8755 65.2454ZM62.9614 65.3216L60.6807 67.9323C60.7866 68.0248 60.885 68.1128 60.9775 68.1984L63.3315 65.6536L65.6856 63.1088C65.5348 62.9693 65.386 62.8365 65.2422 62.7108L62.9614 65.3216ZM63.3315 65.6536L60.9775 68.1984C61.0151 68.2332 61.0559 68.2716 61.1066 68.3198L63.4927 65.805L65.8787 63.2901C65.8226 63.2368 65.7562 63.1741 65.6856 63.1088L63.3315 65.6536ZM63.4927 65.805L61.1066 68.3198C61.1744 68.3841 61.2444 68.4522 61.318 68.525L63.7563 66.0608L66.1947 63.5967C66.0942 63.4972 65.9887 63.3944 65.8787 63.2901L63.4927 65.805ZM63.7563 66.0608L61.318 68.525C61.3798 68.5861 61.4242 68.6303 61.4645 68.6713L63.939 66.2434L66.4135 63.8156C66.3331 63.7337 66.2553 63.6566 66.1947 63.5967L63.7563 66.0608ZM63.939 66.2434L61.4645 68.6713C61.6819 68.8929 61.8937 69.1243 62.1001 69.365L64.7319 67.1087L67.3638 64.8523C67.0606 64.4987 66.744 64.1525 66.4135 63.8156L63.939 66.2434ZM64.7319 67.1087L62.1001 69.365C62.1284 69.398 62.159 69.4343 62.1987 69.4817L64.855 67.2542L67.5113 65.0267C67.4693 64.9767 67.4182 64.9158 67.3638 64.8523L64.7319 67.1087ZM64.855 67.2542L62.1987 69.4817C62.2719 69.569 62.3466 69.6607 62.4241 69.758L65.1362 67.5989L67.8484 65.4398C67.741 65.3049 67.6287 65.1667 67.5113 65.0267L64.855 67.2542ZM65.1362 67.5989L62.4241 69.758C62.5084 69.8639 62.4832 69.8309 62.5111 69.8667L65.2446 67.7346L67.9781 65.6026C67.9441 65.559 67.913 65.5202 67.8925 65.4946C67.8671 65.4631 67.8596 65.4538 67.8484 65.4398L65.1362 67.5989ZM65.2446 67.7346L62.5111 69.8667C62.6155 70.0005 62.7059 70.1192 62.7875 70.2312L65.5894 68.1897L68.3912 66.1483C68.2485 65.9525 68.1078 65.7688 67.9781 65.6026L65.2446 67.7346ZM65.5894 68.1897L67.1397 65.0891L67.1377 65.0881L65.5874 68.1888L64.0371 71.2894L64.039 71.2904L65.5894 68.1897ZM65.5874 68.1888L62.7858 70.2305C63.641 71.404 64.316 72.7129 64.7713 74.1166L68.0688 73.0471L71.3664 71.9777C70.6806 69.8633 69.6666 67.9 68.389 66.147L65.5874 68.1888ZM68.0688 73.0471L68.7169 76.4527C69.245 76.3522 69.7902 76.299 70.3481 76.299V72.8323V69.3657C69.3481 69.3657 68.3689 69.4612 67.4208 69.6416L68.0688 73.0471ZM70.3481 72.8323L70.348 76.299C73.9809 76.2991 77.0989 78.5403 78.3792 81.7286L81.5962 80.4368L84.8131 79.145C82.514 73.4196 76.909 69.3659 70.3483 69.3657L70.3481 72.8323ZM81.5962 80.4368L83.2541 83.4813C83.8215 83.1723 84.4728 82.9952 85.1753 82.9952V79.5286V76.0619C83.2857 76.0619 81.4976 76.5431 79.9383 77.3923L81.5962 80.4368ZM85.1753 79.5286L85.1752 82.9952C87.3986 82.9953 89.2018 84.7983 89.2018 87.0227H92.6685H96.1351C96.1351 80.9702 91.2289 76.062 85.1754 76.0619L85.1753 79.5286ZM92.6685 87.0227L89.2018 87.0226C89.2017 89.2466 87.399 91.0492 85.1752 91.0492L85.1753 94.5159L85.1754 97.9826C91.2283 97.9824 96.1349 93.0756 96.1351 87.0229L92.6685 87.0227ZM85.1753 94.5159V91.0492C84.0759 91.0492 83.0852 90.6133 82.3552 89.897L79.9272 92.3714L77.4993 94.8458C79.473 96.7824 82.1875 97.9826 85.1753 97.9826V94.5159ZM79.9272 92.3714L77.1883 90.2463C75.6003 92.293 73.1278 93.5999 70.348 93.6L70.3481 97.0667L70.3483 100.533C75.3602 100.533 79.8211 98.1635 82.6662 94.4964L79.9272 92.3714ZM70.3481 97.0667V93.6C67.7334 93.6 65.3918 92.444 63.8004 90.6038L61.1782 92.8714L58.5561 95.1389C61.4085 98.4374 65.6361 100.533 70.3481 100.533V97.0667ZM61.1782 92.8714L59.2519 89.9892C57.0447 91.4643 54.3953 92.3246 51.5346 92.3246L51.5347 95.7913L51.5347 99.2579C55.8098 99.2578 59.7932 97.9667 63.1045 95.7536L61.1782 92.8714ZM51.5347 95.7913V92.3246C49.1231 92.3246 46.8638 91.7126 44.8922 90.6386L43.2339 93.6829L41.5756 96.7272C44.5371 98.3404 47.9333 99.2579 51.5347 99.2579V95.7913ZM43.2339 93.6829L39.9451 94.7791L39.9461 94.7821L43.2349 93.6858L46.5236 92.5896L46.5226 92.5866L43.2339 93.6829ZM43.2349 93.6858L44.8927 90.6413C44.9177 90.6549 44.937 90.6659 44.9475 90.6719C44.9529 90.675 44.9569 90.6773 44.9587 90.6784C44.9603 90.6793 44.9612 90.6798 44.9592 90.6787C44.9582 90.6781 44.9537 90.6754 44.9492 90.6728C44.9442 90.6699 44.937 90.6657 44.9285 90.6608C44.9117 90.6511 44.8859 90.6364 44.8545 90.6192L43.187 93.6585L41.5195 96.6977C41.4962 96.6849 41.4784 96.6748 41.4696 96.6697C41.4621 96.6654 41.4559 96.6617 41.4626 96.6657C41.4658 96.6675 41.4808 96.6763 41.4982 96.6863C41.5166 96.6968 41.5439 96.7123 41.577 96.7303L43.2349 93.6858ZM43.187 93.6585L44.8546 90.6193C44.7654 90.5703 44.6695 90.5148 44.5359 90.4369L42.7886 93.4309L41.0412 96.425C41.1717 96.5012 41.3402 96.5994 41.5194 96.6977L43.187 93.6585ZM42.7886 93.4309L44.5359 90.4369C44.5113 90.4225 44.4891 90.4098 44.4717 90.3998C44.4572 90.3915 44.4365 90.3797 44.4293 90.3755C44.4055 90.362 44.4045 90.3613 44.4099 90.3645L42.6313 93.3401L40.8528 96.3158C40.9101 96.35 40.9616 96.3794 40.9904 96.3959C41.0276 96.4172 41.0332 96.4203 41.0412 96.425L42.7886 93.4309ZM42.6313 93.3401L44.4099 90.3645C44.3917 90.3536 44.3766 90.3448 44.3668 90.3391C44.3618 90.3362 44.3576 90.3338 44.3548 90.3321C44.3522 90.3306 44.3497 90.3292 44.3492 90.3289C44.3482 90.3283 44.3489 90.3288 44.3501 90.3294C44.3514 90.3302 44.354 90.3317 44.3574 90.3337C44.364 90.3375 44.376 90.3445 44.3911 90.3536L42.6079 93.3264L40.8247 96.2993C40.8437 96.3107 40.8596 96.32 40.8701 96.3261C40.8801 96.3319 40.8887 96.3369 40.89 96.3376C40.8915 96.3385 40.891 96.3382 40.8903 96.3378C40.8895 96.3373 40.8872 96.336 40.8842 96.3343C40.8784 96.3309 40.8671 96.3243 40.8528 96.3158L42.6313 93.3401ZM42.6079 93.3264L44.4412 90.3842L43.9256 90.0629L42.0923 93.0052L40.259 95.9474L40.7746 96.2687L42.6079 93.3264ZM42.0923 93.0052L39.5033 90.6997C39.4574 90.7513 39.4074 90.8058 39.3523 90.8646L41.8813 93.2356L44.4104 95.6066C44.4977 95.5135 44.5886 95.4146 44.6812 95.3106L42.0923 93.0052ZM41.8813 93.2356L39.3523 90.8646C37.7698 92.5527 35.5298 93.6 33.0396 93.6V97.0667V100.533C37.5242 100.533 41.5714 98.6348 44.4104 95.6066L41.8813 93.2356ZM33.0396 97.0667L33.0396 93.6C30.2899 93.6 27.8411 92.3211 26.2511 90.3119L23.5327 92.4632L20.8143 94.6144C23.6629 98.2139 28.0814 100.533 33.0395 100.533L33.0396 97.0667ZM23.5327 92.4632L26.2511 90.3119C26.1994 90.2466 26.1491 90.1812 26.1003 90.1157L23.3218 92.1888L20.5433 94.2618C20.6325 94.3813 20.7229 94.4989 20.8143 94.6144L23.5327 92.4632ZM23.3218 92.1888L20.811 89.7984C20.7733 89.8381 20.727 89.8842 20.6688 89.9396L23.0591 92.4505L25.4493 94.9613C25.5702 94.8462 25.6998 94.7185 25.8326 94.5791L23.3218 92.1888ZM23.0591 92.4505L20.6688 89.9396C19.9431 90.6305 18.9705 91.0492 17.8931 91.0492V94.5159V97.9826C20.8207 97.9826 23.4864 96.8299 25.4493 94.9613L23.0591 92.4505ZM17.8931 94.5159L17.8932 91.0492C15.6694 91.0492 13.8666 89.2464 13.8666 87.0226L10.3999 87.0227L6.93325 87.0229C6.93348 93.0757 11.8402 97.9823 17.8929 97.9826L17.8931 94.5159ZM10.3999 87.0227H13.8666C13.8666 84.7984 15.6697 82.9953 17.8932 82.9952L17.8931 79.5286L17.8929 76.0619C11.8396 76.0622 6.93325 80.9702 6.93325 87.0227H10.3999ZM17.8931 79.5286V82.9952C18.6524 82.9952 19.3534 83.2023 19.9536 83.561L21.7319 80.5852L23.5102 77.6095C21.8651 76.6263 19.9396 76.0619 17.8931 76.0619V79.5286ZM21.7319 80.5852L24.9658 81.8343C26.2186 78.5906 29.366 76.299 33.0396 76.299L33.0396 72.8323L33.0395 69.3657C26.4063 69.3658 20.7488 73.5089 18.4981 79.3362L21.7319 80.5852ZM33.0396 72.8323V76.299C33.3993 76.299 33.7563 76.3216 34.1092 76.3649L34.5317 72.9241L34.9542 69.4833C34.3293 69.4066 33.6901 69.3657 33.0396 69.3657V72.8323ZM34.5317 72.9241L34.1092 76.3649C34.2292 76.3796 34.3445 76.3961 34.4556 76.4143L35.0171 72.9934L35.5786 69.5726C35.3682 69.538 35.1599 69.5086 34.9542 69.4833L34.5317 72.9241ZM35.0171 72.9934L38.3111 74.0737C38.3663 73.9056 38.4267 73.7339 38.4923 73.5579L35.2437 72.3479L31.995 71.138C31.9018 71.3884 31.8103 71.6472 31.723 71.9132L35.0171 72.9934ZM35.2437 72.3479L38.4923 73.5579C40.145 69.1205 44.0016 65.7541 48.7174 64.7857L48.02 61.3899L47.3227 57.9941C40.2343 59.4498 34.4702 64.4923 31.995 71.138L35.2437 72.3479ZM48.02 61.3899L48.7174 64.7857C48.8149 64.7657 48.9157 64.7481 49.0931 64.7168L48.4897 61.303L47.8864 57.8893C47.7495 57.9135 47.5365 57.9502 47.3227 57.9941L48.02 61.3899ZM48.4897 61.303L51.9552 61.2113C51.8453 57.0599 52.1601 51.9562 53.1462 46.6437L49.7378 46.011L46.3294 45.3784C45.251 51.1878 44.9021 56.7777 45.0243 61.3947L48.4897 61.303ZM49.7378 46.011L49.3558 42.5655C45.3093 43.0141 37.5472 40.6623 30.9157 33.7581L28.4155 36.1595L25.9153 38.5609C33.6196 46.5821 43.3938 50.2022 50.1198 49.4566L49.7378 46.011ZM28.4155 36.1595L30.9158 33.7581C26.7664 29.4379 23.9671 24.2564 22.5854 19.7632C21.8943 17.5157 21.5912 15.5484 21.5975 14.0299C21.6042 12.4151 21.9532 11.7505 22.0557 11.6206L19.3345 9.47293L16.6132 7.32528C15.1223 9.21442 14.6737 11.7123 14.6643 14.0013C14.6544 16.3867 15.1168 19.0645 15.9583 21.801C17.6419 27.276 20.9766 33.4187 25.9153 38.5608L28.4155 36.1595ZM19.3345 9.47293L16.291 11.1327C20.1804 18.2648 28.5278 30.1319 42.8656 39.8816L44.8149 37.0149L46.7643 34.1483C33.5326 25.1507 25.8662 14.2095 22.378 7.81318L19.3345 9.47293ZM44.8149 37.0149H48.2816V37.013H44.8149H41.3483V37.0149H44.8149ZM44.8149 37.013L46.7643 34.1463C33.5326 25.1487 25.866 14.2074 22.378 7.81124L19.3345 9.47098L16.291 11.1307C20.1803 18.2628 28.5278 30.1298 42.8656 39.8796L44.8149 37.013ZM19.3345 9.47098L22.0555 11.6189C22.0586 11.615 22.0594 11.6145 22.0572 11.6167L19.6558 9.11649L17.2544 6.61629C17.0256 6.83601 16.8115 7.07218 16.6134 7.32308L19.3345 9.47098Z" fill="white" mask="url(#path-3-outside-2_750_9649)"/>
<path d="M54.6978 42.8008C54.4129 43.4791 54.0479 44.0413 53.6069 44.4649C49.904 48.0214 37.7916 45.9197 28.4162 36.1586C19.3276 26.6961 16.1474 13.5092 19.3347 9.4713C23.8298 17.714 34.7358 32.8489 54.6978 42.8008Z" fill="#60B31F"/>
<path fill-rule="evenodd" clip-rule="evenodd" d="M54.6982 42.8033C34.7362 32.8514 23.8302 17.7166 19.3351 9.47383C19.4357 9.34641 19.5426 9.22811 19.6559 9.11932C23.3587 5.56282 36.8979 8.06496 46.2733 17.8261C54.532 26.4245 56.8048 37.7873 54.6982 42.8033Z" fill="#6ECD24"/>
<path opacity="0.1" d="M50.0982 22.8904C55.8222 31.7056 56.4615 41.4517 53.3759 44.4154C51.7358 45.9907 48.4457 46.4559 44.4744 45.6371C44.1593 42.0685 44.4091 38.0477 45.4725 33.8499C46.495 29.8134 48.1507 26.0836 50.0982 22.8904Z" fill="black"/>
<path fill-rule="evenodd" clip-rule="evenodd" d="M48.5051 61.8304C48.3462 57.3287 48.6663 51.7411 49.7533 45.9235C75.7688 34.9287 86.3838 17.9431 88.5554 10.6279C90.9287 13.2005 84.462 45.1356 55.5203 47.0028C54.6274 53.1252 54.0853 63.159 53.9259 67.4106L48.5051 61.8304Z" fill="#83C249"/>
<path fill-rule="evenodd" clip-rule="evenodd" d="M88.5555 10.6256C86.3839 17.9408 75.769 34.9264 49.7534 45.9212C53.0295 28.3878 63.2719 8.76591 88.3641 10.4898C88.4331 10.5166 88.497 10.5622 88.5555 10.6256Z" fill="#94DB53"/>
<path d="M35.0175 72.992C34.3739 72.8864 33.7133 72.8314 33.0397 72.8314C27.8862 72.8314 23.484 76.0488 21.7323 80.5844C20.6095 79.9134 19.2965 79.5277 17.8934 79.5277C13.7549 79.5277 10.3999 82.8827 10.3999 87.0212C10.3999 91.1597 13.7549 94.5147 17.8934 94.5147C20.0293 94.5147 21.9565 93.621 23.3215 92.1872C25.5307 95.1483 29.0613 97.0656 33.0397 97.0656C36.6395 97.0656 39.8726 95.4959 42.092 93.0036C44.8106 94.7664 48.0529 95.7901 51.5343 95.7901C55.1024 95.7901 58.4193 94.7148 61.1787 92.8706C63.4006 95.4399 66.6843 97.0656 70.3477 97.0656C74.2437 97.0656 77.7103 95.2269 79.9269 92.3698C81.2788 93.6965 83.1314 94.5147 85.1752 94.5147C89.3137 94.5147 92.6686 91.1597 92.6686 87.0212C92.6686 82.8827 89.3137 79.5277 85.1752 79.5277C83.8791 79.5277 82.6599 79.8568 81.5965 80.4358C79.8068 75.9786 75.4448 72.8314 70.3477 72.8314C69.5685 72.8314 68.8066 72.905 68.0684 73.0455C65.8073 66.0738 59.2595 61.0332 51.5343 61.0332C43.8289 61.0332 37.2947 66.0481 35.0175 72.992Z" fill="#CA7405"/>
<path opacity="0.1" d="M42.6059 88.6155C42.6059 90.3647 42.8242 92.0628 43.2352 93.6842C42.8448 93.4717 42.4635 93.2446 42.092 93.0036C39.8726 95.4959 36.6395 97.0656 33.0397 97.0656C29.0613 97.0656 25.5307 95.1483 23.3215 92.1872C21.9565 93.621 20.0293 94.5147 17.8934 94.5147C13.7549 94.5147 10.3999 91.1597 10.3999 87.0212C10.3999 82.8827 13.7549 79.5277 17.8934 79.5277C19.2965 79.5277 20.6095 79.9134 21.7323 80.5844C23.484 76.0488 27.8862 72.8314 33.0397 72.8314C33.7133 72.8314 34.3739 72.8864 35.0175 72.992C37.2947 66.0481 43.8289 61.0332 51.5343 61.0332C57.311 61.0332 62.4295 63.8518 65.5894 68.1888C64.7968 68.0961 63.9905 68.0484 63.1731 68.0484C51.8141 68.0484 42.6059 77.2566 42.6059 88.6155Z" fill="black"/>
</svg>
