<svg width="20" height="20" viewBox="0 0 20 20" fill="none" xmlns="http://www.w3.org/2000/svg">
<path d="M7.54578 17.3763C7.96184 17.8985 8.57283 18.2365 9.24352 18.3154C9.91422 18.3944 10.5893 18.2077 11.1194 17.7968C11.2824 17.6753 11.4291 17.534 11.556 17.3763M2.50069 11.4891V11.3066C2.52746 10.7667 2.7005 10.2436 3.00196 9.79117C3.50375 9.24772 3.84725 8.58176 3.99643 7.86315C3.99643 7.30775 3.99643 6.74442 4.04494 6.18903C4.29558 3.51518 6.9394 1.6665 9.55088 1.6665H9.61556C12.227 1.6665 14.8709 3.51518 15.1296 6.18903C15.1781 6.74442 15.1296 7.30775 15.17 7.86315C15.3212 8.58342 15.6644 9.25146 16.1645 9.79911C16.4682 10.2475 16.6415 10.7687 16.6658 11.3066V11.4812C16.6838 12.2065 16.434 12.9139 15.9624 13.4727C15.3391 14.1261 14.4934 14.5326 13.5853 14.6152C10.9225 14.9008 8.23586 14.9008 5.57302 14.6152C4.66595 14.529 3.82146 14.1231 3.19601 13.4727C2.73167 12.9134 2.4852 12.2103 2.50069 11.4891Z" stroke="#100F0E" stroke-width="1.25" stroke-linecap="round" stroke-linejoin="round"/>
</svg>
