<svg width="110" height="111" viewBox="0 0 110 111" fill="none" xmlns="http://www.w3.org/2000/svg">
<mask id="path-1-outside-1_750_9631" maskUnits="userSpaceOnUse" x="-0.392578" y="21.251" width="90" height="90" fill="black">
<rect fill="white" x="-0.392578" y="21.251" width="90" height="90"/>
<path fill-rule="evenodd" clip-rule="evenodd" d="M30.2563 44.8261C41.5479 33.3213 58.1701 24.5367 78.9975 25.2968C82.3629 25.4198 85.1447 27.9747 85.5307 31.3203C88.0023 52.7433 78.9129 69.4195 67.0561 80.8701C68.7119 87.4053 69.0713 102.281 54.9555 107.048C54.8616 107.079 54.7608 107.01 54.7582 106.911C54.6123 100.974 51.0769 96.0887 48.7817 93.8242C42.5978 96.9219 36.7862 98.6769 32.4184 99.0292L13.4682 79.4921C13.4682 74.7204 14.8128 69.1437 17.392 63.416C15.3731 61.2024 10.1503 57.1739 3.75335 57.0908C3.65423 57.0893 3.58404 56.9888 3.61468 56.8945C8.3436 42.336 23.92 42.9321 30.1703 44.624C30.2601 44.6483 30.2964 44.7458 30.2563 44.8261Z"/>
</mask>
<path fill-rule="evenodd" clip-rule="evenodd" d="M30.2563 44.8261C41.5479 33.3213 58.1701 24.5367 78.9975 25.2968C82.3629 25.4198 85.1447 27.9747 85.5307 31.3203C88.0023 52.7433 78.9129 69.4195 67.0561 80.8701C68.7119 87.4053 69.0713 102.281 54.9555 107.048C54.8616 107.079 54.7608 107.01 54.7582 106.911C54.6123 100.974 51.0769 96.0887 48.7817 93.8242C42.5978 96.9219 36.7862 98.6769 32.4184 99.0292L13.4682 79.4921C13.4682 74.7204 14.8128 69.1437 17.392 63.416C15.3731 61.2024 10.1503 57.1739 3.75335 57.0908C3.65423 57.0893 3.58404 56.9888 3.61468 56.8945C8.3436 42.336 23.92 42.9321 30.1703 44.624C30.2601 44.6483 30.2964 44.7458 30.2563 44.8261Z" fill="black"/>
<path d="M30.2563 44.8261L27.0293 43.2137L32.8308 47.3529L30.2563 44.8261ZM78.9975 25.2968L79.1292 21.6919L79.1291 21.6919L78.9975 25.2968ZM85.5307 31.3203L89.1143 30.9068L89.1143 30.9068L85.5307 31.3203ZM67.0561 80.8701L64.5501 78.2752L63.0455 79.7283L63.5592 81.7561L67.0561 80.8701ZM54.9555 107.048L56.1034 110.468L56.1096 110.466L54.9555 107.048ZM54.7582 106.911L51.152 107L51.1521 107.005L54.7582 106.911ZM48.7817 93.8242L51.3152 91.2563L49.4761 89.4417L47.166 90.5989L48.7817 93.8242ZM32.4184 99.0292L29.829 101.541L31.0132 102.762L32.7084 102.625L32.4184 99.0292ZM13.4682 79.4921L9.86085 79.4921L9.86083 80.9542L10.8788 82.0037L13.4682 79.4921ZM17.392 63.416L20.6813 64.8971L21.6544 62.7361L20.0573 60.9851L17.392 63.416ZM3.75335 57.0908L3.70055 60.6977L3.70647 60.6978L3.75335 57.0908ZM3.61468 56.8945L0.183792 55.78L0.18379 55.78L3.61468 56.8945ZM30.1703 44.624L31.1129 41.1419L31.1129 41.1419L30.1703 44.624ZM30.2563 44.8261L32.8308 47.3529C43.5249 36.4569 59.2025 28.1841 78.8659 28.9018L78.9975 25.2968L79.1291 21.6919C57.1377 20.8893 39.571 30.1856 27.6818 42.2993L30.2563 44.8261ZM78.9975 25.2968L78.8658 28.9018C80.4627 28.9601 81.7668 30.171 81.9471 31.7337L85.5307 31.3203L89.1143 30.9068C88.5226 25.7784 84.2632 21.8795 79.1292 21.6919L78.9975 25.2968ZM85.5307 31.3203L81.9471 31.7337C84.2606 51.786 75.8034 67.4075 64.5501 78.2752L67.0561 80.8701L69.562 83.4649C82.0224 71.4314 91.7441 53.7006 89.1143 30.9068L85.5307 31.3203ZM67.0561 80.8701L63.5592 81.7561C64.2755 84.5832 64.7002 89.2655 63.4519 93.6303C62.2555 97.8134 59.5601 101.686 53.8014 103.63L54.9555 107.048L56.1096 110.466C64.4667 107.644 68.6495 101.694 70.3884 95.6141C72.0754 89.7155 71.4925 83.6922 70.5529 79.9841L67.0561 80.8701ZM54.9555 107.048L53.8076 103.628C55.9684 102.903 58.3027 104.444 58.3644 106.817L54.7582 106.911L51.1521 107.005C51.2189 109.577 53.7548 111.256 56.1034 110.468L54.9555 107.048ZM54.7582 106.911L58.3645 106.822C58.1866 99.5842 53.9582 93.8639 51.3152 91.2563L48.7817 93.8242L46.2481 96.392C48.1956 98.3135 51.038 102.363 51.152 107L54.7582 106.911ZM48.7817 93.8242L47.166 90.5989C41.246 93.5644 35.8924 95.1299 32.1283 95.4336L32.4184 99.0292L32.7084 102.625C37.6799 102.224 43.9496 100.279 50.3973 97.0495L48.7817 93.8242ZM32.4184 99.0292L35.0078 96.5177L16.0576 76.9805L13.4682 79.4921L10.8788 82.0037L29.829 101.541L32.4184 99.0292ZM13.4682 79.4921L17.0755 79.4922C17.0756 75.3561 18.2535 70.2885 20.6813 64.8971L17.392 63.416L14.1028 61.9348C11.3722 67.9989 9.86091 74.0848 9.86085 79.4921L13.4682 79.4921ZM17.392 63.416L20.0573 60.9851C17.6736 58.3715 11.5747 53.5848 3.80023 53.4837L3.75335 57.0908L3.70647 60.6978C8.72594 60.763 13.0726 64.0332 14.7267 65.8468L17.392 63.416ZM3.75335 57.0908L3.80615 53.4838C6.19849 53.5188 7.74549 55.8541 7.04557 58.0089L3.61468 56.8945L0.18379 55.78C-0.577413 58.1235 1.10997 60.6598 3.70055 60.6977L3.75335 57.0908ZM3.61468 56.8945L7.04557 58.0089C8.97159 52.0795 12.9693 49.3376 17.2853 48.1417C21.7903 46.8934 26.5722 47.3872 29.2278 48.106L30.1703 44.624L31.1129 41.1419C27.5182 40.1689 21.3867 39.5187 15.3587 41.189C9.14167 42.9117 2.98669 47.151 0.183792 55.78L3.61468 56.8945ZM30.1703 44.624L29.2277 48.106C26.8711 47.468 26.1684 44.9367 27.0293 43.2137L30.2563 44.8261L33.4832 46.4385C34.4244 44.5549 33.6491 41.8285 31.1129 41.1419L30.1703 44.624Z" fill="black" mask="url(#path-1-outside-1_750_9631)"/>
<mask id="path-3-outside-2_750_9631" maskUnits="userSpaceOnUse" x="7.49414" y="14.0391" width="90" height="89" fill="black">
<rect fill="white" x="7.49414" y="14.0391" width="90" height="89"/>
<path fill-rule="evenodd" clip-rule="evenodd" d="M37.4737 37.6109C49.5369 25.3218 67.6826 16.1372 90.5392 18.3766C91.3157 18.4526 91.9643 19.0524 92.1046 19.8199C96.4002 43.3152 86.9073 61.455 74.2706 73.6588C75.8402 79.8501 76.2473 93.5346 64.2735 99.0084C63.1651 99.5151 61.9583 98.6577 61.7569 97.4557C60.934 92.5423 57.9918 88.5825 55.9933 86.6119C50.1925 89.5175 44.7201 91.2439 40.4591 91.7369C39.9243 91.7987 39.415 91.5941 39.0401 91.2076L21.1915 72.8063C20.8651 72.4698 20.6796 72.0297 20.6925 71.5611C20.8196 66.953 22.1553 61.6474 24.6056 56.2057C22.8281 54.2575 18.5712 50.905 13.2169 50.0719C12.0129 49.8843 11.1411 48.6879 11.6349 47.5738C17.1232 35.1907 31.4546 35.81 37.3859 37.4156C37.4729 37.4394 37.5087 37.532 37.4737 37.6109Z"/>
</mask>
<path d="M37.4737 37.6109L33.9772 36.0637L40.2024 40.2894L37.4737 37.6109ZM90.5392 18.3766L90.912 14.5712L90.912 14.5712L90.5392 18.3766ZM92.1046 19.8199L95.8658 19.1323V19.1323L92.1046 19.8199ZM74.2706 73.6588L71.6145 70.9084L70.0194 72.4489L70.5643 74.5984L74.2706 73.6588ZM64.2735 99.0084L65.8632 102.486L65.8632 102.486L64.2735 99.0084ZM61.7569 97.4557L65.528 96.8241L65.528 96.8241L61.7569 97.4557ZM55.9933 86.6119L58.6778 83.8892L56.7285 81.9673L54.2809 83.1932L55.9933 86.6119ZM40.4591 91.7369L40.8977 95.5352L40.8985 95.5351L40.4591 91.7369ZM39.0401 91.2076L41.7848 88.5455L41.7847 88.5455L39.0401 91.2076ZM21.1915 72.8063L18.4469 75.4683L18.4469 75.4684L21.1915 72.8063ZM20.6925 71.5611L16.8704 71.4557L16.8704 71.456L20.6925 71.5611ZM24.6056 56.2057L28.092 57.7755L29.1235 55.4846L27.4301 53.6286L24.6056 56.2057ZM13.2169 50.0719L12.6282 53.8498L12.629 53.85L13.2169 50.0719ZM11.6349 47.5738L8.13927 46.0245L8.13926 46.0246L11.6349 47.5738ZM37.3859 37.4156L38.3948 33.7276L38.385 33.7249L37.3859 37.4156ZM37.4737 37.6109L40.2024 40.2894C51.5829 28.6957 68.6306 20.072 90.1664 22.1819L90.5392 18.3766L90.912 14.5712C66.7347 12.2025 47.4909 21.948 34.7451 34.9325L37.4737 37.6109ZM90.5392 18.3766L90.1663 22.1819C89.2348 22.0906 88.5084 21.4099 88.3434 20.5076L92.1046 19.8199L95.8658 19.1323C95.4202 16.6949 93.3965 14.8147 90.912 14.5712L90.5392 18.3766ZM92.1046 19.8199L88.3434 20.5076C92.3576 42.4636 83.5568 59.3752 71.6145 70.9084L74.2706 73.6588L76.9268 76.4092C90.2578 63.5347 100.443 44.1669 95.8658 19.1323L92.1046 19.8199ZM74.2706 73.6588L70.5643 74.5984C71.2338 77.2393 71.6534 81.5562 70.6377 85.6904C69.6537 89.6957 67.386 93.3814 62.6838 95.531L64.2735 99.0084L65.8632 102.486C73.1348 99.1616 76.6505 93.2682 78.064 87.5149C79.4457 81.8906 78.877 76.2696 77.9769 72.7192L74.2706 73.6588ZM64.2735 99.0084L62.6839 95.531C63.4686 95.1722 64.2688 95.3497 64.7527 95.663C65.1866 95.9438 65.4508 96.3635 65.528 96.8241L61.7569 97.4557L57.9859 98.0872C58.2644 99.7498 59.2327 101.199 60.5974 102.083C62.0123 102.998 63.97 103.351 65.8632 102.486L64.2735 99.0084ZM61.7569 97.4557L65.528 96.8241C64.5295 90.8622 61.0335 86.212 58.6778 83.8892L55.9933 86.6119L53.3088 89.3346C54.9501 90.953 57.3386 94.2224 57.9859 98.0873L61.7569 97.4557ZM55.9933 86.6119L54.2809 83.1932C48.7524 85.9624 43.7157 87.5111 40.0197 87.9387L40.4591 91.7369L40.8985 95.5351C45.7244 94.9768 51.6325 93.0726 57.7057 90.0306L55.9933 86.6119ZM40.4591 91.7369L40.0205 87.9386C40.7807 87.8508 41.4168 88.1661 41.7848 88.5455L39.0401 91.2076L36.2955 93.8697C37.4132 95.022 39.0679 95.7466 40.8977 95.5352L40.4591 91.7369ZM39.0401 91.2076L41.7847 88.5455L23.9361 70.1441L21.1915 72.8063L18.4469 75.4684L36.2956 93.8698L39.0401 91.2076ZM21.1915 72.8063L23.9361 70.1442C24.2701 70.4885 24.5322 71.0259 24.5146 71.6663L20.6925 71.5611L16.8704 71.456C16.827 73.0336 17.4602 74.451 18.4469 75.4683L21.1915 72.8063ZM20.6925 71.5611L24.5146 71.6666C24.6246 67.6787 25.7964 62.8738 28.092 57.7755L24.6056 56.2057L21.1191 54.6358C18.5143 60.421 17.0146 66.2272 16.8704 71.4557L20.6925 71.5611ZM24.6056 56.2057L27.4301 53.6286C25.2702 51.2612 20.278 47.301 13.8048 46.2938L13.2169 50.0719L12.629 53.85C16.8644 54.509 20.386 57.2538 21.781 58.7828L24.6056 56.2057ZM13.2169 50.0719L13.8056 46.2939C14.2663 46.3657 14.6885 46.6245 14.9742 47.0548C15.2932 47.535 15.4804 48.3335 15.1305 49.1231L11.6349 47.5738L8.13926 46.0246C7.29555 47.9282 7.67183 49.882 8.60422 51.2858C9.50345 52.6396 10.9635 53.5904 12.6282 53.8498L13.2169 50.0719ZM11.6349 47.5738L15.1305 49.1231C17.2827 44.2673 21.093 41.9531 25.2295 40.9686C29.4996 39.9524 33.9064 40.4349 36.3868 41.1063L37.3859 37.4156L38.385 33.7249C34.9341 32.7907 29.2095 32.1608 23.4591 33.5293C17.575 34.9296 11.4754 38.4973 8.13927 46.0245L11.6349 47.5738ZM37.3859 37.4156L36.3769 41.1037C33.9275 40.4336 33.1875 37.8485 33.9772 36.0637L37.4737 37.6109L40.9703 39.1581C41.8299 37.2156 41.0183 34.4453 38.3948 33.7276L37.3859 37.4156Z" fill="white" mask="url(#path-3-outside-2_750_9631)"/>
<path d="M11.6352 47.5734C17.1235 35.1902 31.4541 35.8089 37.3853 37.4145C37.4819 37.4407 37.5179 37.5525 37.4619 37.6354L24.9029 56.2575C24.8488 56.3377 24.7349 56.3464 24.6703 56.2744C22.9325 54.3377 18.6366 50.9147 13.2171 50.0715C12.0129 49.8841 11.1413 48.6876 11.6352 47.5734Z" fill="#FB4F41"/>
<path d="M64.2723 99.0085C76.5912 93.3772 75.8066 79.0547 74.1324 73.1425C74.1052 73.0462 73.993 73.0115 73.9107 73.0684L55.4352 85.8422C55.3557 85.8972 55.3482 86.0112 55.4209 86.075C57.3776 87.7902 60.8501 92.0462 61.7561 97.4555C61.9574 98.6575 63.1639 99.5152 64.2723 99.0085Z" fill="#FB4F41"/>
<path d="M86.2117 18.0836C89.5773 18.2064 92.359 20.7614 92.745 24.107C97.6465 66.5871 57.0955 90.4083 39.6325 91.8166L20.6831 72.2796C20.6831 51.8312 45.356 16.5925 86.2117 18.0836Z" fill="#FFE5DC"/>
<circle cx="63.8699" cy="47.8962" r="11.0906" fill="#A8A8A8"/>
<circle cx="63.944" cy="47.8873" r="8.96059" fill="#ACEAFF"/>
<circle cx="61.5467" cy="46.4984" r="3.82356" fill="white"/>
<path d="M50.7853 88.9474C46.5929 90.6018 42.7459 91.5652 39.6327 91.8163L20.6832 72.2793C20.6832 68.638 21.4656 64.5277 22.9824 60.2393L50.7853 88.9474Z" fill="#FB4F41"/>
<path fill-rule="evenodd" clip-rule="evenodd" d="M90.6927 47.6127L64.7719 20.848C72.5 18.4705 81.1255 17.4526 90.5521 18.3779C91.3286 18.4541 91.961 19.0352 92.1015 19.8027C93.9908 30.1217 93.2208 39.4081 90.6927 47.6127Z" fill="#FB4F41"/>
<path opacity="0.2" d="M91.8534 18.5149C101.181 64.493 57.8472 90.3465 39.6323 91.8155L26.6526 78.4333C48.0354 77.5246 87.6999 60.6067 90.3191 18.3529C90.8282 18.4012 91.3396 18.4552 91.8534 18.5149Z" fill="black"/>
</svg>
