<svg width="104" height="104" viewBox="0 0 104 104" fill="none" xmlns="http://www.w3.org/2000/svg">
<ellipse opacity="0.1" cx="52" cy="100.88" rx="52" ry="3.12" fill="#7C7B91"/>
<path fill-rule="evenodd" clip-rule="evenodd" d="M74.4913 17.0164C75.3872 15.7969 77.1021 15.5345 78.3216 16.4304C79.5411 17.3263 79.8035 19.0412 78.9076 20.2608L75.5705 24.8034C74.6745 26.0229 72.9596 26.2852 71.7401 25.3893C70.5206 24.4934 70.2582 22.7785 71.1541 21.559L74.4913 17.0164ZM77.0902 18.1067C76.7964 17.8909 76.3833 17.9541 76.1675 18.2479L72.8304 22.7904C72.6146 23.0842 72.6778 23.4973 72.9716 23.713C73.2653 23.9288 73.6784 23.8656 73.8942 23.5719L77.2313 19.0293C77.4471 18.7356 77.3839 18.3225 77.0902 18.1067ZM25.0803 43.9318C25.0803 30.6109 35.879 19.8122 49.1999 19.8122C62.5208 19.8122 73.3195 30.6109 73.3195 43.9318C73.3195 57.2527 62.5208 68.0514 49.1999 68.0514C35.879 68.0514 25.0803 57.2527 25.0803 43.9318ZM49.1999 17.7322C34.7303 17.7322 23.0003 29.4622 23.0003 43.9318C23.0003 58.4014 34.7303 70.1314 49.1999 70.1314C53.9566 70.1314 58.4172 68.8637 62.2624 66.6479L65.663 70.0485C65.5659 71.4937 66.0696 72.9718 67.1743 74.0765L77.6675 84.5697C79.6982 86.6004 82.9907 86.6004 85.0214 84.5697L87.284 82.3071C89.3147 80.2764 89.3147 76.9839 87.284 74.9532L76.7908 64.46C75.6859 63.355 74.2074 62.8513 72.7618 62.9488L69.8592 60.0461C73.3308 55.6018 75.3995 50.0084 75.3995 43.9318C75.3995 29.4622 63.6695 17.7322 49.1999 17.7322ZM70.5074 63.6358L68.5103 61.6387C67.1802 63.0885 65.689 64.388 64.065 65.5089L66.3498 67.7937C66.5718 67.4108 66.8466 67.0503 67.1743 66.7225L69.4369 64.46C69.7644 64.1324 70.1248 63.8577 70.5074 63.6358ZM61.2247 40.783C61.7384 40.5261 61.9466 39.9014 61.6898 39.3877C61.4329 38.8739 60.8082 38.6657 60.2944 38.9226L52.1346 43.0025C51.7822 43.1787 51.5597 43.5388 51.5597 43.9327C51.5597 44.3266 51.7822 44.6867 52.1346 44.8629L60.2944 48.9428C60.8082 49.1997 61.4329 48.9915 61.6898 48.4777C61.9466 47.964 61.7384 47.3393 61.2247 47.0824L54.9252 43.9327L61.2247 40.783ZM36.709 39.3877C36.4521 39.9014 36.6604 40.5261 37.1741 40.783L43.4736 43.9327L37.1741 47.0824C36.6604 47.3393 36.4521 47.964 36.709 48.4777C36.9659 48.9915 37.5906 49.1997 38.1043 48.9428L46.2642 44.8629C46.6165 44.6867 46.8391 44.3266 46.8391 43.9327C46.8391 43.5388 46.6165 43.1787 46.2642 43.0025L38.1043 38.9226C37.5906 38.6657 36.9659 38.8739 36.709 39.3877ZM31.8799 43.9315C31.8799 34.3661 39.6342 26.6118 49.1996 26.6118C58.765 26.6118 66.5193 34.3661 66.5193 43.9315C66.5193 53.4969 58.765 61.2512 49.1996 61.2512C39.6342 61.2512 31.8799 53.4969 31.8799 43.9315ZM49.1996 24.5318C38.4855 24.5318 29.7999 33.2174 29.7999 43.9315C29.7999 54.6457 38.4855 63.3312 49.1996 63.3312C59.9138 63.3312 68.5993 54.6457 68.5993 43.9315C68.5993 33.2174 59.9138 24.5318 49.1996 24.5318ZM86.0413 27.0893C85.5813 25.6477 84.0397 24.852 82.5981 25.312L77.2282 27.0255C75.7866 27.4855 74.9908 29.0271 75.4509 30.4687C75.9109 31.9104 77.4525 32.7061 78.8941 32.2461L84.264 30.5326C85.7056 30.0725 86.5013 28.531 86.0413 27.0893ZM83.2304 27.2935C83.5776 27.1827 83.9489 27.3744 84.0597 27.7216C84.1706 28.0689 83.9789 28.4402 83.6316 28.551L78.2618 30.2645C77.9146 30.3753 77.5432 30.1837 77.4324 29.8364C77.3216 29.4892 77.5133 29.1179 77.8605 29.007L83.2304 27.2935ZM15.9063 59.4097C14.4534 59.833 13.6189 61.354 14.0423 62.8068C14.4656 64.2596 15.9865 65.0941 17.4394 64.6708L22.8509 63.0939C24.3037 62.6705 25.1383 61.1496 24.7149 59.6968C24.2916 58.2439 22.7706 57.4094 21.3178 57.8327L15.9063 59.4097ZM16.0392 62.2249C15.9372 61.8749 16.1382 61.5086 16.4882 61.4066L21.8997 59.8297C22.2496 59.7277 22.616 59.9287 22.718 60.2787C22.8199 60.6286 22.6189 60.9949 22.269 61.0969L16.8574 62.6738C16.5075 62.7758 16.1412 62.5748 16.0392 62.2249ZM21.4078 73.7143C20.2114 72.7878 19.9926 71.0668 20.9191 69.8703L24.3702 65.4137C25.2967 64.2173 27.0177 63.9985 28.2142 64.925C29.4106 65.8515 29.6294 67.5725 28.7029 68.7689L25.2518 73.2255C24.3253 74.422 22.6043 74.6408 21.4078 73.7143ZM22.5636 71.1438C22.3405 71.432 22.3932 71.8466 22.6814 72.0697C22.9695 72.2929 23.3841 72.2402 23.6072 71.952L27.0584 67.4954C27.2815 67.2072 27.2288 66.7927 26.9407 66.5695C26.6525 66.3464 26.2379 66.3991 26.0148 66.6873L22.5636 71.1438Z" fill="#7C7B91"/>
</svg>
