<svg width="24" height="24" viewBox="0 0 24 24" fill="none" xmlns="http://www.w3.org/2000/svg">
<path d="M12.0001 7.04883C12.2654 7.04883 12.5198 6.94345 12.7074 6.75588C12.8949 6.5683 13.0003 6.3139 13.0003 6.04863C13.0003 5.78336 12.8949 5.52895 12.7074 5.34138C12.5198 5.15381 12.2654 5.04843 12.0001 5.04843C11.7348 5.04843 11.4804 5.15381 11.2929 5.34138C11.1053 5.52895 10.9999 5.78336 10.9999 6.04863C10.9999 6.3139 11.1053 6.5683 11.2929 6.75588C11.4804 6.94345 11.7348 7.04883 12.0001 7.04883ZM19.2001 16.008V9.60003H19.3105C20.3821 9.60003 20.8225 8.22243 19.9465 7.60203L12.9265 2.61963C12.6561 2.42685 12.3322 2.32324 12.0001 2.32324C11.668 2.32324 11.3442 2.42685 11.0737 2.61963L4.05131 7.60203C3.17771 8.22243 3.61571 9.59883 4.68731 9.59883H4.80011V16.0068C4.07891 16.47 3.60011 17.2788 3.60011 18.1992V19.7988C3.60011 19.958 3.66333 20.1106 3.77585 20.2231C3.88837 20.3356 4.04098 20.3988 4.20011 20.3988H19.8001C19.9592 20.3988 20.1119 20.3356 20.2244 20.2231C20.3369 20.1106 20.4001 19.958 20.4001 19.7988V18.1992C20.4001 17.2788 19.9225 16.47 19.2001 16.008ZM11.7673 3.59883C11.8346 3.55048 11.9154 3.52447 11.9983 3.52447C12.0812 3.52447 12.162 3.55048 12.2293 3.59883L18.9961 8.39883H5.00171L11.7673 3.59883ZM17.9977 9.59883V15.606C17.9314 15.6009 17.865 15.5985 17.7985 15.5988H15.5977V9.60003L17.9977 9.59883ZM6.00011 15.606V9.60003H8.40012V15.6H6.19931C6.13211 15.6 6.06531 15.6024 5.99891 15.6072M6.19931 16.8H17.7997C18.5725 16.8 19.1989 17.4264 19.1989 18.2004V19.2H4.80011V18.2004C4.80011 17.4264 5.42651 16.8 6.19931 16.8ZM11.4001 15.6H9.60012V9.60003H11.4001V15.6ZM12.6001 15.6V9.60003H14.4001V15.6H12.6001Z" fill="#3E0C00"/>
</svg>
