<svg width="20" height="20" viewBox="0 0 20 20" fill="none" xmlns="http://www.w3.org/2000/svg">
<path fill-rule="evenodd" clip-rule="evenodd" d="M10 1.55005C7.90417 1.54684 5.88104 2.31805 4.31915 3.71556C2.75727 5.11307 1.76675 7.03834 1.53784 9.12164C1.30892 11.2049 1.85775 13.2994 3.07891 15.0027C4.30008 16.706 6.10748 17.8981 8.154 18.35V13.175H6.762C6.51039 13.1748 6.26916 13.0747 6.09125 12.8968C5.91333 12.7189 5.81326 12.4777 5.813 12.226V10.525C5.81326 10.2734 5.91333 10.0322 6.09125 9.8543C6.26916 9.67638 6.51039 9.57631 6.762 9.57605H8.135L8.088 8.30205V8.28205C8.088 7.40105 8.24 5.75105 9.536 4.82405C9.951 4.52705 10.333 4.33705 10.749 4.22605C11.159 4.11605 11.574 4.09105 12.039 4.09105C12.855 4.09105 13.419 4.17205 13.781 4.22405L13.949 4.24805C14.289 4.29205 14.539 4.58205 14.539 4.92005V6.80305C14.539 6.89555 14.5201 6.98709 14.4836 7.07205C14.447 7.15701 14.3934 7.23361 14.3262 7.29717C14.259 7.36073 14.1795 7.40991 14.0927 7.4417C14.0058 7.47349 13.9134 7.48722 13.821 7.48205H13.82C13.683 7.48805 13.15 7.50905 12.692 7.50905C12.348 7.50905 12.175 7.58805 12.075 7.69405C11.968 7.80905 11.846 8.06205 11.846 8.62905V9.57605H13.369C13.5064 9.57621 13.642 9.60614 13.7667 9.6638C13.8914 9.72146 14.002 9.80546 14.0911 9.91002C14.1802 10.0146 14.2455 10.1372 14.2826 10.2695C14.3197 10.4017 14.3277 10.5404 14.306 10.676L14.048 12.382C14.0109 12.6035 13.8965 12.8047 13.7252 12.9499C13.5538 13.0951 13.3366 13.1748 13.112 13.175H11.846V18.3491C13.8915 17.8961 15.6977 16.7038 16.9179 15.0008C18.1381 13.2978 18.6864 11.2041 18.4576 9.12159C18.2288 7.03909 17.2389 5.11445 15.678 3.71706C14.117 2.31967 12.095 1.54796 10 1.55005ZM0.5 10.05C0.5 7.53049 1.50089 5.11413 3.28249 3.33253C5.06408 1.55094 7.48044 0.550049 10 0.550049C12.5196 0.550049 14.9359 1.55094 16.7175 3.33253C18.4991 5.11413 19.5 7.53049 19.5 10.05C19.5 14.814 15.993 18.759 11.42 19.445C11.3488 19.4557 11.2762 19.4509 11.2071 19.4309C11.138 19.4109 11.074 19.3762 11.0195 19.3292C10.965 19.2822 10.9213 19.224 10.8913 19.1586C10.8614 19.0931 10.8459 19.022 10.846 18.9501V12.675C10.846 12.5424 10.8987 12.4153 10.9924 12.3215C11.0862 12.2277 11.2134 12.175 11.346 12.175H13.068L13.309 10.576H11.346C11.2134 10.576 11.0862 10.5234 10.9924 10.4296C10.8987 10.3358 10.846 10.2087 10.846 10.076V8.63005C10.846 7.95305 10.986 7.39505 11.346 7.01105C11.713 6.61905 12.214 6.51005 12.692 6.51005C12.985 6.51005 13.313 6.50005 13.538 6.49305V5.20005C13.0418 5.12616 12.5407 5.08973 12.039 5.09105C11.605 5.09105 11.291 5.11605 11.007 5.19205C10.73 5.26605 10.456 5.39605 10.117 5.63705C9.26 6.25105 9.088 7.41705 9.087 8.27405L9.154 10.058C9.15642 10.1252 9.14528 10.1922 9.12123 10.2549C9.09719 10.3177 9.06075 10.3749 9.01407 10.4233C8.9674 10.4716 8.91146 10.5101 8.84959 10.5363C8.78773 10.5626 8.7212 10.5761 8.654 10.576H6.814V12.175H8.654C8.78661 12.175 8.91378 12.2277 9.00755 12.3215C9.10132 12.4153 9.154 12.5424 9.154 12.675V18.9501C9.15407 19.022 9.13861 19.0931 9.10868 19.1586C9.07874 19.224 9.03503 19.2822 8.98054 19.3292C8.92604 19.3762 8.86205 19.4109 8.79292 19.4309C8.72379 19.4509 8.65117 19.4557 8.58 19.445C4.007 18.759 0.5 14.815 0.5 10.05Z" fill="#090808"/>
</svg>
