<svg width="24" height="24" viewBox="0 0 24 24" fill="none" xmlns="http://www.w3.org/2000/svg">
<path d="M8.5 18C10.313 16.046 13.667 15.954 15.5 18M13.94 12C13.94 13.105 13.069 14 11.993 14C10.918 14 10.046 13.105 10.046 12C10.046 10.895 10.918 10 11.993 10C13.068 10 13.941 10.895 13.941 12" stroke="#3E0C00" stroke-width="1.5" stroke-linecap="round" stroke-linejoin="round"/>
<path d="M9.5 4.00195C6.856 4.01195 5.441 4.10395 4.525 4.97195C3.5 5.94295 3.5 7.50595 3.5 10.632V15.369C3.5 18.495 3.5 20.059 4.525 21.029C5.55 22.001 7.2 22.001 10.5 22.001H13.5C16.8 22.001 18.45 22.001 19.475 21.03C20.5 20.058 20.5 18.495 20.5 15.37V10.632C20.5 7.50595 20.5 5.94295 19.475 4.97195C18.559 4.10395 17.145 4.01195 14.5 4.00195" stroke="#3E0C00" stroke-width="1.5" stroke-linecap="round" stroke-linejoin="round"/>
<path d="M9.77174 3.632C9.86774 3.217 9.91574 3.009 10.0077 2.84C10.1221 2.63891 10.2777 2.4643 10.4644 2.32763C10.651 2.19095 10.8645 2.09532 11.0907 2.047C11.2937 2 11.5297 2 11.9997 2C12.4697 2 12.7057 2 12.9087 2.047C13.135 2.09532 13.3484 2.19095 13.5351 2.32763C13.7217 2.4643 13.8774 2.63891 13.9917 2.84C14.0837 3.01 14.1317 3.217 14.2277 3.632L14.3107 3.992C14.4807 4.727 14.5657 5.095 14.4377 5.378C14.3505 5.56583 14.2087 5.723 14.0307 5.829C13.7497 6 13.3317 6 12.4977 6H11.5017C10.6677 6 10.2497 6 9.96874 5.83C9.79067 5.72374 9.64881 5.5662 9.56174 5.378C9.43374 5.095 9.51874 4.728 9.68874 3.992L9.77174 3.632Z" stroke="#3E0C00" stroke-width="1.5" stroke-linecap="round" stroke-linejoin="round"/>
</svg>
