<svg width="18" height="20" viewBox="0 0 18 20" fill="none" xmlns="http://www.w3.org/2000/svg">
<path d="M8.75391 5.50781C6.26953 5.50781 4.26562 7.51172 4.26562 9.99609C4.26562 12.4805 6.26953 14.4844 8.75391 14.4844C11.2383 14.4844 13.2422 12.4805 13.2422 9.99609C13.2422 7.51172 11.2383 5.50781 8.75391 5.50781ZM8.75391 12.9141C7.14844 12.9141 5.83594 11.6055 5.83594 9.99609C5.83594 8.38672 7.14453 7.07812 8.75391 7.07812C10.3633 7.07812 11.6719 8.38672 11.6719 9.99609C11.6719 11.6055 10.3594 12.9141 8.75391 12.9141ZM14.4727 5.32422C14.4727 5.90625 14.0039 6.37109 13.4258 6.37109C12.8438 6.37109 12.3789 5.90234 12.3789 5.32422C12.3789 4.74609 12.8477 4.27734 13.4258 4.27734C14.0039 4.27734 14.4727 4.74609 14.4727 5.32422ZM17.4453 6.38672C17.3789 4.98438 17.0586 3.74219 16.0312 2.71875C15.0078 1.69531 13.7656 1.375 12.3633 1.30469C10.918 1.22266 6.58594 1.22266 5.14062 1.30469C3.74219 1.37109 2.5 1.69141 1.47266 2.71484C0.445313 3.73828 0.128906 4.98047 0.0585937 6.38281C-0.0234375 7.82812 -0.0234375 12.1602 0.0585937 13.6055C0.125 15.0078 0.445313 16.25 1.47266 17.2734C2.5 18.2969 3.73828 18.6172 5.14062 18.6875C6.58594 18.7695 10.918 18.7695 12.3633 18.6875C13.7656 18.6211 15.0078 18.3008 16.0312 17.2734C17.0547 16.25 17.375 15.0078 17.4453 13.6055C17.5273 12.1602 17.5273 7.83203 17.4453 6.38672ZM15.5781 15.1562C15.2734 15.9219 14.6836 16.5117 13.9141 16.8203C12.7617 17.2773 10.0273 17.1719 8.75391 17.1719C7.48047 17.1719 4.74219 17.2734 3.59375 16.8203C2.82812 16.5156 2.23828 15.9258 1.92969 15.1562C1.47266 14.0039 1.57813 11.2695 1.57813 9.99609C1.57813 8.72266 1.47656 5.98438 1.92969 4.83594C2.23438 4.07031 2.82422 3.48047 3.59375 3.17187C4.74609 2.71484 7.48047 2.82031 8.75391 2.82031C10.0273 2.82031 12.7656 2.71875 13.9141 3.17187C14.6797 3.47656 15.2695 4.06641 15.5781 4.83594C16.0352 5.98828 15.9297 8.72266 15.9297 9.99609C15.9297 11.2695 16.0352 14.0078 15.5781 15.1562Z" fill="#090808"/>
</svg>
