<svg width="161" height="160" viewBox="0 0 161 160" fill="none" xmlns="http://www.w3.org/2000/svg">
<rect x="0.5" width="160" height="160" rx="30" fill="#FAFAFA" fill-opacity="0.5"/>
<path d="M48.625 76.25V87.5C48.625 101.641 48.625 108.714 53.02 113.105C57.4112 117.5 64.4838 117.5 78.625 117.5H82.375C96.5162 117.5 103.589 117.5 107.98 113.105C112.375 108.714 112.375 101.641 112.375 87.5V76.25" stroke="#F9531E" stroke-width="1.875"/>
<path d="M71.1253 42.5H89.8753L92.3203 66.9388C92.4814 68.5879 92.2956 70.2525 91.7748 71.8255C91.2541 73.3985 90.41 74.8451 89.2968 76.0724C88.1835 77.2997 86.8258 78.2805 85.3108 78.9516C83.7959 79.6228 82.1572 79.9695 80.5003 79.9695C78.8433 79.9695 77.2047 79.6228 75.6897 78.9516C74.1748 78.2805 72.817 77.2997 71.7038 76.0724C70.5905 74.8451 69.7464 73.3985 69.2257 71.8255C68.705 70.2525 68.5192 68.5879 68.6803 66.9388L71.1253 42.5Z" stroke="#F9531E" stroke-width="1.875"/>
<path d="M47.9876 55.0662C48.6551 51.7287 48.9888 50.06 49.6676 48.7062C50.3748 47.2964 51.3706 46.051 52.5903 45.0509C53.8101 44.0509 55.2265 43.3185 56.7476 42.9013C58.2101 42.5 59.9126 42.5 63.3176 42.5H71.1251L68.4063 69.6687C68.2629 71.2236 67.8036 72.7328 67.0565 74.104C66.3095 75.4752 65.2905 76.6795 64.0619 77.6432C62.8333 78.6069 61.421 79.3097 59.9113 79.7086C58.4016 80.1075 56.8265 80.1941 55.2822 79.9631C53.7379 79.732 52.257 79.1883 50.9302 78.3651C49.6033 77.5418 48.4585 76.4565 47.5657 75.1754C46.6729 73.8944 46.0509 72.4446 45.7379 70.9149C45.4248 69.3851 45.4273 67.8075 45.7451 66.2787L47.9876 55.0662ZM113.013 55.0662C112.345 51.7287 112.011 50.06 111.333 48.7062C110.625 47.2964 109.63 46.051 108.41 45.0509C107.19 44.0509 105.774 43.3185 104.253 42.9013C102.79 42.5 101.088 42.5 97.6826 42.5H89.8751L92.5938 69.6687C92.7373 71.2236 93.1966 72.7328 93.9436 74.104C94.6906 75.4752 95.7096 76.6795 96.9382 77.6432C98.1669 78.6069 99.5792 79.3097 101.089 79.7086C102.599 80.1075 104.174 80.1941 105.718 79.9631C107.262 79.732 108.743 79.1883 110.07 78.3651C111.397 77.5418 112.542 76.4565 113.435 75.1754C114.327 73.8944 114.949 72.4446 115.262 70.9149C115.575 69.3851 115.573 67.8075 115.255 66.2787L113.013 55.0662Z" stroke="#F9531E" stroke-width="1.875"/>
<path d="M71.125 115.625V104.375C71.125 100.869 71.125 99.1175 71.8788 97.8125C72.3724 96.9575 73.0825 96.2474 73.9375 95.7538C75.2425 95 76.9937 95 80.5 95C84.0063 95 85.7575 95 87.0625 95.7538C87.9175 96.2474 88.6276 96.9575 89.1212 97.8125C89.875 99.1175 89.875 100.869 89.875 104.375V115.625" stroke="#F9531E" stroke-width="1.875" stroke-linecap="round"/>
</svg>
