<svg width="41" height="42" viewBox="0 0 41 42" fill="none" xmlns="http://www.w3.org/2000/svg">
<path d="M30.6559 25.125V31.375H24.6663V35.5417H30.6559V41.7917H34.649V35.5417H40.6386V31.375H34.649V25.125H30.6559ZM21.2722 37.625H4.70106C2.50488 37.625 0.708008 35.75 0.708008 33.4583V4.29167C0.708008 2 2.50488 0.125 4.70106 0.125H32.6525C34.8486 0.125 36.6455 2 36.6455 4.29167V21.5833C35.4476 21.1667 34.05 20.9583 32.6525 20.9583C30.4563 20.9583 28.2601 21.5833 26.4632 22.8333L23.6681 18.875L16.6802 28.25L11.6889 22L4.70106 31.375H20.8729C20.6733 32 20.6733 32.8333 20.6733 33.4583C20.6733 34.9167 20.8729 36.375 21.2722 37.625Z" fill="#DA3A00"/>
</svg>
